<?xml version="1.0" encoding="utf-8"?>
<!-- Generator: Adobe Illustrator 22.0.0, SVG Export Plug-In . SVG Version: 6.00 Build 0)  -->
<svg version="1.1" id="Layer_1" xmlns="http://www.w3.org/2000/svg" xmlns:xlink="http://www.w3.org/1999/xlink" x="0px" y="0px"
	 viewBox="0 0 236.2 48.9" style="enable-background:new 0 0 236.2 48.9;" xml:space="preserve">
<style type="text/css">
	.st0{enable-background:new    ;}
</style>
<title>Asset 2</title>
<g id="Layer_2_1_">
	<g id="HomePage">
		<g class="st0">
			<path d="M1.9,3.6C1.8,3.1,1.4,3,1,3H0.8V1.5h0.8c1.2,0,1.6,0.2,2.1,1.4l4.3,11.8c0.2,0.9,0.6,2.3,0.6,2.3l0,0
				c0,0,0.3-1.4,0.6-2.3l4.3-11.8c0.4-1.2,0.9-1.4,2.1-1.4h0.8V3h-0.2c-0.4,0-0.8,0.1-0.9,0.5L9.5,18.9H7.6L1.9,3.6z"/>
		</g>
		<g class="st0">
			<path d="M18.9,8.4c0-0.3-0.2-0.5-0.5-0.5h-1.1V6.5h1.7c1.1,0,1.5,0.4,1.5,1.5v9c0,0.3,0.2,0.5,0.5,0.5h1.1V19h-1.7
				c-1.1,0-1.5-0.4-1.5-1.5V8.4z M18.9,1.5h1.6v2.2h-1.6V1.5z"/>
		</g>
		<g class="st0">
			<path d="M24.2,8.5C24,8.1,23.8,8,23.4,8h-0.2V6.5h0.6c1.2,0,1.5,0.2,1.9,1.4l3,7.8c0.2,0.6,0.4,1.5,0.4,1.5l0,0
				c0,0,0.2-0.9,0.4-1.5l3-7.8c0.4-1.1,0.8-1.4,1.9-1.4h0.6V8H35c-0.4,0-0.8,0.1-0.9,0.5l-4,10.4h-1.8L24.2,8.5z"/>
		</g>
		<g class="st0">
			<path d="M42.6,6.1c3.5,0,5.3,2.7,5.3,5.7c0,0.3,0,0.9,0,0.9h-9.6c0,3.1,2.3,5,4.9,5c2.3,0,3.8-1.5,3.8-1.5l0.9,1.3
				c0,0-1.8,1.8-4.6,1.8c-3.7,0-6.5-2.7-6.5-6.5C36.4,8.6,39.3,6.1,42.6,6.1z M46.1,11.4c-0.1-2.6-1.7-3.9-3.6-3.9
				c-2.1,0-3.9,1.3-4.3,3.9H46.1z"/>
			<path d="M51.1,8.4c0-0.3-0.2-0.5-0.5-0.5h-1.1V6.5h1.7c1.1,0,1.5,0.4,1.5,1.4v0.9c0,0.5,0,1,0,1l0,0c0.6-1.9,2.1-3.3,4-3.3
				c0.4,0,0.8,0,0.8,0V8c0,0-0.3,0-0.6,0c-1.7,0-3.1,1.4-3.7,3.2c-0.2,0.8-0.3,1.6-0.3,2.5V19h-1.7V8.4z"/>
			<path d="M66.9,8.4c0-0.3-0.2-0.5-0.5-0.5h-1.1V6.5H67c1.1,0,1.5,0.4,1.5,1.4v0.5c0,0.5,0,0.9,0,0.9l0,0c0.4-1.2,2.1-3.1,5-3.1
				c3.1,0,4.2,1.7,4.2,4.9v5.9c0,0.3,0.2,0.5,0.5,0.5h1.1V19h-1.7c-1.1,0-1.5-0.4-1.5-1.5v-5.9c0-1.9-0.3-3.7-2.7-3.7
				c-2.2,0-4,1.5-4.5,3.6c-0.1,0.5-0.2,1.1-0.2,1.7v5.9h-1.7V8.4z"/>
			<path d="M88.5,11.2h0.6v-0.1c0-2.6-1-3.6-3.2-3.6c-0.6,0-2.5,0.2-2.5,1.1v0.8h-1.6V8.3c0-1.7,3-2.2,4.1-2.2c4,0,4.9,2.2,4.9,4.8
				v5.9c0,0.3,0.2,0.5,0.5,0.5h1.1v1.5h-1.7c-1.1,0-1.5-0.4-1.5-1.5c0-0.5,0-1,0-1l0,0c0,0-1,2.7-4.1,2.7c-2.1,0-4.2-1.2-4.2-3.7
				C80.8,11.4,86.4,11.2,88.5,11.2z M85.4,17.8c2.4,0,3.8-2.5,3.8-4.6v-0.5h-0.6c-1.9,0-5.9,0-5.9,2.8
				C82.6,16.6,83.5,17.8,85.4,17.8z"/>
			<path d="M107.3,6.1c1.4,0,4.4,0.6,4.4,2.7v1.1h-1.6V9.2c0-1.1-1.8-1.5-2.8-1.5c-2.6,0-4.8,2.1-4.8,5.1c0,3.1,2.3,5,4.9,5
				c2.6,0,4-1.7,4-1.7l0.9,1.2c0,0-1.7,2.1-4.9,2.1c-3.7,0-6.6-2.7-6.6-6.5C100.8,8.8,103.6,6.1,107.3,6.1z"/>
			<path d="M121.6,11.2h0.6v-0.1c0-2.6-1-3.6-3.2-3.6c-0.6,0-2.5,0.2-2.5,1.1v0.8h-1.6V8.3c0-1.7,3-2.2,4.1-2.2c4,0,4.9,2.2,4.9,4.8
				v5.9c0,0.3,0.2,0.5,0.5,0.5h1.1v1.5h-1.7c-1.1,0-1.5-0.4-1.5-1.5c0-0.5,0-1,0-1l0,0c0,0-1,2.7-4.1,2.7c-2.1,0-4.2-1.2-4.2-3.7
				C113.9,11.4,119.4,11.2,121.6,11.2z M118.4,17.8c2.4,0,3.8-2.5,3.8-4.6v-0.5h-0.8c-1.9,0-5.9,0-5.9,2.8
				C115.6,16.6,116.6,17.8,118.4,17.8z"/>
			<path d="M127.7,15.9c0,0,1.4,1.8,3.9,1.8c1.4,0,2.6-0.6,2.6-1.9c0-2.7-7-2.3-7-6.3c0-2.3,1.9-3.3,4.4-3.3c1.3,0,3.8,0.5,3.8,2.3
				v1.1h-1.5V8.8c0-1-1.3-1.3-2.2-1.3c-1.7,0-2.8,0.6-2.8,1.8c0,2.8,7,2.2,7,6.3c0,2.1-1.8,3.5-4.3,3.5c-3.2,0-4.8-2.2-4.8-2.2
				L127.7,15.9z"/>
			<path d="M145.7,11.2h0.6v-0.1c0-2.6-1-3.6-3.2-3.6c-0.6,0-2.5,0.2-2.5,1.1v0.8H139V8.3c0-1.7,3-2.2,4.1-2.2c4,0,4.9,2.2,4.9,4.8
				v5.9c0,0.3,0.2,0.5,0.5,0.5h1.1v1.5h-1.6c-1.1,0-1.5-0.4-1.5-1.5c0-0.5,0-1,0-1l0,0c0,0-1,2.7-4.1,2.7c-2.1,0-4.2-1.2-4.2-3.7
				C138,11.4,143.5,11.2,145.7,11.2z M142.5,17.8c2.4,0,3.8-2.5,3.8-4.6v-0.5h-0.8c-1.9,0-5.9,0-5.9,2.8
				C139.7,16.6,140.6,17.8,142.5,17.8z"/>
			<path d="M163.5,6.1c3,0,4.1,2.4,4.1,2.4l0,0c0,0,0-0.4,0-1V3.4c0-0.3-0.2-0.5-0.5-0.5H166V1.5h1.7c1.1,0,1.5,0.4,1.5,1.5v13.9
				c0,0.3,0.2,0.5,0.5,0.5h1.1V19h-1.7c-1.1,0-1.5-0.4-1.5-1.4c0-0.4,0-0.8,0-0.8l0,0c0,0-1,2.5-4.3,2.5c-3.3,0-5.4-2.7-5.4-6.6
				C158,8.7,160.2,6.1,163.5,6.1z M167.7,12.6c0-2.5-1.3-5-4-5c-2.2,0-4,1.8-4,5s1.6,5.1,4,5.1C165.6,17.7,167.7,16.2,167.7,12.6z"
				/>
			<path d="M180.1,11.2h0.6v-0.1c0-2.6-1-3.6-3.2-3.6c-0.6,0-2.5,0.2-2.5,1.1v0.8h-1.6V8.3c0-1.7,3-2.2,4.1-2.2c4,0,4.9,2.2,4.9,4.8
				v5.9c0,0.3,0.2,0.5,0.5,0.5h1.1v1.5h-1.7c-1.1,0-1.5-0.4-1.5-1.5c0-0.5,0-1,0-1l0,0c0,0-1,2.7-4.1,2.7c-2.1,0-4.2-1.2-4.2-3.7
				C172.5,11.4,178,11.2,180.1,11.2z M177,17.8c2.4,0,3.8-2.5,3.8-4.6v-0.5H180c-1.9,0-5.9,0-5.9,2.8
				C174.2,16.6,175.2,17.8,177,17.8z"/>
		</g>
		<g class="st0">
			<path d="M200,11.2h0.6v-0.1c0-2.6-1-3.6-3.2-3.6c-0.6,0-2.5,0.2-2.5,1.1v0.8h-1.6V8.3c0-1.7,3-2.2,4.1-2.2c4,0,4.9,2.2,4.9,4.8
				v5.9c0,0.3,0.2,0.5,0.5,0.5h1.1v1.5h-1.7c-1.1,0-1.5-0.4-1.5-1.5c0-0.5,0-1,0-1l0,0c0,0-1,2.7-4.1,2.7c-2.1,0-4.2-1.2-4.2-3.7
				C192.4,11.4,197.8,11.2,200,11.2z M196.9,17.8c2.4,0,3.8-2.5,3.8-4.6v-0.5h-0.8c-1.9,0-5.9,0-5.9,2.8
				C194.2,16.6,195,17.8,196.9,17.8z"/>
		</g>
		<g class="st0">
			<path d="M205.7,8.5c-0.2-0.4-0.4-0.5-0.9-0.5h-0.2V6.5h0.6c1.2,0,1.5,0.2,1.9,1.4l3,7.8c0.2,0.6,0.4,1.5,0.4,1.5l0,0
				c0,0,0.2-0.9,0.4-1.5l3-7.8c0.4-1.1,0.8-1.4,1.9-1.4h0.6V8h-0.2c-0.4,0-0.8,0.1-0.9,0.5L211.6,19h-1.8L205.7,8.5z"/>
		</g>
		<g class="st0">
			<path d="M224.4,6.1c3.7,0,6.6,2.8,6.6,6.5c0,3.8-2.9,6.6-6.6,6.6c-3.7,0-6.6-2.8-6.6-6.6C217.8,9,220.8,6.1,224.4,6.1z
				 M224.4,17.7c2.7,0,4.9-2.2,4.9-5.1c0-2.8-2.2-5-4.9-5s-4.9,2.2-4.9,5C219.5,15.5,221.8,17.7,224.4,17.7z M225.5,1.5h1.8
				l-2.2,2.9h-1.5L225.5,1.5z"/>
		</g>
		<g class="st0">
			<path d="M2.5,30.2c0-0.3-0.1-0.4-0.4-0.4H1.2v-1.2h1.4c0.9,0,1.2,0.3,1.2,1.2v10.8c0,0.3,0.1,0.4,0.4,0.4h4.5
				c0.3,0,0.4-0.1,0.4-0.4v-0.9h1.3v1.4c0,0.9-0.3,1.2-1.2,1.2H3.7c-0.9,0-1.2-0.3-1.2-1.2V30.2z"/>
		</g>
		<g class="st0">
			<path d="M12.6,34c0-0.3-0.1-0.4-0.4-0.4h-0.9v-1.2h1.4c0.9,0,1.2,0.3,1.2,1.2v7c0,0.3,0.1,0.4,0.4,0.4h0.9v1.2h-1.4
				c-0.9,0-1.2-0.3-1.2-1.2V34z M12.5,28.6h1.3v1.6h-1.3V28.6z"/>
		</g>
		<g class="st0">
			<path d="M16.7,34.1c-0.1-0.3-0.3-0.4-0.6-0.4h-0.2v-1.2h0.5c1,0,1.2,0.2,1.5,1.1l2.4,6.2c0.2,0.5,0.3,1.2,0.3,1.2l0,0
				c0,0,0.1-0.6,0.3-1.2l2.4-6.2c0.3-0.9,0.6-1.1,1.5-1.1h0.5v1.2h-0.2c-0.3,0-0.5,0.1-0.6,0.4l-3.2,8.2h-1.4L16.7,34.1z"/>
			<path d="M27.4,34c0-0.3-0.1-0.4-0.4-0.4h-0.9v-1.2h1.4c0.9,0,1.2,0.3,1.2,1.2v7c0,0.3,0.1,0.4,0.4,0.4H30v1.2h-1.4
				c-0.9,0-1.2-0.3-1.2-1.2V34z M27.4,28.6h1.3v1.6h-1.3V28.6z"/>
			<path d="M32.2,34c0-0.3-0.1-0.4-0.4-0.4h-0.9v-1.2h1.4c0.9,0,1.2,0.3,1.2,1.1v0.4c0,0.4,0,0.6,0,0.6l0,0c0.3-0.9,1.6-2.5,3.9-2.5
				c2.5,0,3.2,1.4,3.2,3.8v4.6c0,0.3,0.1,0.4,0.4,0.4H42v1.2h-1.4c-0.9,0-1.2-0.3-1.2-1.2v-4.6c0-1.5-0.2-2.9-2.2-2.9
				c-1.6,0-3.1,1.2-3.6,2.8c-0.1,0.4-0.1,0.9-0.1,1.3v4.6h-1.3C32.2,42.1,32.2,34,32.2,34z"/>
			<path d="M47.4,32.3c2.6,0,3.2,1.6,3.2,1.6l0,0c0,0,0-0.2,0-0.3c0-0.6,0.3-1.1,1.1-1.1h1.4v1.2h-0.8c-0.3,0-0.4,0.1-0.4,0.4V42
				c0,3.1-2.3,4.3-4.8,4.3c-1.1,0-2.3-0.3-3.2-0.8l0.5-1.1c0,0,1.2,0.6,2.6,0.6c1.9,0,3.5-0.9,3.5-3v-0.9c0-0.3,0-0.6,0-0.6l0,0
				c-0.5,1.1-1.5,1.7-3,1.7c-2.6,0-4.3-2.1-4.3-5S44.8,32.3,47.4,32.3z M50.6,37.1c0-2.8-1.4-3.8-3.1-3.8c-1.9,0-3,1.4-3,3.7
				c0,2.4,1.3,3.9,3.2,3.9C49.2,41,50.6,40.1,50.6,37.1z"/>
			<path d="M60.6,34c0-0.3-0.1-0.4-0.4-0.4h-0.9v-1.2h1.4c0.9,0,1.2,0.3,1.2,1.2v7c0,0.3,0.1,0.4,0.4,0.4h0.9v1.2h-1.4
				c-0.9,0-1.2-0.3-1.2-1.2V34z M60.6,28.6h1.3v1.6h-1.3V28.6z"/>
			<path d="M65.4,34c0-0.3-0.1-0.4-0.4-0.4h-0.9v-1.2h1.4c0.9,0,1.2,0.3,1.2,1.1v0.4c0,0.4,0,0.6,0,0.6l0,0c0.3-0.9,1.6-2.5,3.9-2.5
				c2.5,0,3.2,1.4,3.2,3.8v4.6c0,0.3,0.1,0.4,0.4,0.4h0.9v1.2h-1.4c-0.9,0-1.2-0.3-1.2-1.2v-4.6c0-1.5-0.2-2.9-2.2-2.9
				c-1.6,0-3.1,1.2-3.6,2.8c-0.1,0.4-0.1,0.9-0.1,1.3v4.6h-1.3V34z"/>
			<path d="M85.9,32.3c2.6,0,3.2,1.6,3.2,1.6l0,0c0,0,0-0.2,0-0.3c0-0.6,0.3-1.1,1.1-1.1h1.4v1.2h-0.8c-0.3,0-0.4,0.1-0.4,0.4V42
				c0,3.1-2.3,4.3-4.8,4.3c-1.1,0-2.3-0.3-3.2-0.8l0.5-1.1c0,0,1.2,0.6,2.6,0.6c1.9,0,3.5-0.9,3.5-3v-0.9c0-0.3,0-0.6,0-0.6l0,0
				c-0.5,1.1-1.5,1.7-3,1.7c-2.6,0-4.3-2.1-4.3-5S83.3,32.3,85.9,32.3z M89.2,37.1c0-2.8-1.4-3.8-3.1-3.8c-1.9,0-3,1.4-3,3.7
				c0,2.4,1.3,3.9,3.2,3.9C87.8,41,89.2,40.1,89.2,37.1z"/>
		</g>
		<g class="st0">
			<path d="M93.8,34c0-0.3-0.1-0.4-0.4-0.4h-0.9v-1.2h1.4c0.9,0,1.2,0.3,1.2,1.1v0.6c0,0.4,0,0.8,0,0.8l0,0c0.4-1.5,1.5-2.6,3.1-2.6
				c0.3,0,0.5,0.1,0.5,0.1v1.3c0,0-0.2,0-0.5,0c-1.4,0-2.4,1.1-2.8,2.5c-0.2,0.6-0.3,1.3-0.3,1.9v4.1h-1.3V34z"/>
		</g>
		<g class="st0">
			<path d="M105.3,36.3h0.5v-0.1c0-2.1-0.8-2.8-2.5-2.8c-0.5,0-1.9,0.1-1.9,0.9v0.6h-1.3v-1c0-1.4,2.4-1.6,3.2-1.6
				c3.1,0,3.8,1.6,3.8,3.8v4.6c0,0.3,0.1,0.4,0.4,0.4h0.9v1.2h-1.3c-0.9,0-1.2-0.3-1.2-1.2c0-0.4,0-0.8,0-0.8l0,0
				c0,0-0.8,2.2-3.2,2.2c-1.6,0-3.3-1-3.3-2.9C99.3,36.4,103.5,36.3,105.3,36.3z M102.8,41.4c1.8,0,3-1.9,3-3.7v-0.4h-0.5
				c-1.5,0-4.6,0-4.6,2.3C100.6,40.4,101.4,41.4,102.8,41.4z"/>
			<path d="M110.4,34c0-0.3-0.1-0.4-0.4-0.4h-0.9v-1.2h1.4c0.9,0,1.2,0.3,1.2,1.1v0.4c0,0.4,0,0.6,0,0.6l0,0
				c0.3-0.9,1.6-2.5,3.9-2.5c2.5,0,3.2,1.4,3.2,3.8v4.6c0,0.3,0.1,0.4,0.4,0.4h0.9v1.2h-1.4c-0.9,0-1.2-0.3-1.2-1.2v-4.6
				c0-1.5-0.2-2.9-2.2-2.9c-1.6,0-3.1,1.2-3.6,2.8c-0.1,0.4-0.1,0.9-0.1,1.3v4.6h-1.3V34z"/>
			<path d="M125.8,32.3c2.4,0,3.2,1.8,3.2,1.8l0,0c0,0,0-0.3,0-0.8v-3.2c0-0.3-0.1-0.4-0.4-0.4h-0.9v-1.2h1.4c0.9,0,1.2,0.3,1.2,1.2
				v10.9c0,0.3,0.1,0.4,0.4,0.4h0.9v1.2h-1.4c-0.9,0-1.2-0.3-1.2-1.1c0-0.3,0-0.6,0-0.6l0,0c0,0-0.8,1.9-3.3,1.9
				c-2.6,0-4.2-2.1-4.2-5.2C121.5,34.2,123.3,32.3,125.8,32.3z M129,37.4c0-1.9-1-3.9-3.1-3.9c-1.7,0-3.1,1.5-3.1,3.9s1.3,4,3.1,4
				C127.5,41.4,129,40.2,129,37.4z"/>
			<path d="M133.8,34c0-0.3-0.1-0.4-0.4-0.4h-0.9v-1.2h1.4c0.9,0,1.2,0.3,1.2,1.1v0.4c0,0.4,0,0.6,0,0.6l0,0
				c0.5-1.3,2.1-2.5,3.6-2.5c1.8,0,2.7,0.9,3,2.5l0,0c0.5-1.3,1.9-2.5,3.6-2.5c2.4,0,3.2,1.4,3.2,3.8v4.6c0,0.3,0.1,0.4,0.4,0.4h0.9
				v1.2h-1.4c-0.9,0-1.2-0.3-1.2-1.2v-4.8c0-1.6-0.3-2.9-2.2-2.9c-1.5,0-2.7,1.3-3.1,2.8c-0.1,0.4-0.2,0.9-0.2,1.4v4.6h-1.3v-5.9
				c0-1.5-0.2-2.9-2.1-2.9c-1.6,0-2.8,1.4-3.2,2.9c-0.1,0.4-0.1,0.9-0.1,1.3v4.6h-1.3V34H133.8z"/>
		</g>
		<g class="st0">
			<path d="M156.9,36.3h0.5v-0.1c0-2.1-0.8-2.8-2.5-2.8c-0.5,0-1.9,0.1-1.9,0.9v0.6h-1.3v-1c0-1.4,2.4-1.6,3.2-1.6
				c3.1,0,3.8,1.6,3.8,3.8v4.6c0,0.3,0.1,0.4,0.4,0.4h0.9v1.2h-1.3c-0.9,0-1.2-0.3-1.2-1.2c0-0.4,0-0.8,0-0.8l0,0
				c0,0-0.8,2.2-3.2,2.2c-1.6,0-3.3-1-3.3-2.9C151,36.4,155.3,36.3,156.9,36.3z M154.5,41.4c1.8,0,3-1.9,3-3.7v-0.4H157
				c-1.5,0-4.6,0-4.6,2.3C152.3,40.4,153,41.4,154.5,41.4z"/>
		</g>
		<g class="st0">
			<path d="M161.4,28.4h1.4l-1.1,3.3h-1.1L161.4,28.4z"/>
		</g>
		<g class="st0">
			<path d="M164.2,39.8c0,0,1.1,1.5,3,1.5c1.1,0,2.1-0.5,2.1-1.5c0-2.2-5.5-1.7-5.5-4.9c0-1.7,1.5-2.6,3.5-2.6c1,0,3,0.4,3,1.7V35
				H169v-0.4c0-0.8-1.1-1-1.7-1c-1.4,0-2.2,0.4-2.2,1.4c0,2.2,5.5,1.7,5.5,5c0,1.6-1.5,2.7-3.5,2.7c-2.6,0-3.8-1.7-3.8-1.7
				L164.2,39.8z"/>
			<path d="M178.4,30.1c0-0.3-0.1-0.4-0.4-0.4h-0.9v-1.2h1.4c0.9,0,1.2,0.3,1.2,1.2v4.1c0,0.4,0,0.8,0,0.8l0,0
				c0.3-1,1.6-2.5,3.9-2.5c2.5,0,3.2,1.4,3.2,3.8v4.6c0,0.3,0.1,0.4,0.4,0.4h0.9v1.2h-1.3c-0.9,0-1.2-0.3-1.2-1.2v-4.6
				c0-1.5-0.2-2.9-2.2-2.9c-1.6,0-3.1,1.2-3.6,2.8c-0.1,0.4-0.1,0.9-0.1,1.3v4.6h-1.3v-12H178.4z"/>
			<path d="M194.5,32.3c2.8,0,5.2,2.2,5.2,5.1s-2.3,5.2-5.2,5.2c-2.8,0-5.2-2.3-5.2-5.2S191.7,32.3,194.5,32.3z M194.5,41.4
				c2.1,0,3.8-1.7,3.8-4s-1.7-3.9-3.8-3.9s-3.8,1.6-3.8,3.9C190.7,39.6,192.4,41.4,194.5,41.4z"/>
			<path d="M202.2,34c0-0.3-0.1-0.4-0.4-0.4h-0.9v-1.2h1.4c0.9,0,1.2,0.3,1.2,1.2v4.8c0,1.5,0.2,2.9,2.2,2.9c2.3,0,3.6-1.9,3.6-4.1
				v-4.6h1.3v8.2c0,0.3,0.1,0.4,0.4,0.4h0.9v1.2h-1.3c-0.9,0-1.2-0.3-1.2-1.1v-0.4c0-0.4,0-0.6,0-0.6l0,0c-0.4,1-1.6,2.5-3.8,2.5
				c-2.3,0-3.2-1.3-3.2-3.8V34H202.2z"/>
			<path d="M213.5,39.8c0,0,1.1,1.5,3,1.5c1.1,0,2.1-0.5,2.1-1.5c0-2.2-5.5-1.7-5.5-4.9c0-1.7,1.5-2.6,3.5-2.6c1,0,3,0.4,3,1.7V35
				h-1.3v-0.4c0-0.8-1.1-1-1.7-1c-1.4,0-2.2,0.4-2.2,1.4c0,2.2,5.5,1.7,5.5,5c0,1.6-1.5,2.7-3.5,2.7c-2.6,0-3.8-1.7-3.8-1.7
				L213.5,39.8z"/>
			<path d="M226.4,32.3c2.7,0,4.1,2.1,4.1,4.5c0,0.2,0,0.6,0,0.6h-7.6c0,2.5,1.7,3.9,3.8,3.9c1.8,0,2.9-1.2,2.9-1.2l0.6,1
				c0,0-1.4,1.4-3.7,1.4c-2.9,0-5.1-2.1-5.1-5.1C221.5,34.2,223.8,32.3,226.4,32.3z M229.1,36.4c-0.1-2.1-1.3-3-2.8-3
				c-1.6,0-3,1.1-3.3,3H229.1z"/>
		</g>
	</g>
</g>
</svg>
