<?xml version="1.0" encoding="utf-8"?>
<!-- Generator: Adobe Illustrator 22.0.0, SVG Export Plug-In . SVG Version: 6.00 Build 0)  -->
<svg version="1.1" id="Camada_1" xmlns="http://www.w3.org/2000/svg" xmlns:xlink="http://www.w3.org/1999/xlink" x="0px" y="0px"
	 viewBox="0 0 2729.1 1020.4" style="enable-background:new 0 0 2729.1 1020.4;" xml:space="preserve">
<style type="text/css">
	.st0{display:none;}
	.st1{display:inline;fill:none;}
	.st2{fill:#FFFFFF;}
</style>
<g class="st0">
	<rect class="st1" width="2729.1" height="1020.4"/>
</g>
<g>
	<g>
		<path class="st2" d="M210.1,340.2c-2.6,0-5.1-1-7.1-2.9l-60-60c-3.9-3.9-3.9-10.2,0-14.1c3.9-3.9,10.2-3.9,14.1,0l60,60
			c3.9,3.9,3.9,10.2,0,14.1C215.2,339.2,212.6,340.2,210.1,340.2z"/>
	</g>
	<g>
		<path class="st2" d="M150.1,340.2c-2.6,0-5.1-1-7.1-2.9c-3.9-3.9-3.9-10.2,0-14.1l60-60c3.9-3.9,10.2-3.9,14.1,0
			c3.9,3.9,3.9,10.2,0,14.1l-60,60C155.2,339.2,152.6,340.2,150.1,340.2z"/>
	</g>
	<g>
		<path class="st2" d="M210.1,460.2c-2.6,0-5.1-1-7.1-2.9l-60-60c-3.9-3.9-3.9-10.2,0-14.1c3.9-3.9,10.2-3.9,14.1,0l60,60
			c3.9,3.9,3.9,10.2,0,14.1C215.2,459.2,212.6,460.2,210.1,460.2z"/>
	</g>
	<g>
		<path class="st2" d="M150.1,460.2c-2.6,0-5.1-1-7.1-2.9c-3.9-3.9-3.9-10.2,0-14.1l60-60c3.9-3.9,10.2-3.9,14.1,0
			c3.9,3.9,3.9,10.2,0,14.1l-60,60C155.2,459.2,152.6,460.2,150.1,460.2z"/>
	</g>
	<g>
		<path class="st2" d="M210.1,400.2c-2.6,0-5.1-1-7.1-2.9l-60-60c-3.9-3.9-3.9-10.2,0-14.1c3.9-3.9,10.2-3.9,14.1,0l60,60
			c3.9,3.9,3.9,10.2,0,14.1C215.2,399.2,212.6,400.2,210.1,400.2z"/>
	</g>
	<g>
		<path class="st2" d="M150.1,400.2c-2.6,0-5.1-1-7.1-2.9c-3.9-3.9-3.9-10.2,0-14.1l60-60c3.9-3.9,10.2-3.9,14.1,0
			c3.9,3.9,3.9,10.2,0,14.1l-60,60C155.2,399.2,152.6,400.2,150.1,400.2z"/>
	</g>
	<g>
		<path class="st2" d="M210.1,580.2c-2.6,0-5.1-1-7.1-2.9l-60-60c-3.9-3.9-3.9-10.2,0-14.1c3.9-3.9,10.2-3.9,14.1,0l60,60
			c3.9,3.9,3.9,10.2,0,14.1C215.2,579.2,212.6,580.2,210.1,580.2z"/>
	</g>
	<g>
		<path class="st2" d="M150.1,580.2c-2.6,0-5.1-1-7.1-2.9c-3.9-3.9-3.9-10.2,0-14.1l60-60c3.9-3.9,10.2-3.9,14.1,0
			c3.9,3.9,3.9,10.2,0,14.1l-60,60C155.2,579.2,152.6,580.2,150.1,580.2z"/>
	</g>
	<g>
		<path class="st2" d="M210.1,520.2c-2.6,0-5.1-1-7.1-2.9l-60-60c-3.9-3.9-3.9-10.2,0-14.1c3.9-3.9,10.2-3.9,14.1,0l60,60
			c3.9,3.9,3.9,10.2,0,14.1C215.2,519.2,212.6,520.2,210.1,520.2z"/>
	</g>
	<g>
		<path class="st2" d="M150.1,520.2c-2.6,0-5.1-1-7.1-2.9c-3.9-3.9-3.9-10.2,0-14.1l60-60c3.9-3.9,10.2-3.9,14.1,0
			c3.9,3.9,3.9,10.2,0,14.1l-60,60C155.2,519.2,152.6,520.2,150.1,520.2z"/>
	</g>
	<g>
		<path class="st2" d="M270.1,340.2c-2.6,0-5.1-1-7.1-2.9l-60-60c-3.9-3.9-3.9-10.2,0-14.1c3.9-3.9,10.2-3.9,14.1,0l60,60
			c3.9,3.9,3.9,10.2,0,14.1C275.2,339.2,272.6,340.2,270.1,340.2z"/>
	</g>
	<g>
		<path class="st2" d="M210.1,340.2c-2.6,0-5.1-1-7.1-2.9c-3.9-3.9-3.9-10.2,0-14.1l60-60c3.9-3.9,10.2-3.9,14.1,0
			c3.9,3.9,3.9,10.2,0,14.1l-60,60C215.2,339.2,212.6,340.2,210.1,340.2z"/>
	</g>
	<g>
		<path class="st2" d="M270.1,460.2c-2.6,0-5.1-1-7.1-2.9l-60-60c-3.9-3.9-3.9-10.2,0-14.1c3.9-3.9,10.2-3.9,14.1,0l60,60
			c3.9,3.9,3.9,10.2,0,14.1C275.2,459.2,272.6,460.2,270.1,460.2z"/>
	</g>
	<g>
		<path class="st2" d="M210.1,460.2c-2.6,0-5.1-1-7.1-2.9c-3.9-3.9-3.9-10.2,0-14.1l60-60c3.9-3.9,10.2-3.9,14.1,0
			c3.9,3.9,3.9,10.2,0,14.1l-60,60C215.2,459.2,212.6,460.2,210.1,460.2z"/>
	</g>
	<g>
		<path class="st2" d="M270.1,400.2c-2.6,0-5.1-1-7.1-2.9l-60-60c-3.9-3.9-3.9-10.2,0-14.1c3.9-3.9,10.2-3.9,14.1,0l60,60
			c3.9,3.9,3.9,10.2,0,14.1C275.2,399.2,272.6,400.2,270.1,400.2z"/>
	</g>
	<g>
		<path class="st2" d="M210.1,400.2c-2.6,0-5.1-1-7.1-2.9c-3.9-3.9-3.9-10.2,0-14.1l60-60c3.9-3.9,10.2-3.9,14.1,0
			c3.9,3.9,3.9,10.2,0,14.1l-60,60C215.2,399.2,212.6,400.2,210.1,400.2z"/>
	</g>
	<g>
		<path class="st2" d="M270.1,580.2c-2.6,0-5.1-1-7.1-2.9l-60-60c-3.9-3.9-3.9-10.2,0-14.1c3.9-3.9,10.2-3.9,14.1,0l60,60
			c3.9,3.9,3.9,10.2,0,14.1C275.2,579.2,272.6,580.2,270.1,580.2z"/>
	</g>
	<g>
		<path class="st2" d="M210.1,580.2c-2.6,0-5.1-1-7.1-2.9c-3.9-3.9-3.9-10.2,0-14.1l60-60c3.9-3.9,10.2-3.9,14.1,0
			c3.9,3.9,3.9,10.2,0,14.1l-60,60C215.2,579.2,212.6,580.2,210.1,580.2z"/>
	</g>
	<g>
		<path class="st2" d="M270.1,520.2c-2.6,0-5.1-1-7.1-2.9l-60-60c-3.9-3.9-3.9-10.2,0-14.1c3.9-3.9,10.2-3.9,14.1,0l60,60
			c3.9,3.9,3.9,10.2,0,14.1C275.2,519.2,272.7,520.2,270.1,520.2z"/>
	</g>
	<g>
		<path class="st2" d="M210.1,520.2c-2.6,0-5.1-1-7.1-2.9c-3.9-3.9-3.9-10.2,0-14.1l60-60c3.9-3.9,10.2-3.9,14.1,0
			c3.9,3.9,3.9,10.2,0,14.1l-60,60C215.2,519.2,212.7,520.2,210.1,520.2z"/>
	</g>
	<g>
		<path class="st2" d="M390.1,580.2c-2.6,0-5.1-1-7.1-2.9l-60-60c-3.9-3.9-3.9-10.2,0-14.1c3.9-3.9,10.2-3.9,14.1,0l60,60
			c3.9,3.9,3.9,10.2,0,14.1C395.2,579.2,392.6,580.2,390.1,580.2z"/>
	</g>
	<g>
		<path class="st2" d="M330.1,580.2c-2.6,0-5.1-1-7.1-2.9c-3.9-3.9-3.9-10.2,0-14.1l60-60c3.9-3.9,10.2-3.9,14.1,0
			c3.9,3.9,3.9,10.2,0,14.1l-60,60C335.2,579.2,332.6,580.2,330.1,580.2z"/>
	</g>
	<g>
		<path class="st2" d="M390.1,520.2c-2.6,0-5.1-1-7.1-2.9l-60-60c-3.9-3.9-3.9-10.2,0-14.1c3.9-3.9,10.2-3.9,14.1,0l60,60
			c3.9,3.9,3.9,10.2,0,14.1C395.2,519.2,392.6,520.2,390.1,520.2z"/>
	</g>
	<g>
		<path class="st2" d="M330.1,520.2c-2.6,0-5.1-1-7.1-2.9c-3.9-3.9-3.9-10.2,0-14.1l60-60c3.9-3.9,10.2-3.9,14.1,0
			c3.9,3.9,3.9,10.2,0,14.1l-60,60C335.2,519.2,332.6,520.2,330.1,520.2z"/>
	</g>
	<g>
		<path class="st2" d="M450.1,340.2c-2.6,0-5.1-1-7.1-2.9l-60-60c-3.9-3.9-3.9-10.2,0-14.1c3.9-3.9,10.2-3.9,14.1,0l60,60
			c3.9,3.9,3.9,10.2,0,14.1C455.2,339.2,452.6,340.2,450.1,340.2z"/>
	</g>
	<g>
		<path class="st2" d="M390.1,340.2c-2.6,0-5.1-1-7.1-2.9c-3.9-3.9-3.9-10.2,0-14.1l60-60c3.9-3.9,10.2-3.9,14.1,0
			c3.9,3.9,3.9,10.2,0,14.1l-60,60C395.2,339.2,392.6,340.2,390.1,340.2z"/>
	</g>
	<g>
		<path class="st2" d="M450.1,460.2c-2.6,0-5.1-1-7.1-2.9l-60-60c-3.9-3.9-3.9-10.2,0-14.1c3.9-3.9,10.2-3.9,14.1,0l60,60
			c3.9,3.9,3.9,10.2,0,14.1C455.2,459.2,452.6,460.2,450.1,460.2z"/>
	</g>
	<g>
		<path class="st2" d="M390.1,460.2c-2.6,0-5.1-1-7.1-2.9c-3.9-3.9-3.9-10.2,0-14.1l60-60c3.9-3.9,10.2-3.9,14.1,0
			c3.9,3.9,3.9,10.2,0,14.1l-60,60C395.2,459.2,392.6,460.2,390.1,460.2z"/>
	</g>
	<g>
		<path class="st2" d="M450.1,400.2c-2.6,0-5.1-1-7.1-2.9l-60-60c-3.9-3.9-3.9-10.2,0-14.1c3.9-3.9,10.2-3.9,14.1,0l60,60
			c3.9,3.9,3.9,10.2,0,14.1C455.2,399.2,452.6,400.2,450.1,400.2z"/>
	</g>
	<g>
		<path class="st2" d="M390.1,400.2c-2.6,0-5.1-1-7.1-2.9c-3.9-3.9-3.9-10.2,0-14.1l60-60c3.9-3.9,10.2-3.9,14.1,0
			c3.9,3.9,3.9,10.2,0,14.1l-60,60C395.2,399.2,392.6,400.2,390.1,400.2z"/>
	</g>
	<g>
		<path class="st2" d="M450.1,580.2c-2.6,0-5.1-1-7.1-2.9l-60-60c-3.9-3.9-3.9-10.2,0-14.1c3.9-3.9,10.2-3.9,14.1,0l60,60
			c3.9,3.9,3.9,10.2,0,14.1C455.2,579.2,452.6,580.2,450.1,580.2z"/>
	</g>
	<g>
		<path class="st2" d="M390.1,580.2c-2.6,0-5.1-1-7.1-2.9c-3.9-3.9-3.9-10.2,0-14.1l60-60c3.9-3.9,10.2-3.9,14.1,0
			c3.9,3.9,3.9,10.2,0,14.1l-60,60C395.2,579.2,392.6,580.2,390.1,580.2z"/>
	</g>
	<g>
		<path class="st2" d="M450.1,520.2c-2.6,0-5.1-1-7.1-2.9l-60-60c-3.9-3.9-3.9-10.2,0-14.1c3.9-3.9,10.2-3.9,14.1,0l60,60
			c3.9,3.9,3.9,10.2,0,14.1C455.2,519.2,452.6,520.2,450.1,520.2z"/>
	</g>
	<g>
		<path class="st2" d="M390.1,520.2c-2.6,0-5.1-1-7.1-2.9c-3.9-3.9-3.9-10.2,0-14.1l60-60c3.9-3.9,10.2-3.9,14.1,0
			c3.9,3.9,3.9,10.2,0,14.1l-60,60C395.2,519.2,392.6,520.2,390.1,520.2z"/>
	</g>
	<g>
		<path class="st2" d="M599.8,340.2c-2.6,0-5.1-1-7.1-2.9l-60-60c-3.9-3.9-3.9-10.2,0-14.1c3.9-3.9,10.2-3.9,14.1,0l60,60
			c3.9,3.9,3.9,10.2,0,14.1C604.9,339.2,602.3,340.2,599.8,340.2z"/>
	</g>
	<g>
		<path class="st2" d="M539.8,340.2c-2.6,0-5.1-1-7.1-2.9c-3.9-3.9-3.9-10.2,0-14.1l60-60c3.9-3.9,10.2-3.9,14.1,0
			c3.9,3.9,3.9,10.2,0,14.1l-60,60C544.9,339.2,542.3,340.2,539.8,340.2z"/>
	</g>
	<g>
		<path class="st2" d="M599.8,580.2c-2.6,0-5.1-1-7.1-2.9l-60-60c-3.9-3.9-3.9-10.2,0-14.1c3.9-3.9,10.2-3.9,14.1,0l60,60
			c3.9,3.9,3.9,10.2,0,14.1C604.9,579.2,602.3,580.2,599.8,580.2z"/>
	</g>
	<g>
		<path class="st2" d="M539.8,580.2c-2.6,0-5.1-1-7.1-2.9c-3.9-3.9-3.9-10.2,0-14.1l60-60c3.9-3.9,10.2-3.9,14.1,0
			c3.9,3.9,3.9,10.2,0,14.1l-60,60C544.9,579.2,542.3,580.2,539.8,580.2z"/>
	</g>
	<g>
		<path class="st2" d="M659.8,340.2c-2.6,0-5.1-1-7.1-2.9l-60-60c-3.9-3.9-3.9-10.2,0-14.1c3.9-3.9,10.2-3.9,14.1,0l60,60
			c3.9,3.9,3.9,10.2,0,14.1C664.9,339.2,662.4,340.2,659.8,340.2z"/>
	</g>
	<g>
		<path class="st2" d="M599.8,340.2c-2.6,0-5.1-1-7.1-2.9c-3.9-3.9-3.9-10.2,0-14.1l60-60c3.9-3.9,10.2-3.9,14.1,0
			c3.9,3.9,3.9,10.2,0,14.1l-60,60C604.9,339.2,602.4,340.2,599.8,340.2z"/>
	</g>
	<g>
		<path class="st2" d="M659.8,460.2c-2.6,0-5.1-1-7.1-2.9l-60-60c-3.9-3.9-3.9-10.2,0-14.1c3.9-3.9,10.2-3.9,14.1,0l60,60
			c3.9,3.9,3.9,10.2,0,14.1C664.9,459.2,662.4,460.2,659.8,460.2z"/>
	</g>
	<g>
		<path class="st2" d="M599.8,460.2c-2.6,0-5.1-1-7.1-2.9c-3.9-3.9-3.9-10.2,0-14.1l60-60c3.9-3.9,10.2-3.9,14.1,0
			c3.9,3.9,3.9,10.2,0,14.1l-60,60C604.9,459.2,602.4,460.2,599.8,460.2z"/>
	</g>
	<g>
		<path class="st2" d="M659.8,400.2c-2.6,0-5.1-1-7.1-2.9l-60-60c-3.9-3.9-3.9-10.2,0-14.1c3.9-3.9,10.2-3.9,14.1,0l60,60
			c3.9,3.9,3.9,10.2,0,14.1C664.9,399.2,662.4,400.2,659.8,400.2z"/>
	</g>
	<g>
		<path class="st2" d="M599.8,400.2c-2.6,0-5.1-1-7.1-2.9c-3.9-3.9-3.9-10.2,0-14.1l60-60c3.9-3.9,10.2-3.9,14.1,0
			c3.9,3.9,3.9,10.2,0,14.1l-60,60C604.9,399.2,602.4,400.2,599.8,400.2z"/>
	</g>
	<g>
		<path class="st2" d="M659.8,580.2c-2.6,0-5.1-1-7.1-2.9l-60-60c-3.9-3.9-3.9-10.2,0-14.1c3.9-3.9,10.2-3.9,14.1,0l60,60
			c3.9,3.9,3.9,10.2,0,14.1C664.9,579.2,662.4,580.2,659.8,580.2z"/>
	</g>
	<g>
		<path class="st2" d="M599.8,580.2c-2.6,0-5.1-1-7.1-2.9c-3.9-3.9-3.9-10.2,0-14.1l60-60c3.9-3.9,10.2-3.9,14.1,0
			c3.9,3.9,3.9,10.2,0,14.1l-60,60C604.9,579.2,602.4,580.2,599.8,580.2z"/>
	</g>
	<g>
		<path class="st2" d="M659.8,520.2c-2.6,0-5.1-1-7.1-2.9l-60-60c-3.9-3.9-3.9-10.2,0-14.1c3.9-3.9,10.2-3.9,14.1,0l60,60
			c3.9,3.9,3.9,10.2,0,14.1C664.9,519.2,662.4,520.2,659.8,520.2z"/>
	</g>
	<g>
		<path class="st2" d="M599.8,520.2c-2.6,0-5.1-1-7.1-2.9c-3.9-3.9-3.9-10.2,0-14.1l60-60c3.9-3.9,10.2-3.9,14.1,0
			c3.9,3.9,3.9,10.2,0,14.1l-60,60C604.9,519.2,602.4,520.2,599.8,520.2z"/>
	</g>
	<g>
		<path class="st2" d="M2339,460.2c-2.6,0-5.1-1-7.1-2.9l-60-60c-3.9-3.9-3.9-10.2,0-14.1c3.9-3.9,10.2-3.9,14.1,0l60,60
			c3.9,3.9,3.9,10.2,0,14.1C2344.1,459.2,2341.5,460.2,2339,460.2z"/>
	</g>
	<g>
		<path class="st2" d="M2279,460.2c-2.6,0-5.1-1-7.1-2.9c-3.9-3.9-3.9-10.2,0-14.1l60-60c3.9-3.9,10.2-3.9,14.1,0
			c3.9,3.9,3.9,10.2,0,14.1l-60,60C2284.1,459.2,2281.5,460.2,2279,460.2z"/>
	</g>
	<g>
		<path class="st2" d="M2339,400.2c-2.6,0-5.1-1-7.1-2.9l-60-60c-3.9-3.9-3.9-10.2,0-14.1c3.9-3.9,10.2-3.9,14.1,0l60,60
			c3.9,3.9,3.9,10.2,0,14.1C2344.1,399.2,2341.5,400.2,2339,400.2z"/>
	</g>
	<g>
		<path class="st2" d="M2279,400.2c-2.6,0-5.1-1-7.1-2.9c-3.9-3.9-3.9-10.2,0-14.1l60-60c3.9-3.9,10.2-3.9,14.1,0
			c3.9,3.9,3.9,10.2,0,14.1l-60,60C2284.1,399.2,2281.5,400.2,2279,400.2z"/>
	</g>
	<g>
		<path class="st2" d="M2339,580.2c-2.6,0-5.1-1-7.1-2.9l-60-60c-3.9-3.9-3.9-10.2,0-14.1c3.9-3.9,10.2-3.9,14.1,0l60,60
			c3.9,3.9,3.9,10.2,0,14.1C2344.1,579.2,2341.5,580.2,2339,580.2z"/>
	</g>
	<g>
		<path class="st2" d="M2279,580.2c-2.6,0-5.1-1-7.1-2.9c-3.9-3.9-3.9-10.2,0-14.1l60-60c3.9-3.9,10.2-3.9,14.1,0
			c3.9,3.9,3.9,10.2,0,14.1l-60,60C2284.1,579.2,2281.5,580.2,2279,580.2z"/>
	</g>
	<g>
		<path class="st2" d="M2339,520.2c-2.6,0-5.1-1-7.1-2.9l-60-60c-3.9-3.9-3.9-10.2,0-14.1c3.9-3.9,10.2-3.9,14.1,0l60,60
			c3.9,3.9,3.9,10.2,0,14.1C2344.1,519.3,2341.6,520.2,2339,520.2z"/>
	</g>
	<g>
		<path class="st2" d="M2279,520.2c-2.6,0-5.1-1-7.1-2.9c-3.9-3.9-3.9-10.2,0-14.1l60-60c3.9-3.9,10.2-3.9,14.1,0
			c3.9,3.9,3.9,10.2,0,14.1l-60,60C2284.1,519.3,2281.6,520.2,2279,520.2z"/>
	</g>
	<g>
		<path class="st2" d="M2399,340.3c-2.6,0-5.1-1-7.1-2.9l-60-60c-3.9-3.9-3.9-10.2,0-14.1c3.9-3.9,10.2-3.9,14.1,0l60,60
			c3.9,3.9,3.9,10.2,0,14.1C2404.1,339.3,2401.5,340.3,2399,340.3z"/>
	</g>
	<g>
		<path class="st2" d="M2339,340.3c-2.6,0-5.1-1-7.1-2.9c-3.9-3.9-3.9-10.2,0-14.1l60-60c3.9-3.9,10.2-3.9,14.1,0
			c3.9,3.9,3.9,10.2,0,14.1l-60,60C2344.1,339.3,2341.5,340.3,2339,340.3z"/>
	</g>
	<g>
		<path class="st2" d="M2399,460.2c-2.6,0-5.1-1-7.1-2.9l-60-60c-3.9-3.9-3.9-10.2,0-14.1c3.9-3.9,10.2-3.9,14.1,0l60,60
			c3.9,3.9,3.9,10.2,0,14.1C2404.1,459.2,2401.5,460.2,2399,460.2z"/>
	</g>
	<g>
		<path class="st2" d="M2339,460.2c-2.6,0-5.1-1-7.1-2.9c-3.9-3.9-3.9-10.2,0-14.1l60-60c3.9-3.9,10.2-3.9,14.1,0
			c3.9,3.9,3.9,10.2,0,14.1l-60,60C2344.1,459.2,2341.5,460.2,2339,460.2z"/>
	</g>
	<g>
		<path class="st2" d="M2399,400.2c-2.6,0-5.1-1-7.1-2.9l-60-60c-3.9-3.9-3.9-10.2,0-14.1c3.9-3.9,10.2-3.9,14.1,0l60,60
			c3.9,3.9,3.9,10.2,0,14.1C2404.1,399.2,2401.5,400.2,2399,400.2z"/>
	</g>
	<g>
		<path class="st2" d="M2339,400.2c-2.6,0-5.1-1-7.1-2.9c-3.9-3.9-3.9-10.2,0-14.1l60-60c3.9-3.9,10.2-3.9,14.1,0
			c3.9,3.9,3.9,10.2,0,14.1l-60,60C2344.1,399.2,2341.5,400.2,2339,400.2z"/>
	</g>
	<g>
		<path class="st2" d="M2399,580.2c-2.6,0-5.1-1-7.1-2.9l-60-60c-3.9-3.9-3.9-10.2,0-14.1c3.9-3.9,10.2-3.9,14.1,0l60,60
			c3.9,3.9,3.9,10.2,0,14.1C2404.1,579.2,2401.5,580.2,2399,580.2z"/>
	</g>
	<g>
		<path class="st2" d="M2339,580.2c-2.6,0-5.1-1-7.1-2.9c-3.9-3.9-3.9-10.2,0-14.1l60-60c3.9-3.9,10.2-3.9,14.1,0
			c3.9,3.9,3.9,10.2,0,14.1l-60,60C2344.1,579.2,2341.5,580.2,2339,580.2z"/>
	</g>
	<g>
		<path class="st2" d="M2399,520.2c-2.6,0-5.1-1-7.1-2.9l-60-60c-3.9-3.9-3.9-10.2,0-14.1c3.9-3.9,10.2-3.9,14.1,0l60,60
			c3.9,3.9,3.9,10.2,0,14.1C2404.1,519.3,2401.5,520.2,2399,520.2z"/>
	</g>
	<g>
		<path class="st2" d="M2339,520.2c-2.6,0-5.1-1-7.1-2.9c-3.9-3.9-3.9-10.2,0-14.1l60-60c3.9-3.9,10.2-3.9,14.1,0
			c3.9,3.9,3.9,10.2,0,14.1l-60,60C2344.1,519.3,2341.5,520.2,2339,520.2z"/>
	</g>
	<g>
		<path class="st2" d="M2459,340.3c-2.6,0-5.1-1-7.1-2.9l-60-60c-3.9-3.9-3.9-10.2,0-14.1c3.9-3.9,10.2-3.9,14.1,0l60,60
			c3.9,3.9,3.9,10.2,0,14.1C2464.1,339.3,2461.5,340.3,2459,340.3z"/>
	</g>
	<g>
		<path class="st2" d="M2399,340.3c-2.6,0-5.1-1-7.1-2.9c-3.9-3.9-3.9-10.2,0-14.1l60-60c3.9-3.9,10.2-3.9,14.1,0
			c3.9,3.9,3.9,10.2,0,14.1l-60,60C2404.1,339.3,2401.5,340.3,2399,340.3z"/>
	</g>
	<g>
		<path class="st2" d="M2518.9,340.3c-2.6,0-5.1-1-7.1-2.9l-60-60c-3.9-3.9-3.9-10.2,0-14.1c3.9-3.9,10.2-3.9,14.1,0l60,60
			c3.9,3.9,3.9,10.2,0,14.1C2524.1,339.3,2521.5,340.3,2518.9,340.3z"/>
	</g>
	<g>
		<path class="st2" d="M2458.9,340.3c-2.6,0-5.1-1-7.1-2.9c-3.9-3.9-3.9-10.2,0-14.1l60-60c3.9-3.9,10.2-3.9,14.1,0
			c3.9,3.9,3.9,10.2,0,14.1l-60,60C2464.1,339.3,2461.5,340.3,2458.9,340.3z"/>
	</g>
	<g>
		<path class="st2" d="M2518.9,280.2c-2.6,0-5.1-1-7.1-2.9l-60-60c-3.9-3.9-3.9-10.2,0-14.1c3.9-3.9,10.2-3.9,14.1,0l60,60
			c3.9,3.9,3.9,10.2,0,14.1C2524.1,279.3,2521.5,280.2,2518.9,280.2z"/>
	</g>
	<g>
		<path class="st2" d="M2458.9,280.2c-2.6,0-5.1-1-7.1-2.9c-3.9-3.9-3.9-10.2,0-14.1l60-60c3.9-3.9,10.2-3.9,14.1,0
			c3.9,3.9,3.9,10.2,0,14.1l-60,60C2464.1,279.3,2461.5,280.2,2458.9,280.2z"/>
	</g>
	<g>
		<path class="st2" d="M2518.9,580.2c-2.6,0-5.1-1-7.1-2.9l-60-60c-3.9-3.9-3.9-10.2,0-14.1c3.9-3.9,10.2-3.9,14.1,0l60,60
			c3.9,3.9,3.9,10.2,0,14.1C2524.1,579.2,2521.5,580.2,2518.9,580.2z"/>
	</g>
	<g>
		<path class="st2" d="M2458.9,580.2c-2.6,0-5.1-1-7.1-2.9c-3.9-3.9-3.9-10.2,0-14.1l60-60c3.9-3.9,10.2-3.9,14.1,0
			c3.9,3.9,3.9,10.2,0,14.1l-60,60C2464.1,579.2,2461.5,580.2,2458.9,580.2z"/>
	</g>
	<g>
		<path class="st2" d="M2579,280.2c-2.6,0-5.1-1-7.1-2.9l-60-60c-3.9-3.9-3.9-10.2,0-14.1c3.9-3.9,10.2-3.9,14.1,0l60,60
			c3.9,3.9,3.9,10.2,0,14.1C2584.1,279.3,2581.5,280.2,2579,280.2z"/>
	</g>
	<g>
		<path class="st2" d="M2519,280.2c-2.6,0-5.1-1-7.1-2.9c-3.9-3.9-3.9-10.2,0-14.1l60-60c3.9-3.9,10.2-3.9,14.1,0
			c3.9,3.9,3.9,10.2,0,14.1l-60,60C2524.1,279.3,2521.5,280.2,2519,280.2z"/>
	</g>
	<g>
		<path class="st2" d="M2579,460.2c-2.6,0-5.1-1-7.1-2.9l-60-60c-3.9-3.9-3.9-10.2,0-14.1c3.9-3.9,10.2-3.9,14.1,0l60,60
			c3.9,3.9,3.9,10.2,0,14.1C2584.1,459.2,2581.5,460.2,2579,460.2z"/>
	</g>
	<g>
		<path class="st2" d="M2519,460.2c-2.6,0-5.1-1-7.1-2.9c-3.9-3.9-3.9-10.2,0-14.1l60-60c3.9-3.9,10.2-3.9,14.1,0
			c3.9,3.9,3.9,10.2,0,14.1l-60,60C2524.1,459.2,2521.5,460.2,2519,460.2z"/>
	</g>
	<g>
		<path class="st2" d="M2579,400.2c-2.6,0-5.1-1-7.1-2.9l-60-60c-3.9-3.9-3.9-10.2,0-14.1c3.9-3.9,10.2-3.9,14.1,0l60,60
			c3.9,3.9,3.9,10.2,0,14.1C2584.1,399.2,2581.5,400.2,2579,400.2z"/>
	</g>
	<g>
		<path class="st2" d="M2519,400.2c-2.6,0-5.1-1-7.1-2.9c-3.9-3.9-3.9-10.2,0-14.1l60-60c3.9-3.9,10.2-3.9,14.1,0
			c3.9,3.9,3.9,10.2,0,14.1l-60,60C2524.1,399.2,2521.5,400.2,2519,400.2z"/>
	</g>
	<g>
		<path class="st2" d="M2579,580.2c-2.6,0-5.1-1-7.1-2.9l-60-60c-3.9-3.9-3.9-10.2,0-14.1c3.9-3.9,10.2-3.9,14.1,0l60,60
			c3.9,3.9,3.9,10.2,0,14.1C2584.1,579.2,2581.5,580.2,2579,580.2z"/>
	</g>
	<g>
		<path class="st2" d="M2519,580.2c-2.6,0-5.1-1-7.1-2.9c-3.9-3.9-3.9-10.2,0-14.1l60-60c3.9-3.9,10.2-3.9,14.1,0
			c3.9,3.9,3.9,10.2,0,14.1l-60,60C2524.1,579.2,2521.5,580.2,2519,580.2z"/>
	</g>
	<g>
		<path class="st2" d="M2579,520.2c-2.6,0-5.1-1-7.1-2.9l-60-60c-3.9-3.9-3.9-10.2,0-14.1c3.9-3.9,10.2-3.9,14.1,0l60,60
			c3.9,3.9,3.9,10.2,0,14.1C2584.1,519.3,2581.5,520.2,2579,520.2z"/>
	</g>
	<g>
		<path class="st2" d="M2519,520.2c-2.6,0-5.1-1-7.1-2.9c-3.9-3.9-3.9-10.2,0-14.1l60-60c3.9-3.9,10.2-3.9,14.1,0
			c3.9,3.9,3.9,10.2,0,14.1l-60,60C2524.1,519.3,2521.5,520.2,2519,520.2z"/>
	</g>
	<g>
		<path class="st2" d="M270.1,640.1c-2.6,0-5.1-1-7.1-2.9l-60-60c-3.9-3.9-3.9-10.2,0-14.1c3.9-3.9,10.2-3.9,14.1,0l60,60
			c3.9,3.9,3.9,10.2,0,14.1C275.2,639.2,272.6,640.1,270.1,640.1z"/>
	</g>
	<g>
		<path class="st2" d="M210.1,640.1c-2.6,0-5.1-1-7.1-2.9c-3.9-3.9-3.9-10.2,0-14.1l60-60c3.9-3.9,10.2-3.9,14.1,0
			c3.9,3.9,3.9,10.2,0,14.1l-60,60C215.2,639.2,212.6,640.1,210.1,640.1z"/>
	</g>
	<g>
		<path class="st2" d="M330.1,700.1c-2.6,0-5.1-1-7.1-2.9l-60-60c-3.9-3.9-3.9-10.2,0-14.1c3.9-3.9,10.2-3.9,14.1,0l60,60
			c3.9,3.9,3.9,10.2,0,14.1C335.2,699.2,332.6,700.1,330.1,700.1z"/>
	</g>
	<g>
		<path class="st2" d="M270.1,700.1c-2.6,0-5.1-1-7.1-2.9c-3.9-3.9-3.9-10.2,0-14.1l60-60c3.9-3.9,10.2-3.9,14.1,0
			c3.9,3.9,3.9,10.2,0,14.1l-60,60C275.2,699.2,272.6,700.1,270.1,700.1z"/>
	</g>
	<g>
		<path class="st2" d="M330.1,640.1c-2.6,0-5.1-1-7.1-2.9l-60-60c-3.9-3.9-3.9-10.2,0-14.1c3.9-3.9,10.2-3.9,14.1,0l60,60
			c3.9,3.9,3.9,10.2,0,14.1C335.2,639.2,332.6,640.1,330.1,640.1z"/>
	</g>
	<g>
		<path class="st2" d="M270.1,640.1c-2.6,0-5.1-1-7.1-2.9c-3.9-3.9-3.9-10.2,0-14.1l60-60c3.9-3.9,10.2-3.9,14.1,0
			c3.9,3.9,3.9,10.2,0,14.1l-60,60C275.2,639.2,272.6,640.1,270.1,640.1z"/>
	</g>
	<g>
		<path class="st2" d="M390.1,640.1c-2.6,0-5.1-1-7.1-2.9l-60-60c-3.9-3.9-3.9-10.2,0-14.1c3.9-3.9,10.2-3.9,14.1,0l60,60
			c3.9,3.9,3.9,10.2,0,14.1C395.2,639.2,392.6,640.1,390.1,640.1z"/>
	</g>
	<g>
		<path class="st2" d="M330.1,640.1c-2.6,0-5.1-1-7.1-2.9c-3.9-3.9-3.9-10.2,0-14.1l60-60c3.9-3.9,10.2-3.9,14.1,0
			c3.9,3.9,3.9,10.2,0,14.1l-60,60C335.2,639.2,332.6,640.1,330.1,640.1z"/>
	</g>
	<g>
		<path class="st2" d="M809.6,340.2c-2.6,0-5.1-1-7.1-2.9l-60-60c-3.9-3.9-3.9-10.2,0-14.1c3.9-3.9,10.2-3.9,14.1,0l60,60
			c3.9,3.9,3.9,10.2,0,14.1C814.7,339.2,812.1,340.2,809.6,340.2z"/>
	</g>
	<g>
		<path class="st2" d="M749.6,340.2c-2.6,0-5.1-1-7.1-2.9c-3.9-3.9-3.9-10.2,0-14.1l60-60c3.9-3.9,10.2-3.9,14.1,0
			c3.9,3.9,3.9,10.2,0,14.1l-60,60C754.7,339.2,752.1,340.2,749.6,340.2z"/>
	</g>
	<g>
		<path class="st2" d="M809.6,460.2c-2.6,0-5.1-1-7.1-2.9l-60-60c-3.9-3.9-3.9-10.2,0-14.1c3.9-3.9,10.2-3.9,14.1,0l60,60
			c3.9,3.9,3.9,10.2,0,14.1C814.7,459.2,812.1,460.2,809.6,460.2z"/>
	</g>
	<g>
		<path class="st2" d="M749.6,460.2c-2.6,0-5.1-1-7.1-2.9c-3.9-3.9-3.9-10.2,0-14.1l60-60c3.9-3.9,10.2-3.9,14.1,0
			c3.9,3.9,3.9,10.2,0,14.1l-60,60C754.7,459.2,752.1,460.2,749.6,460.2z"/>
	</g>
	<g>
		<path class="st2" d="M809.6,400.2c-2.6,0-5.1-1-7.1-2.9l-60-60c-3.9-3.9-3.9-10.2,0-14.1c3.9-3.9,10.2-3.9,14.1,0l60,60
			c3.9,3.9,3.9,10.2,0,14.1C814.7,399.2,812.1,400.2,809.6,400.2z"/>
	</g>
	<g>
		<path class="st2" d="M749.6,400.2c-2.6,0-5.1-1-7.1-2.9c-3.9-3.9-3.9-10.2,0-14.1l60-60c3.9-3.9,10.2-3.9,14.1,0
			c3.9,3.9,3.9,10.2,0,14.1l-60,60C754.7,399.2,752.1,400.2,749.6,400.2z"/>
	</g>
	<g>
		<path class="st2" d="M809.6,580.2c-2.6,0-5.1-1-7.1-2.9l-60-60c-3.9-3.9-3.9-10.2,0-14.1c3.9-3.9,10.2-3.9,14.1,0l60,60
			c3.9,3.9,3.9,10.2,0,14.1C814.7,579.2,812.1,580.2,809.6,580.2z"/>
	</g>
	<g>
		<path class="st2" d="M749.6,580.2c-2.6,0-5.1-1-7.1-2.9c-3.9-3.9-3.9-10.2,0-14.1l60-60c3.9-3.9,10.2-3.9,14.1,0
			c3.9,3.9,3.9,10.2,0,14.1l-60,60C754.7,579.2,752.1,580.2,749.6,580.2z"/>
	</g>
	<g>
		<path class="st2" d="M809.6,520.2c-2.6,0-5.1-1-7.1-2.9l-60-60c-3.9-3.9-3.9-10.2,0-14.1c3.9-3.9,10.2-3.9,14.1,0l60,60
			c3.9,3.9,3.9,10.2,0,14.1C814.7,519.2,812.1,520.2,809.6,520.2z"/>
	</g>
	<g>
		<path class="st2" d="M749.6,520.2c-2.6,0-5.1-1-7.1-2.9c-3.9-3.9-3.9-10.2,0-14.1l60-60c3.9-3.9,10.2-3.9,14.1,0
			c3.9,3.9,3.9,10.2,0,14.1l-60,60C754.7,519.2,752.1,520.2,749.6,520.2z"/>
	</g>
	<g>
		<path class="st2" d="M869.6,340.2c-2.6,0-5.1-1-7.1-2.9l-60-60c-3.9-3.9-3.9-10.2,0-14.1c3.9-3.9,10.2-3.9,14.1,0l60,60
			c3.9,3.9,3.9,10.2,0,14.1C874.7,339.2,872.1,340.2,869.6,340.2z"/>
	</g>
	<g>
		<path class="st2" d="M809.6,340.2c-2.6,0-5.1-1-7.1-2.9c-3.9-3.9-3.9-10.2,0-14.1l60-60c3.9-3.9,10.2-3.9,14.1,0
			c3.9,3.9,3.9,10.2,0,14.1l-60,60C814.7,339.2,812.1,340.2,809.6,340.2z"/>
	</g>
	<g>
		<path class="st2" d="M869.6,460.2c-2.6,0-5.1-1-7.1-2.9l-60-60c-3.9-3.9-3.9-10.2,0-14.1c3.9-3.9,10.2-3.9,14.1,0l60,60
			c3.9,3.9,3.9,10.2,0,14.1C874.7,459.2,872.1,460.2,869.6,460.2z"/>
	</g>
	<g>
		<path class="st2" d="M809.6,460.2c-2.6,0-5.1-1-7.1-2.9c-3.9-3.9-3.9-10.2,0-14.1l60-60c3.9-3.9,10.2-3.9,14.1,0
			c3.9,3.9,3.9,10.2,0,14.1l-60,60C814.7,459.2,812.1,460.2,809.6,460.2z"/>
	</g>
	<g>
		<path class="st2" d="M869.6,400.2c-2.6,0-5.1-1-7.1-2.9l-60-60c-3.9-3.9-3.9-10.2,0-14.1c3.9-3.9,10.2-3.9,14.1,0l60,60
			c3.9,3.9,3.9,10.2,0,14.1C874.7,399.2,872.1,400.2,869.6,400.2z"/>
	</g>
	<g>
		<path class="st2" d="M809.6,400.2c-2.6,0-5.1-1-7.1-2.9c-3.9-3.9-3.9-10.2,0-14.1l60-60c3.9-3.9,10.2-3.9,14.1,0
			c3.9,3.9,3.9,10.2,0,14.1l-60,60C814.7,399.2,812.1,400.2,809.6,400.2z"/>
	</g>
	<g>
		<path class="st2" d="M869.6,580.2c-2.6,0-5.1-1-7.1-2.9l-60-60c-3.9-3.9-3.9-10.2,0-14.1c3.9-3.9,10.2-3.9,14.1,0l60,60
			c3.9,3.9,3.9,10.2,0,14.1C874.7,579.2,872.1,580.2,869.6,580.2z"/>
	</g>
	<g>
		<path class="st2" d="M809.6,580.2c-2.6,0-5.1-1-7.1-2.9c-3.9-3.9-3.9-10.2,0-14.1l60-60c3.9-3.9,10.2-3.9,14.1,0
			c3.9,3.9,3.9,10.2,0,14.1l-60,60C814.7,579.2,812.1,580.2,809.6,580.2z"/>
	</g>
	<g>
		<path class="st2" d="M869.6,520.2c-2.6,0-5.1-1-7.1-2.9l-60-60c-3.9-3.9-3.9-10.2,0-14.1c3.9-3.9,10.2-3.9,14.1,0l60,60
			c3.9,3.9,3.9,10.2,0,14.1C874.7,519.2,872.1,520.2,869.6,520.2z"/>
	</g>
	<g>
		<path class="st2" d="M809.6,520.2c-2.6,0-5.1-1-7.1-2.9c-3.9-3.9-3.9-10.2,0-14.1l60-60c3.9-3.9,10.2-3.9,14.1,0
			c3.9,3.9,3.9,10.2,0,14.1l-60,60C814.7,519.2,812.1,520.2,809.6,520.2z"/>
	</g>
	<g>
		<path class="st2" d="M989.6,580.2c-2.6,0-5.1-1-7.1-2.9l-60-60c-3.9-3.9-3.9-10.2,0-14.1c3.9-3.9,10.2-3.9,14.1,0l60,60
			c3.9,3.9,3.9,10.2,0,14.1C994.7,579.2,992.1,580.2,989.6,580.2z"/>
	</g>
	<g>
		<path class="st2" d="M929.6,580.2c-2.6,0-5.1-1-7.1-2.9c-3.9-3.9-3.9-10.2,0-14.1l60-60c3.9-3.9,10.2-3.9,14.1,0
			c3.9,3.9,3.9,10.2,0,14.1l-60,60C934.7,579.2,932.1,580.2,929.6,580.2z"/>
	</g>
	<g>
		<path class="st2" d="M989.6,520.2c-2.6,0-5.1-1-7.1-2.9l-60-60c-3.9-3.9-3.9-10.2,0-14.1c3.9-3.9,10.2-3.9,14.1,0l60,60
			c3.9,3.9,3.9,10.2,0,14.1C994.7,519.2,992.1,520.2,989.6,520.2z"/>
	</g>
	<g>
		<path class="st2" d="M929.6,520.2c-2.6,0-5.1-1-7.1-2.9c-3.9-3.9-3.9-10.2,0-14.1l60-60c3.9-3.9,10.2-3.9,14.1,0
			c3.9,3.9,3.9,10.2,0,14.1l-60,60C934.7,519.2,932.1,520.2,929.6,520.2z"/>
	</g>
	<g>
		<path class="st2" d="M1049.5,340.2c-2.6,0-5.1-1-7.1-2.9l-60-60c-3.9-3.9-3.9-10.2,0-14.1c3.9-3.9,10.2-3.9,14.1,0l60,60
			c3.9,3.9,3.9,10.2,0,14.1C1054.7,339.2,1052.1,340.2,1049.5,340.2z"/>
	</g>
	<g>
		<path class="st2" d="M989.5,340.2c-2.6,0-5.1-1-7.1-2.9c-3.9-3.9-3.9-10.2,0-14.1l60-60c3.9-3.9,10.2-3.9,14.1,0
			c3.9,3.9,3.9,10.2,0,14.1l-60,60C994.7,339.2,992.1,340.2,989.5,340.2z"/>
	</g>
	<g>
		<path class="st2" d="M1049.5,460.2c-2.6,0-5.1-1-7.1-2.9l-60-60c-3.9-3.9-3.9-10.2,0-14.1c3.9-3.9,10.2-3.9,14.1,0l60,60
			c3.9,3.9,3.9,10.2,0,14.1C1054.7,459.2,1052.1,460.2,1049.5,460.2z"/>
	</g>
	<g>
		<path class="st2" d="M989.5,460.2c-2.6,0-5.1-1-7.1-2.9c-3.9-3.9-3.9-10.2,0-14.1l60-60c3.9-3.9,10.2-3.9,14.1,0
			c3.9,3.9,3.9,10.2,0,14.1l-60,60C994.7,459.2,992.1,460.2,989.5,460.2z"/>
	</g>
	<g>
		<path class="st2" d="M1049.5,400.2c-2.6,0-5.1-1-7.1-2.9l-60-60c-3.9-3.9-3.9-10.2,0-14.1c3.9-3.9,10.2-3.9,14.1,0l60,60
			c3.9,3.9,3.9,10.2,0,14.1C1054.7,399.2,1052.1,400.2,1049.5,400.2z"/>
	</g>
	<g>
		<path class="st2" d="M989.5,400.2c-2.6,0-5.1-1-7.1-2.9c-3.9-3.9-3.9-10.2,0-14.1l60-60c3.9-3.9,10.2-3.9,14.1,0
			c3.9,3.9,3.9,10.2,0,14.1l-60,60C994.7,399.2,992.1,400.2,989.5,400.2z"/>
	</g>
	<g>
		<path class="st2" d="M1049.5,580.2c-2.6,0-5.1-1-7.1-2.9l-60-60c-3.9-3.9-3.9-10.2,0-14.1c3.9-3.9,10.2-3.9,14.1,0l60,60
			c3.9,3.9,3.9,10.2,0,14.1C1054.7,579.2,1052.1,580.2,1049.5,580.2z"/>
	</g>
	<g>
		<path class="st2" d="M989.5,580.2c-2.6,0-5.1-1-7.1-2.9c-3.9-3.9-3.9-10.2,0-14.1l60-60c3.9-3.9,10.2-3.9,14.1,0
			c3.9,3.9,3.9,10.2,0,14.1l-60,60C994.7,579.2,992.1,580.2,989.5,580.2z"/>
	</g>
	<g>
		<path class="st2" d="M1049.6,520.2c-2.6,0-5.1-1-7.1-2.9l-60-60c-3.9-3.9-3.9-10.2,0-14.1c3.9-3.9,10.2-3.9,14.1,0l60,60
			c3.9,3.9,3.9,10.2,0,14.1C1054.7,519.2,1052.1,520.2,1049.6,520.2z"/>
	</g>
	<g>
		<path class="st2" d="M989.6,520.2c-2.6,0-5.1-1-7.1-2.9c-3.9-3.9-3.9-10.2,0-14.1l60-60c3.9-3.9,10.2-3.9,14.1,0
			c3.9,3.9,3.9,10.2,0,14.1l-60,60C994.7,519.2,992.1,520.2,989.6,520.2z"/>
	</g>
	<g>
		<path class="st2" d="M869.6,640.1c-2.6,0-5.1-1-7.1-2.9l-60-60c-3.9-3.9-3.9-10.2,0-14.1c3.9-3.9,10.2-3.9,14.1,0l60,60
			c3.9,3.9,3.9,10.2,0,14.1C874.7,639.2,872.1,640.1,869.6,640.1z"/>
	</g>
	<g>
		<path class="st2" d="M809.6,640.1c-2.6,0-5.1-1-7.1-2.9c-3.9-3.9-3.9-10.2,0-14.1l60-60c3.9-3.9,10.2-3.9,14.1,0
			c3.9,3.9,3.9,10.2,0,14.1l-60,60C814.7,639.2,812.1,640.1,809.6,640.1z"/>
	</g>
	<g>
		<path class="st2" d="M929.5,700.1c-2.6,0-5.1-1-7.1-2.9l-60-60c-3.9-3.9-3.9-10.2,0-14.1c3.9-3.9,10.2-3.9,14.1,0l60,60
			c3.9,3.9,3.9,10.2,0,14.1C934.7,699.2,932.1,700.1,929.5,700.1z"/>
	</g>
	<g>
		<path class="st2" d="M869.5,700.1c-2.6,0-5.1-1-7.1-2.9c-3.9-3.9-3.9-10.2,0-14.1l60-60c3.9-3.9,10.2-3.9,14.1,0
			c3.9,3.9,3.9,10.2,0,14.1l-60,60C874.7,699.2,872.1,700.1,869.5,700.1z"/>
	</g>
	<g>
		<path class="st2" d="M929.5,640.1c-2.6,0-5.1-1-7.1-2.9l-60-60c-3.9-3.9-3.9-10.2,0-14.1c3.9-3.9,10.2-3.9,14.1,0l60,60
			c3.9,3.9,3.9,10.2,0,14.1C934.7,639.2,932.1,640.1,929.5,640.1z"/>
	</g>
	<g>
		<path class="st2" d="M869.5,640.1c-2.6,0-5.1-1-7.1-2.9c-3.9-3.9-3.9-10.2,0-14.1l60-60c3.9-3.9,10.2-3.9,14.1,0
			c3.9,3.9,3.9,10.2,0,14.1l-60,60C874.7,639.2,872.1,640.1,869.5,640.1z"/>
	</g>
	<g>
		<path class="st2" d="M989.6,640.1c-2.6,0-5.1-1-7.1-2.9l-60-60c-3.9-3.9-3.9-10.2,0-14.1c3.9-3.9,10.2-3.9,14.1,0l60,60
			c3.9,3.9,3.9,10.2,0,14.1C994.7,639.2,992.1,640.1,989.6,640.1z"/>
	</g>
	<g>
		<path class="st2" d="M929.6,640.1c-2.6,0-5.1-1-7.1-2.9c-3.9-3.9-3.9-10.2,0-14.1l60-60c3.9-3.9,10.2-3.9,14.1,0
			c3.9,3.9,3.9,10.2,0,14.1l-60,60C934.7,639.2,932.1,640.1,929.6,640.1z"/>
	</g>
	<g>
		<path class="st2" d="M1949.2,340.2c-2.6,0-5.1-1-7.1-2.9l-60-60c-3.9-3.9-3.9-10.2,0-14.1c3.9-3.9,10.2-3.9,14.1,0l60,60
			c3.9,3.9,3.9,10.2,0,14.1C1954.3,339.2,1951.7,340.2,1949.2,340.2z"/>
	</g>
	<g>
		<path class="st2" d="M1889.2,340.2c-2.6,0-5.1-1-7.1-2.9c-3.9-3.9-3.9-10.2,0-14.1l60-60c3.9-3.9,10.2-3.9,14.1,0
			c3.9,3.9,3.9,10.2,0,14.1l-60,60C1894.3,339.2,1891.7,340.2,1889.2,340.2z"/>
	</g>
	<g>
		<path class="st2" d="M1949.2,460.2c-2.6,0-5.1-1-7.1-2.9l-60-60c-3.9-3.9-3.9-10.2,0-14.1c3.9-3.9,10.2-3.9,14.1,0l60,60
			c3.9,3.9,3.9,10.2,0,14.1C1954.3,459.2,1951.7,460.2,1949.2,460.2z"/>
	</g>
	<g>
		<path class="st2" d="M1889.2,460.2c-2.6,0-5.1-1-7.1-2.9c-3.9-3.9-3.9-10.2,0-14.1l60-60c3.9-3.9,10.2-3.9,14.1,0
			c3.9,3.9,3.9,10.2,0,14.1l-60,60C1894.3,459.2,1891.7,460.2,1889.2,460.2z"/>
	</g>
	<g>
		<path class="st2" d="M1949.2,400.2c-2.6,0-5.1-1-7.1-2.9l-60-60c-3.9-3.9-3.9-10.2,0-14.1c3.9-3.9,10.2-3.9,14.1,0l60,60
			c3.9,3.9,3.9,10.2,0,14.1C1954.3,399.2,1951.7,400.2,1949.2,400.2z"/>
	</g>
	<g>
		<path class="st2" d="M1889.2,400.2c-2.6,0-5.1-1-7.1-2.9c-3.9-3.9-3.9-10.2,0-14.1l60-60c3.9-3.9,10.2-3.9,14.1,0
			c3.9,3.9,3.9,10.2,0,14.1l-60,60C1894.3,399.2,1891.7,400.2,1889.2,400.2z"/>
	</g>
	<g>
		<path class="st2" d="M1949.2,580.2c-2.6,0-5.1-1-7.1-2.9l-60-60c-3.9-3.9-3.9-10.2,0-14.1c3.9-3.9,10.2-3.9,14.1,0l60,60
			c3.9,3.9,3.9,10.2,0,14.1C1954.3,579.2,1951.7,580.2,1949.2,580.2z"/>
	</g>
	<g>
		<path class="st2" d="M1889.2,580.2c-2.6,0-5.1-1-7.1-2.9c-3.9-3.9-3.9-10.2,0-14.1l60-60c3.9-3.9,10.2-3.9,14.1,0
			c3.9,3.9,3.9,10.2,0,14.1l-60,60C1894.3,579.2,1891.7,580.2,1889.2,580.2z"/>
	</g>
	<g>
		<path class="st2" d="M1949.2,520.2c-2.6,0-5.1-1-7.1-2.9l-60-60c-3.9-3.9-3.9-10.2,0-14.1c3.9-3.9,10.2-3.9,14.1,0l60,60
			c3.9,3.9,3.9,10.2,0,14.1C1954.3,519.2,1951.7,520.2,1949.2,520.2z"/>
	</g>
	<g>
		<path class="st2" d="M1889.2,520.2c-2.6,0-5.1-1-7.1-2.9c-3.9-3.9-3.9-10.2,0-14.1l60-60c3.9-3.9,10.2-3.9,14.1,0
			c3.9,3.9,3.9,10.2,0,14.1l-60,60C1894.3,519.2,1891.7,520.2,1889.2,520.2z"/>
	</g>
	<g>
		<path class="st2" d="M2009.2,340.2c-2.6,0-5.1-1-7.1-2.9l-60-60c-3.9-3.9-3.9-10.2,0-14.1c3.9-3.9,10.2-3.9,14.1,0l60,60
			c3.9,3.9,3.9,10.2,0,14.1C2014.3,339.2,2011.7,340.2,2009.2,340.2z"/>
	</g>
	<g>
		<path class="st2" d="M1949.2,340.2c-2.6,0-5.1-1-7.1-2.9c-3.9-3.9-3.9-10.2,0-14.1l60-60c3.9-3.9,10.2-3.9,14.1,0
			c3.9,3.9,3.9,10.2,0,14.1l-60,60C1954.3,339.2,1951.7,340.2,1949.2,340.2z"/>
	</g>
	<g>
		<path class="st2" d="M2009.2,460.2c-2.6,0-5.1-1-7.1-2.9l-60-60c-3.9-3.9-3.9-10.2,0-14.1c3.9-3.9,10.2-3.9,14.1,0l60,60
			c3.9,3.9,3.9,10.2,0,14.1C2014.3,459.2,2011.7,460.2,2009.2,460.2z"/>
	</g>
	<g>
		<path class="st2" d="M1949.2,460.2c-2.6,0-5.1-1-7.1-2.9c-3.9-3.9-3.9-10.2,0-14.1l60-60c3.9-3.9,10.2-3.9,14.1,0
			c3.9,3.9,3.9,10.2,0,14.1l-60,60C1954.3,459.2,1951.7,460.2,1949.2,460.2z"/>
	</g>
	<g>
		<path class="st2" d="M2009.2,400.2c-2.6,0-5.1-1-7.1-2.9l-60-60c-3.9-3.9-3.9-10.2,0-14.1c3.9-3.9,10.2-3.9,14.1,0l60,60
			c3.9,3.9,3.9,10.2,0,14.1C2014.3,399.2,2011.7,400.2,2009.2,400.2z"/>
	</g>
	<g>
		<path class="st2" d="M1949.2,400.2c-2.6,0-5.1-1-7.1-2.9c-3.9-3.9-3.9-10.2,0-14.1l60-60c3.9-3.9,10.2-3.9,14.1,0
			c3.9,3.9,3.9,10.2,0,14.1l-60,60C1954.3,399.2,1951.7,400.2,1949.2,400.2z"/>
	</g>
	<g>
		<path class="st2" d="M2009.2,580.2c-2.6,0-5.1-1-7.1-2.9l-60-60c-3.9-3.9-3.9-10.2,0-14.1c3.9-3.9,10.2-3.9,14.1,0l60,60
			c3.9,3.9,3.9,10.2,0,14.1C2014.3,579.2,2011.7,580.2,2009.2,580.2z"/>
	</g>
	<g>
		<path class="st2" d="M1949.2,580.2c-2.6,0-5.1-1-7.1-2.9c-3.9-3.9-3.9-10.2,0-14.1l60-60c3.9-3.9,10.2-3.9,14.1,0
			c3.9,3.9,3.9,10.2,0,14.1l-60,60C1954.3,579.2,1951.7,580.2,1949.2,580.2z"/>
	</g>
	<g>
		<path class="st2" d="M2009.2,520.2c-2.6,0-5.1-1-7.1-2.9l-60-60c-3.9-3.9-3.9-10.2,0-14.1c3.9-3.9,10.2-3.9,14.1,0l60,60
			c3.9,3.9,3.9,10.2,0,14.1C2014.3,519.2,2011.7,520.2,2009.2,520.2z"/>
	</g>
	<g>
		<path class="st2" d="M1949.2,520.2c-2.6,0-5.1-1-7.1-2.9c-3.9-3.9-3.9-10.2,0-14.1l60-60c3.9-3.9,10.2-3.9,14.1,0
			c3.9,3.9,3.9,10.2,0,14.1l-60,60C1954.3,519.2,1951.7,520.2,1949.2,520.2z"/>
	</g>
	<g>
		<path class="st2" d="M2129.1,580.2c-2.6,0-5.1-1-7.1-2.9l-60-60c-3.9-3.9-3.9-10.2,0-14.1c3.9-3.9,10.2-3.9,14.1,0l60,60
			c3.9,3.9,3.9,10.2,0,14.1C2134.3,579.2,2131.7,580.2,2129.1,580.2z"/>
	</g>
	<g>
		<path class="st2" d="M2069.1,580.2c-2.6,0-5.1-1-7.1-2.9c-3.9-3.9-3.9-10.2,0-14.1l60-60c3.9-3.9,10.2-3.9,14.1,0
			c3.9,3.9,3.9,10.2,0,14.1l-60,60C2074.3,579.2,2071.7,580.2,2069.1,580.2z"/>
	</g>
	<g>
		<path class="st2" d="M2129.2,520.2c-2.6,0-5.1-1-7.1-2.9l-60-60c-3.9-3.9-3.9-10.2,0-14.1c3.9-3.9,10.2-3.9,14.1,0l60,60
			c3.9,3.9,3.9,10.2,0,14.1C2134.3,519.2,2131.7,520.2,2129.2,520.2z"/>
	</g>
	<g>
		<path class="st2" d="M2069.2,520.2c-2.6,0-5.1-1-7.1-2.9c-3.9-3.9-3.9-10.2,0-14.1l60-60c3.9-3.9,10.2-3.9,14.1,0
			c3.9,3.9,3.9,10.2,0,14.1l-60,60C2074.3,519.2,2071.7,520.2,2069.2,520.2z"/>
	</g>
	<g>
		<path class="st2" d="M2189.1,340.2c-2.6,0-5.1-1-7.1-2.9l-60-60c-3.9-3.9-3.9-10.2,0-14.1c3.9-3.9,10.2-3.9,14.1,0l60,60
			c3.9,3.9,3.9,10.2,0,14.1C2194.3,339.2,2191.7,340.2,2189.1,340.2z"/>
	</g>
	<g>
		<path class="st2" d="M2129.1,340.2c-2.6,0-5.1-1-7.1-2.9c-3.9-3.9-3.9-10.2,0-14.1l60-60c3.9-3.9,10.2-3.9,14.1,0
			c3.9,3.9,3.9,10.2,0,14.1l-60,60C2134.3,339.2,2131.7,340.2,2129.1,340.2z"/>
	</g>
	<g>
		<path class="st2" d="M2189.1,460.2c-2.6,0-5.1-1-7.1-2.9l-60-60c-3.9-3.9-3.9-10.2,0-14.1c3.9-3.9,10.2-3.9,14.1,0l60,60
			c3.9,3.9,3.9,10.2,0,14.1C2194.3,459.2,2191.7,460.2,2189.1,460.2z"/>
	</g>
	<g>
		<path class="st2" d="M2129.1,460.2c-2.6,0-5.1-1-7.1-2.9c-3.9-3.9-3.9-10.2,0-14.1l60-60c3.9-3.9,10.2-3.9,14.1,0
			c3.9,3.9,3.9,10.2,0,14.1l-60,60C2134.3,459.2,2131.7,460.2,2129.1,460.2z"/>
	</g>
	<g>
		<path class="st2" d="M2189.1,400.2c-2.6,0-5.1-1-7.1-2.9l-60-60c-3.9-3.9-3.9-10.2,0-14.1c3.9-3.9,10.2-3.9,14.1,0l60,60
			c3.9,3.9,3.9,10.2,0,14.1C2194.3,399.2,2191.7,400.2,2189.1,400.2z"/>
	</g>
	<g>
		<path class="st2" d="M2129.1,400.2c-2.6,0-5.1-1-7.1-2.9c-3.9-3.9-3.9-10.2,0-14.1l60-60c3.9-3.9,10.2-3.9,14.1,0
			c3.9,3.9,3.9,10.2,0,14.1l-60,60C2134.3,399.2,2131.7,400.2,2129.1,400.2z"/>
	</g>
	<g>
		<path class="st2" d="M2189.1,580.2c-2.6,0-5.1-1-7.1-2.9l-60-60c-3.9-3.9-3.9-10.2,0-14.1c3.9-3.9,10.2-3.9,14.1,0l60,60
			c3.9,3.9,3.9,10.2,0,14.1C2194.2,579.2,2191.7,580.2,2189.1,580.2z"/>
	</g>
	<g>
		<path class="st2" d="M2129.1,580.2c-2.6,0-5.1-1-7.1-2.9c-3.9-3.9-3.9-10.2,0-14.1l60-60c3.9-3.9,10.2-3.9,14.1,0
			c3.9,3.9,3.9,10.2,0,14.1l-60,60C2134.2,579.2,2131.7,580.2,2129.1,580.2z"/>
	</g>
	<g>
		<path class="st2" d="M2189.1,520.2c-2.6,0-5.1-1-7.1-2.9l-60-60c-3.9-3.9-3.9-10.2,0-14.1c3.9-3.9,10.2-3.9,14.1,0l60,60
			c3.9,3.9,3.9,10.2,0,14.1C2194.3,519.2,2191.7,520.2,2189.1,520.2z"/>
	</g>
	<g>
		<path class="st2" d="M2129.1,520.2c-2.6,0-5.1-1-7.1-2.9c-3.9-3.9-3.9-10.2,0-14.1l60-60c3.9-3.9,10.2-3.9,14.1,0
			c3.9,3.9,3.9,10.2,0,14.1l-60,60C2134.3,519.2,2131.7,520.2,2129.1,520.2z"/>
	</g>
	<g>
		<path class="st2" d="M2009.2,640.1c-2.6,0-5.1-1-7.1-2.9l-60-60c-3.9-3.9-3.9-10.2,0-14.1c3.9-3.9,10.2-3.9,14.1,0l60,60
			c3.9,3.9,3.9,10.2,0,14.1C2014.3,639.2,2011.7,640.1,2009.2,640.1z"/>
	</g>
	<g>
		<path class="st2" d="M1949.2,640.1c-2.6,0-5.1-1-7.1-2.9c-3.9-3.9-3.9-10.2,0-14.1l60-60c3.9-3.9,10.2-3.9,14.1,0
			c3.9,3.9,3.9,10.2,0,14.1l-60,60C1954.3,639.2,1951.7,640.1,1949.2,640.1z"/>
	</g>
	<g>
		<path class="st2" d="M2069.1,700.1c-2.6,0-5.1-1-7.1-2.9l-60-60c-3.9-3.9-3.9-10.2,0-14.1c3.9-3.9,10.2-3.9,14.1,0l60,60
			c3.9,3.9,3.9,10.2,0,14.1C2074.3,699.2,2071.7,700.1,2069.1,700.1z"/>
	</g>
	<g>
		<path class="st2" d="M2009.1,700.1c-2.6,0-5.1-1-7.1-2.9c-3.9-3.9-3.9-10.2,0-14.1l60-60c3.9-3.9,10.2-3.9,14.1,0
			c3.9,3.9,3.9,10.2,0,14.1l-60,60C2014.3,699.2,2011.7,700.1,2009.1,700.1z"/>
	</g>
	<g>
		<path class="st2" d="M2069.1,640.1c-2.6,0-5.1-1-7.1-2.9l-60-60c-3.9-3.9-3.9-10.2,0-14.1c3.9-3.9,10.2-3.9,14.1,0l60,60
			c3.9,3.9,3.9,10.2,0,14.1C2074.3,639.2,2071.7,640.1,2069.1,640.1z"/>
	</g>
	<g>
		<path class="st2" d="M2009.1,640.1c-2.6,0-5.1-1-7.1-2.9c-3.9-3.9-3.9-10.2,0-14.1l60-60c3.9-3.9,10.2-3.9,14.1,0
			c3.9,3.9,3.9,10.2,0,14.1l-60,60C2014.3,639.2,2011.7,640.1,2009.1,640.1z"/>
	</g>
	<g>
		<path class="st2" d="M2129.1,640.1c-2.6,0-5.1-1-7.1-2.9l-60-60c-3.9-3.9-3.9-10.2,0-14.1c3.9-3.9,10.2-3.9,14.1,0l60,60
			c3.9,3.9,3.9,10.2,0,14.1C2134.3,639.2,2131.7,640.1,2129.1,640.1z"/>
	</g>
	<g>
		<path class="st2" d="M2069.1,640.1c-2.6,0-5.1-1-7.1-2.9c-3.9-3.9-3.9-10.2,0-14.1l60-60c3.9-3.9,10.2-3.9,14.1,0
			c3.9,3.9,3.9,10.2,0,14.1l-60,60C2074.3,639.2,2071.7,640.1,2069.1,640.1z"/>
	</g>
	<g>
		<path class="st2" d="M599.8,700.1c-2.6,0-5.1-1-7.1-2.9l-60-60c-3.9-3.9-3.9-10.2,0-14.1c3.9-3.9,10.2-3.9,14.1,0l60,60
			c3.9,3.9,3.9,10.2,0,14.1C604.9,699.2,602.3,700.1,599.8,700.1z"/>
	</g>
	<g>
		<path class="st2" d="M539.8,700.1c-2.6,0-5.1-1-7.1-2.9c-3.9-3.9-3.9-10.2,0-14.1l60-60c3.9-3.9,10.2-3.9,14.1,0
			c3.9,3.9,3.9,10.2,0,14.1l-60,60C544.9,699.2,542.3,700.1,539.8,700.1z"/>
	</g>
	<g>
		<path class="st2" d="M599.8,640.1c-2.6,0-5.1-1-7.1-2.9l-60-60c-3.9-3.9-3.9-10.2,0-14.1c3.9-3.9,10.2-3.9,14.1,0l60,60
			c3.9,3.9,3.9,10.2,0,14.1C604.9,639.2,602.3,640.1,599.8,640.1z"/>
	</g>
	<g>
		<path class="st2" d="M539.8,640.1c-2.6,0-5.1-1-7.1-2.9c-3.9-3.9-3.9-10.2,0-14.1l60-60c3.9-3.9,10.2-3.9,14.1,0
			c3.9,3.9,3.9,10.2,0,14.1l-60,60C544.9,639.2,542.3,640.1,539.8,640.1z"/>
	</g>
	<g>
		<path class="st2" d="M659.8,700.1c-2.6,0-5.1-1-7.1-2.9l-60-60c-3.9-3.9-3.9-10.2,0-14.1c3.9-3.9,10.2-3.9,14.1,0l60,60
			c3.9,3.9,3.9,10.2,0,14.1C664.9,699.2,662.4,700.1,659.8,700.1z"/>
	</g>
	<g>
		<path class="st2" d="M599.8,700.1c-2.6,0-5.1-1-7.1-2.9c-3.9-3.9-3.9-10.2,0-14.1l60-60c3.9-3.9,10.2-3.9,14.1,0
			c3.9,3.9,3.9,10.2,0,14.1l-60,60C604.9,699.2,602.4,700.1,599.8,700.1z"/>
	</g>
	<g>
		<path class="st2" d="M659.8,640.1c-2.6,0-5.1-1-7.1-2.9l-60-60c-3.9-3.9-3.9-10.2,0-14.1c3.9-3.9,10.2-3.9,14.1,0l60,60
			c3.9,3.9,3.9,10.2,0,14.1C664.9,639.2,662.4,640.1,659.8,640.1z"/>
	</g>
	<g>
		<path class="st2" d="M599.8,640.1c-2.6,0-5.1-1-7.1-2.9c-3.9-3.9-3.9-10.2,0-14.1l60-60c3.9-3.9,10.2-3.9,14.1,0
			c3.9,3.9,3.9,10.2,0,14.1l-60,60C604.9,639.2,602.4,640.1,599.8,640.1z"/>
	</g>
	<g>
		<path class="st2" d="M719.8,700.1c-2.6,0-5.1-1-7.1-2.9l-60-60c-3.9-3.9-3.9-10.2,0-14.1c3.9-3.9,10.2-3.9,14.1,0l60,60
			c3.9,3.9,3.9,10.2,0,14.1C724.9,699.2,722.3,700.1,719.8,700.1z"/>
	</g>
	<g>
		<path class="st2" d="M659.8,700.1c-2.6,0-5.1-1-7.1-2.9c-3.9-3.9-3.9-10.2,0-14.1l60-60c3.9-3.9,10.2-3.9,14.1,0
			c3.9,3.9,3.9,10.2,0,14.1l-60,60C664.9,699.2,662.3,700.1,659.8,700.1z"/>
	</g>
	<g>
		<path class="st2" d="M2339,640.2c-2.6,0-5.1-1-7.1-2.9l-60-60c-3.9-3.9-3.9-10.2,0-14.1c3.9-3.9,10.2-3.9,14.1,0l60,60
			c3.9,3.9,3.9,10.2,0,14.1C2344.1,639.2,2341.5,640.2,2339,640.2z"/>
	</g>
	<g>
		<path class="st2" d="M2279,640.2c-2.6,0-5.1-1-7.1-2.9c-3.9-3.9-3.9-10.2,0-14.1l60-60c3.9-3.9,10.2-3.9,14.1,0
			c3.9,3.9,3.9,10.2,0,14.1l-60,60C2284.1,639.2,2281.5,640.2,2279,640.2z"/>
	</g>
	<g>
		<path class="st2" d="M2399,700.2c-2.6,0-5.1-1-7.1-2.9l-60-60c-3.9-3.9-3.9-10.2,0-14.1c3.9-3.9,10.2-3.9,14.1,0l60,60
			c3.9,3.9,3.9,10.2,0,14.1C2404.1,699.2,2401.5,700.2,2399,700.2z"/>
	</g>
	<g>
		<path class="st2" d="M2339,700.2c-2.6,0-5.1-1-7.1-2.9c-3.9-3.9-3.9-10.2,0-14.1l60-60c3.9-3.9,10.2-3.9,14.1,0
			c3.9,3.9,3.9,10.2,0,14.1l-60,60C2344.1,699.2,2341.5,700.2,2339,700.2z"/>
	</g>
	<g>
		<path class="st2" d="M2399,640.2c-2.6,0-5.1-1-7.1-2.9l-60-60c-3.9-3.9-3.9-10.2,0-14.1c3.9-3.9,10.2-3.9,14.1,0l60,60
			c3.9,3.9,3.9,10.2,0,14.1C2404.1,639.2,2401.5,640.2,2399,640.2z"/>
	</g>
	<g>
		<path class="st2" d="M2339,640.2c-2.6,0-5.1-1-7.1-2.9c-3.9-3.9-3.9-10.2,0-14.1l60-60c3.9-3.9,10.2-3.9,14.1,0
			c3.9,3.9,3.9,10.2,0,14.1l-60,60C2344.1,639.2,2341.5,640.2,2339,640.2z"/>
	</g>
	<g>
		<path class="st2" d="M2459,700.2c-2.6,0-5.1-1-7.1-2.9l-60-60c-3.9-3.9-3.9-10.2,0-14.1c3.9-3.9,10.2-3.9,14.1,0l60,60
			c3.9,3.9,3.9,10.2,0,14.1C2464.1,699.2,2461.5,700.2,2459,700.2z"/>
	</g>
	<g>
		<path class="st2" d="M2399,700.2c-2.6,0-5.1-1-7.1-2.9c-3.9-3.9-3.9-10.2,0-14.1l60-60c3.9-3.9,10.2-3.9,14.1,0
			c3.9,3.9,3.9,10.2,0,14.1l-60,60C2404.1,699.2,2401.5,700.2,2399,700.2z"/>
	</g>
	<g>
		<path class="st2" d="M2518.9,700.2c-2.6,0-5.1-1-7.1-2.9l-60-60c-3.9-3.9-3.9-10.2,0-14.1c3.9-3.9,10.2-3.9,14.1,0l60,60
			c3.9,3.9,3.9,10.2,0,14.1C2524.1,699.2,2521.5,700.2,2518.9,700.2z"/>
	</g>
	<g>
		<path class="st2" d="M2458.9,700.2c-2.6,0-5.1-1-7.1-2.9c-3.9-3.9-3.9-10.2,0-14.1l60-60c3.9-3.9,10.2-3.9,14.1,0
			c3.9,3.9,3.9,10.2,0,14.1l-60,60C2464.1,699.2,2461.5,700.2,2458.9,700.2z"/>
	</g>
	<g>
		<path class="st2" d="M2518.9,640.2c-2.6,0-5.1-1-7.1-2.9l-60-60c-3.9-3.9-3.9-10.2,0-14.1c3.9-3.9,10.2-3.9,14.1,0l60,60
			c3.9,3.9,3.9,10.2,0,14.1C2524.1,639.2,2521.5,640.2,2518.9,640.2z"/>
	</g>
	<g>
		<path class="st2" d="M2458.9,640.2c-2.6,0-5.1-1-7.1-2.9c-3.9-3.9-3.9-10.2,0-14.1l60-60c3.9-3.9,10.2-3.9,14.1,0
			c3.9,3.9,3.9,10.2,0,14.1l-60,60C2464.1,639.2,2461.5,640.2,2458.9,640.2z"/>
	</g>
	<g>
		<path class="st2" d="M2579,640.2c-2.6,0-5.1-1-7.1-2.9l-60-60c-3.9-3.9-3.9-10.2,0-14.1c3.9-3.9,10.2-3.9,14.1,0l60,60
			c3.9,3.9,3.9,10.2,0,14.1C2584.1,639.2,2581.5,640.2,2579,640.2z"/>
	</g>
	<g>
		<path class="st2" d="M2519,640.2c-2.6,0-5.1-1-7.1-2.9c-3.9-3.9-3.9-10.2,0-14.1l60-60c3.9-3.9,10.2-3.9,14.1,0
			c3.9,3.9,3.9,10.2,0,14.1l-60,60C2524.1,639.2,2521.5,640.2,2519,640.2z"/>
	</g>
	<g>
		<g>
			<path class="st2" d="M1199.3,340.2c-2.6,0-5.1-1-7.1-2.9l-60-60c-3.9-3.9-3.9-10.2,0-14.1c3.9-3.9,10.2-3.9,14.1,0l60,60
				c3.9,3.9,3.9,10.2,0,14.1C1204.4,339.2,1201.8,340.2,1199.3,340.2z"/>
		</g>
		<g>
			<path class="st2" d="M1139.3,340.2c-2.6,0-5.1-1-7.1-2.9c-3.9-3.9-3.9-10.2,0-14.1l60-60c3.9-3.9,10.2-3.9,14.1,0
				c3.9,3.9,3.9,10.2,0,14.1l-60,60C1144.4,339.2,1141.8,340.2,1139.3,340.2z"/>
		</g>
		<g>
			<path class="st2" d="M1199.3,460.2c-2.6,0-5.1-1-7.1-2.9l-60-60c-3.9-3.9-3.9-10.2,0-14.1c3.9-3.9,10.2-3.9,14.1,0l60,60
				c3.9,3.9,3.9,10.2,0,14.1C1204.4,459.2,1201.8,460.2,1199.3,460.2z"/>
		</g>
		<g>
			<path class="st2" d="M1139.3,460.2c-2.6,0-5.1-1-7.1-2.9c-3.9-3.9-3.9-10.2,0-14.1l60-60c3.9-3.9,10.2-3.9,14.1,0
				c3.9,3.9,3.9,10.2,0,14.1l-60,60C1144.4,459.2,1141.8,460.2,1139.3,460.2z"/>
		</g>
		<g>
			<path class="st2" d="M1199.3,400.2c-2.6,0-5.1-1-7.1-2.9l-60-60c-3.9-3.9-3.9-10.2,0-14.1c3.9-3.9,10.2-3.9,14.1,0l60,60
				c3.9,3.9,3.9,10.2,0,14.1C1204.4,399.2,1201.8,400.2,1199.3,400.2z"/>
		</g>
		<g>
			<path class="st2" d="M1139.3,400.2c-2.6,0-5.1-1-7.1-2.9c-3.9-3.9-3.9-10.2,0-14.1l60-60c3.9-3.9,10.2-3.9,14.1,0
				c3.9,3.9,3.9,10.2,0,14.1l-60,60C1144.4,399.2,1141.8,400.2,1139.3,400.2z"/>
		</g>
		<g>
			<path class="st2" d="M1199.3,580.2c-2.6,0-5.1-1-7.1-2.9l-60-60c-3.9-3.9-3.9-10.2,0-14.1c3.9-3.9,10.2-3.9,14.1,0l60,60
				c3.9,3.9,3.9,10.2,0,14.1C1204.4,579.2,1201.8,580.2,1199.3,580.2z"/>
		</g>
		<g>
			<path class="st2" d="M1139.3,580.2c-2.6,0-5.1-1-7.1-2.9c-3.9-3.9-3.9-10.2,0-14.1l60-60c3.9-3.9,10.2-3.9,14.1,0
				c3.9,3.9,3.9,10.2,0,14.1l-60,60C1144.4,579.2,1141.8,580.2,1139.3,580.2z"/>
		</g>
		<g>
			<path class="st2" d="M1199.3,520.2c-2.6,0-5.1-1-7.1-2.9l-60-60c-3.9-3.9-3.9-10.2,0-14.1c3.9-3.9,10.2-3.9,14.1,0l60,60
				c3.9,3.9,3.9,10.2,0,14.1C1204.4,519.2,1201.9,520.2,1199.3,520.2z"/>
		</g>
		<g>
			<path class="st2" d="M1139.3,520.2c-2.6,0-5.1-1-7.1-2.9c-3.9-3.9-3.9-10.2,0-14.1l60-60c3.9-3.9,10.2-3.9,14.1,0
				c3.9,3.9,3.9,10.2,0,14.1l-60,60C1144.4,519.2,1141.9,520.2,1139.3,520.2z"/>
		</g>
		<g>
			<path class="st2" d="M1259.3,280.2c-2.6,0-5.1-1-7.1-2.9l-60-60c-3.9-3.9-3.9-10.2,0-14.1c3.9-3.9,10.2-3.9,14.1,0l60,60
				c3.9,3.9,3.9,10.2,0,14.1C1264.4,279.2,1261.9,280.2,1259.3,280.2z"/>
		</g>
		<g>
			<path class="st2" d="M1199.3,280.2c-2.6,0-5.1-1-7.1-2.9c-3.9-3.9-3.9-10.2,0-14.1l60-60c3.9-3.9,10.2-3.9,14.1,0
				c3.9,3.9,3.9,10.2,0,14.1l-60,60C1204.4,279.2,1201.9,280.2,1199.3,280.2z"/>
		</g>
		<g>
			<path class="st2" d="M1319.3,220.2c-2.6,0-5.1-1-7.1-2.9l-60-60c-3.9-3.9-3.9-10.2,0-14.1c3.9-3.9,10.2-3.9,14.1,0l60,60
				c3.9,3.9,3.9,10.2,0,14.1C1324.4,219.2,1321.8,220.2,1319.3,220.2z"/>
		</g>
		<g>
			<path class="st2" d="M1259.3,220.2c-2.6,0-5.1-1-7.1-2.9c-3.9-3.9-3.9-10.2,0-14.1l60-60c3.9-3.9,10.2-3.9,14.1,0
				c3.9,3.9,3.9,10.2,0,14.1l-60,60C1264.4,219.2,1261.8,220.2,1259.3,220.2z"/>
		</g>
		<g>
			<path class="st2" d="M1379.3,220.2c-2.6,0-5.1-1-7.1-2.9l-60-60c-3.9-3.9-3.9-10.2,0-14.1c3.9-3.9,10.2-3.9,14.1,0l60,60
				c3.9,3.9,3.9,10.2,0,14.1C1384.4,219.2,1381.8,220.2,1379.3,220.2z"/>
		</g>
		<g>
			<path class="st2" d="M1319.3,220.2c-2.6,0-5.1-1-7.1-2.9c-3.9-3.9-3.9-10.2,0-14.1l60-60c3.9-3.9,10.2-3.9,14.1,0
				c3.9,3.9,3.9,10.2,0,14.1l-60,60C1324.4,219.2,1321.8,220.2,1319.3,220.2z"/>
		</g>
		<g>
			<path class="st2" d="M1379.3,460.2c-2.6,0-5.1-1-7.1-2.9l-60-60c-3.9-3.9-3.9-10.2,0-14.1c3.9-3.9,10.2-3.9,14.1,0l60,60
				c3.9,3.9,3.9,10.2,0,14.1C1384.4,459.2,1381.8,460.2,1379.3,460.2z"/>
		</g>
		<g>
			<path class="st2" d="M1319.3,460.2c-2.6,0-5.1-1-7.1-2.9c-3.9-3.9-3.9-10.2,0-14.1l60-60c3.9-3.9,10.2-3.9,14.1,0
				c3.9,3.9,3.9,10.2,0,14.1l-60,60C1324.4,459.2,1321.8,460.2,1319.3,460.2z"/>
		</g>
		<g>
			<path class="st2" d="M1379.3,580.2c-2.6,0-5.1-1-7.1-2.9l-60-60c-3.9-3.9-3.9-10.2,0-14.1c3.9-3.9,10.2-3.9,14.1,0l60,60
				c3.9,3.9,3.9,10.2,0,14.1C1384.4,579.2,1381.8,580.2,1379.3,580.2z"/>
		</g>
		<g>
			<path class="st2" d="M1319.3,580.2c-2.6,0-5.1-1-7.1-2.9c-3.9-3.9-3.9-10.2,0-14.1l60-60c3.9-3.9,10.2-3.9,14.1,0
				c3.9,3.9,3.9,10.2,0,14.1l-60,60C1324.4,579.2,1321.8,580.2,1319.3,580.2z"/>
		</g>
		<g>
			<path class="st2" d="M1379.3,520.2c-2.6,0-5.1-1-7.1-2.9l-60-60c-3.9-3.9-3.9-10.2,0-14.1c3.9-3.9,10.2-3.9,14.1,0l60,60
				c3.9,3.9,3.9,10.2,0,14.1C1384.4,519.2,1381.8,520.2,1379.3,520.2z"/>
		</g>
		<g>
			<path class="st2" d="M1319.3,520.2c-2.6,0-5.1-1-7.1-2.9c-3.9-3.9-3.9-10.2,0-14.1l60-60c3.9-3.9,10.2-3.9,14.1,0
				c3.9,3.9,3.9,10.2,0,14.1l-60,60C1324.4,519.2,1321.8,520.2,1319.3,520.2z"/>
		</g>
		<g>
			<path class="st2" d="M1439.4,220.2c-2.6,0-5.1-1-7.1-2.9l-60-60c-3.9-3.9-3.9-10.2,0-14.1c3.9-3.9,10.2-3.9,14.1,0l60,60
				c3.9,3.9,3.9,10.2,0,14.1C1444.5,219.2,1441.9,220.2,1439.4,220.2z"/>
		</g>
		<g>
			<path class="st2" d="M1379.4,220.2c-2.6,0-5.1-1-7.1-2.9c-3.9-3.9-3.9-10.2,0-14.1l60-60c3.9-3.9,10.2-3.9,14.1,0
				c3.9,3.9,3.9,10.2,0,14.1l-60,60C1384.5,219.2,1381.9,220.2,1379.4,220.2z"/>
		</g>
		<g>
			<path class="st2" d="M1439.4,460.2c-2.6,0-5.1-1-7.1-2.9l-60-60c-3.9-3.9-3.9-10.2,0-14.1c3.9-3.9,10.2-3.9,14.1,0l60,60
				c3.9,3.9,3.9,10.2,0,14.1C1444.5,459.2,1441.9,460.2,1439.4,460.2z"/>
		</g>
		<g>
			<path class="st2" d="M1379.4,460.2c-2.6,0-5.1-1-7.1-2.9c-3.9-3.9-3.9-10.2,0-14.1l60-60c3.9-3.9,10.2-3.9,14.1,0
				c3.9,3.9,3.9,10.2,0,14.1l-60,60C1384.5,459.2,1381.9,460.2,1379.4,460.2z"/>
		</g>
		<g>
			<path class="st2" d="M1439.4,400.2c-2.6,0-5.1-1-7.1-2.9l-60-60c-3.9-3.9-3.9-10.2,0-14.1c3.9-3.9,10.2-3.9,14.1,0l60,60
				c3.9,3.9,3.9,10.2,0,14.1C1444.5,399.2,1441.9,400.2,1439.4,400.2z"/>
		</g>
		<g>
			<path class="st2" d="M1379.4,400.2c-2.6,0-5.1-1-7.1-2.9c-3.9-3.9-3.9-10.2,0-14.1l60-60c3.9-3.9,10.2-3.9,14.1,0
				c3.9,3.9,3.9,10.2,0,14.1l-60,60C1384.5,399.2,1381.9,400.2,1379.4,400.2z"/>
		</g>
		<g>
			<path class="st2" d="M1439.4,580.2c-2.6,0-5.1-1-7.1-2.9l-60-60c-3.9-3.9-3.9-10.2,0-14.1c3.9-3.9,10.2-3.9,14.1,0l60,60
				c3.9,3.9,3.9,10.2,0,14.1C1444.5,579.2,1441.9,580.2,1439.4,580.2z"/>
		</g>
		<g>
			<path class="st2" d="M1379.4,580.2c-2.6,0-5.1-1-7.1-2.9c-3.9-3.9-3.9-10.2,0-14.1l60-60c3.9-3.9,10.2-3.9,14.1,0
				c3.9,3.9,3.9,10.2,0,14.1l-60,60C1384.5,579.2,1381.9,580.2,1379.4,580.2z"/>
		</g>
		<g>
			<path class="st2" d="M1439.4,520.2c-2.6,0-5.1-1-7.1-2.9l-60-60c-3.9-3.9-3.9-10.2,0-14.1c3.9-3.9,10.2-3.9,14.1,0l60,60
				c3.9,3.9,3.9,10.2,0,14.1C1444.5,519.2,1441.9,520.2,1439.4,520.2z"/>
		</g>
		<g>
			<path class="st2" d="M1379.4,520.2c-2.6,0-5.1-1-7.1-2.9c-3.9-3.9-3.9-10.2,0-14.1l60-60c3.9-3.9,10.2-3.9,14.1,0
				c3.9,3.9,3.9,10.2,0,14.1l-60,60C1384.5,519.2,1381.9,520.2,1379.4,520.2z"/>
		</g>
		<g>
			<path class="st2" d="M1499.4,220.2c-2.6,0-5.1-1-7.1-2.9l-60-60c-3.9-3.9-3.9-10.2,0-14.1c3.9-3.9,10.2-3.9,14.1,0l60,60
				c3.9,3.9,3.9,10.2,0,14.1C1504.5,219.2,1501.9,220.2,1499.4,220.2z"/>
		</g>
		<g>
			<path class="st2" d="M1439.4,220.2c-2.6,0-5.1-1-7.1-2.9c-3.9-3.9-3.9-10.2,0-14.1l60-60c3.9-3.9,10.2-3.9,14.1,0
				c3.9,3.9,3.9,10.2,0,14.1l-60,60C1444.5,219.2,1441.9,220.2,1439.4,220.2z"/>
		</g>
		<g>
			<path class="st2" d="M1499.4,340.2c-2.6,0-5.1-1-7.1-2.9l-60-60c-3.9-3.9-3.9-10.2,0-14.1c3.9-3.9,10.2-3.9,14.1,0l60,60
				c3.9,3.9,3.9,10.2,0,14.1C1504.5,339.2,1501.9,340.2,1499.4,340.2z"/>
		</g>
		<g>
			<path class="st2" d="M1439.4,340.2c-2.6,0-5.1-1-7.1-2.9c-3.9-3.9-3.9-10.2,0-14.1l60-60c3.9-3.9,10.2-3.9,14.1,0
				c3.9,3.9,3.9,10.2,0,14.1l-60,60C1444.5,339.2,1441.9,340.2,1439.4,340.2z"/>
		</g>
		<g>
			<path class="st2" d="M1499.4,460.2c-2.6,0-5.1-1-7.1-2.9l-60-60c-3.9-3.9-3.9-10.2,0-14.1c3.9-3.9,10.2-3.9,14.1,0l60,60
				c3.9,3.9,3.9,10.2,0,14.1C1504.5,459.2,1501.9,460.2,1499.4,460.2z"/>
		</g>
		<g>
			<path class="st2" d="M1439.4,460.2c-2.6,0-5.1-1-7.1-2.9c-3.9-3.9-3.9-10.2,0-14.1l60-60c3.9-3.9,10.2-3.9,14.1,0
				c3.9,3.9,3.9,10.2,0,14.1l-60,60C1444.5,459.2,1441.9,460.2,1439.4,460.2z"/>
		</g>
		<g>
			<path class="st2" d="M1499.4,400.2c-2.6,0-5.1-1-7.1-2.9l-60-60c-3.9-3.9-3.9-10.2,0-14.1c3.9-3.9,10.2-3.9,14.1,0l60,60
				c3.9,3.9,3.9,10.2,0,14.1C1504.5,399.2,1501.9,400.2,1499.4,400.2z"/>
		</g>
		<g>
			<path class="st2" d="M1439.4,400.2c-2.6,0-5.1-1-7.1-2.9c-3.9-3.9-3.9-10.2,0-14.1l60-60c3.9-3.9,10.2-3.9,14.1,0
				c3.9,3.9,3.9,10.2,0,14.1l-60,60C1444.5,399.2,1441.9,400.2,1439.4,400.2z"/>
		</g>
		<g>
			<path class="st2" d="M1559.3,220.2c-2.6,0-5.1-1-7.1-2.9l-60-60c-3.9-3.9-3.9-10.2,0-14.1c3.9-3.9,10.2-3.9,14.1,0l60,60
				c3.9,3.9,3.9,10.2,0,14.1C1564.5,219.2,1561.9,220.2,1559.3,220.2z"/>
		</g>
		<g>
			<path class="st2" d="M1499.3,220.2c-2.6,0-5.1-1-7.1-2.9c-3.9-3.9-3.9-10.2,0-14.1l60-60c3.9-3.9,10.2-3.9,14.1,0
				c3.9,3.9,3.9,10.2,0,14.1l-60,60C1504.5,219.2,1501.9,220.2,1499.3,220.2z"/>
		</g>
		<g>
			<path class="st2" d="M1559.3,460.2c-2.6,0-5.1-1-7.1-2.9l-60-60c-3.9-3.9-3.9-10.2,0-14.1c3.9-3.9,10.2-3.9,14.1,0l60,60
				c3.9,3.9,3.9,10.2,0,14.1C1564.5,459.2,1561.9,460.2,1559.3,460.2z"/>
		</g>
		<g>
			<path class="st2" d="M1499.3,460.2c-2.6,0-5.1-1-7.1-2.9c-3.9-3.9-3.9-10.2,0-14.1l60-60c3.9-3.9,10.2-3.9,14.1,0
				c3.9,3.9,3.9,10.2,0,14.1l-60,60C1504.5,459.2,1501.9,460.2,1499.3,460.2z"/>
		</g>
		<g>
			<path class="st2" d="M1559.3,400.2c-2.6,0-5.1-1-7.1-2.9l-60-60c-3.9-3.9-3.9-10.2,0-14.1c3.9-3.9,10.2-3.9,14.1,0l60,60
				c3.9,3.9,3.9,10.2,0,14.1C1564.5,399.2,1561.9,400.2,1559.3,400.2z"/>
		</g>
		<g>
			<path class="st2" d="M1499.3,400.2c-2.6,0-5.1-1-7.1-2.9c-3.9-3.9-3.9-10.2,0-14.1l60-60c3.9-3.9,10.2-3.9,14.1,0
				c3.9,3.9,3.9,10.2,0,14.1l-60,60C1504.5,399.2,1501.9,400.2,1499.3,400.2z"/>
		</g>
		<g>
			<path class="st2" d="M1559.4,520.2c-2.6,0-5.1-1-7.1-2.9l-60-60c-3.9-3.9-3.9-10.2,0-14.1c3.9-3.9,10.2-3.9,14.1,0l60,60
				c3.9,3.9,3.9,10.2,0,14.1C1564.5,519.2,1561.9,520.2,1559.4,520.2z"/>
		</g>
		<g>
			<path class="st2" d="M1499.4,520.2c-2.6,0-5.1-1-7.1-2.9c-3.9-3.9-3.9-10.2,0-14.1l60-60c3.9-3.9,10.2-3.9,14.1,0
				c3.9,3.9,3.9,10.2,0,14.1l-60,60C1504.5,519.2,1501.9,520.2,1499.4,520.2z"/>
		</g>
		<g>
			<path class="st2" d="M1619.4,220.2c-2.6,0-5.1-1-7.1-2.9l-60-60c-3.9-3.9-3.9-10.2,0-14.1c3.9-3.9,10.2-3.9,14.1,0l60,60
				c3.9,3.9,3.9,10.2,0,14.1C1624.5,219.2,1621.9,220.2,1619.4,220.2z"/>
		</g>
		<g>
			<path class="st2" d="M1559.4,220.2c-2.6,0-5.1-1-7.1-2.9c-3.9-3.9-3.9-10.2,0-14.1l60-60c3.9-3.9,10.2-3.9,14.1,0
				c3.9,3.9,3.9,10.2,0,14.1l-60,60C1564.5,219.2,1561.9,220.2,1559.4,220.2z"/>
		</g>
		<g>
			<path class="st2" d="M1619.4,460.2c-2.6,0-5.1-1-7.1-2.9l-60-60c-3.9-3.9-3.9-10.2,0-14.1c3.9-3.9,10.2-3.9,14.1,0l60,60
				c3.9,3.9,3.9,10.2,0,14.1C1624.5,459.2,1621.9,460.2,1619.4,460.2z"/>
		</g>
		<g>
			<path class="st2" d="M1559.4,460.2c-2.6,0-5.1-1-7.1-2.9c-3.9-3.9-3.9-10.2,0-14.1l60-60c3.9-3.9,10.2-3.9,14.1,0
				c3.9,3.9,3.9,10.2,0,14.1l-60,60C1564.5,459.2,1561.9,460.2,1559.4,460.2z"/>
		</g>
		<g>
			<path class="st2" d="M1619.4,580.2c-2.6,0-5.1-1-7.1-2.9l-60-60c-3.9-3.9-3.9-10.2,0-14.1c3.9-3.9,10.2-3.9,14.1,0l60,60
				c3.9,3.9,3.9,10.2,0,14.1C1624.5,579.2,1621.9,580.2,1619.4,580.2z"/>
		</g>
		<g>
			<path class="st2" d="M1559.4,580.2c-2.6,0-5.1-1-7.1-2.9c-3.9-3.9-3.9-10.2,0-14.1l60-60c3.9-3.9,10.2-3.9,14.1,0
				c3.9,3.9,3.9,10.2,0,14.1l-60,60C1564.5,579.2,1561.9,580.2,1559.4,580.2z"/>
		</g>
		<g>
			<path class="st2" d="M1619.4,520.2c-2.6,0-5.1-1-7.1-2.9l-60-60c-3.9-3.9-3.9-10.2,0-14.1c3.9-3.9,10.2-3.9,14.1,0l60,60
				c3.9,3.9,3.9,10.2,0,14.1C1624.5,519.2,1621.9,520.2,1619.4,520.2z"/>
		</g>
		<g>
			<path class="st2" d="M1559.4,520.2c-2.6,0-5.1-1-7.1-2.9c-3.9-3.9-3.9-10.2,0-14.1l60-60c3.9-3.9,10.2-3.9,14.1,0
				c3.9,3.9,3.9,10.2,0,14.1l-60,60C1564.5,519.2,1561.9,520.2,1559.4,520.2z"/>
		</g>
		<g>
			<path class="st2" d="M1679.3,220.2c-2.6,0-5.1-1-7.1-2.9l-60-60c-3.9-3.9-3.9-10.2,0-14.1c3.9-3.9,10.2-3.9,14.1,0l60,60
				c3.9,3.9,3.9,10.2,0,14.1C1684.5,219.2,1681.9,220.2,1679.3,220.2z"/>
		</g>
		<g>
			<path class="st2" d="M1619.3,220.2c-2.6,0-5.1-1-7.1-2.9c-3.9-3.9-3.9-10.2,0-14.1l60-60c3.9-3.9,10.2-3.9,14.1,0
				c3.9,3.9,3.9,10.2,0,14.1l-60,60C1624.5,219.2,1621.9,220.2,1619.3,220.2z"/>
		</g>
		<g>
			<path class="st2" d="M1739.4,280.2c-2.6,0-5.1-1-7.1-2.9l-60-60c-3.9-3.9-3.9-10.2,0-14.1c3.9-3.9,10.2-3.9,14.1,0l60,60
				c3.9,3.9,3.9,10.2,0,14.1C1744.5,279.2,1741.9,280.2,1739.4,280.2z"/>
		</g>
		<g>
			<path class="st2" d="M1679.4,280.2c-2.6,0-5.1-1-7.1-2.9c-3.9-3.9-3.9-10.2,0-14.1l60-60c3.9-3.9,10.2-3.9,14.1,0
				c3.9,3.9,3.9,10.2,0,14.1l-60,60C1684.5,279.2,1681.9,280.2,1679.4,280.2z"/>
		</g>
		<g>
			<path class="st2" d="M1799.3,340.2c-2.6,0-5.1-1-7.1-2.9l-60-60c-3.9-3.9-3.9-10.2,0-14.1c3.9-3.9,10.2-3.9,14.1,0l60,60
				c3.9,3.9,3.9,10.2,0,14.1C1804.4,339.2,1801.9,340.2,1799.3,340.2z"/>
		</g>
		<g>
			<path class="st2" d="M1739.3,340.2c-2.6,0-5.1-1-7.1-2.9c-3.9-3.9-3.9-10.2,0-14.1l60-60c3.9-3.9,10.2-3.9,14.1,0
				c3.9,3.9,3.9,10.2,0,14.1l-60,60C1744.4,339.2,1741.9,340.2,1739.3,340.2z"/>
		</g>
		<g>
			<path class="st2" d="M1799.3,460.2c-2.6,0-5.1-1-7.1-2.9l-60-60c-3.9-3.9-3.9-10.2,0-14.1c3.9-3.9,10.2-3.9,14.1,0l60,60
				c3.9,3.9,3.9,10.2,0,14.1C1804.4,459.2,1801.9,460.2,1799.3,460.2z"/>
		</g>
		<g>
			<path class="st2" d="M1739.3,460.2c-2.6,0-5.1-1-7.1-2.9c-3.9-3.9-3.9-10.2,0-14.1l60-60c3.9-3.9,10.2-3.9,14.1,0
				c3.9,3.9,3.9,10.2,0,14.1l-60,60C1744.4,459.2,1741.9,460.2,1739.3,460.2z"/>
		</g>
		<g>
			<path class="st2" d="M1799.3,400.2c-2.6,0-5.1-1-7.1-2.9l-60-60c-3.9-3.9-3.9-10.2,0-14.1c3.9-3.9,10.2-3.9,14.1,0l60,60
				c3.9,3.9,3.9,10.2,0,14.1C1804.4,399.2,1801.9,400.2,1799.3,400.2z"/>
		</g>
		<g>
			<path class="st2" d="M1739.3,400.2c-2.6,0-5.1-1-7.1-2.9c-3.9-3.9-3.9-10.2,0-14.1l60-60c3.9-3.9,10.2-3.9,14.1,0
				c3.9,3.9,3.9,10.2,0,14.1l-60,60C1744.4,399.2,1741.9,400.2,1739.3,400.2z"/>
		</g>
		<g>
			<path class="st2" d="M1799.3,580.2c-2.6,0-5.1-1-7.1-2.9l-60-60c-3.9-3.9-3.9-10.2,0-14.1c3.9-3.9,10.2-3.9,14.1,0l60,60
				c3.9,3.9,3.9,10.2,0,14.1C1804.4,579.2,1801.9,580.2,1799.3,580.2z"/>
		</g>
		<g>
			<path class="st2" d="M1739.3,580.2c-2.6,0-5.1-1-7.1-2.9c-3.9-3.9-3.9-10.2,0-14.1l60-60c3.9-3.9,10.2-3.9,14.1,0
				c3.9,3.9,3.9,10.2,0,14.1l-60,60C1744.4,579.2,1741.9,580.2,1739.3,580.2z"/>
		</g>
		<g>
			<path class="st2" d="M1799.3,520.2c-2.6,0-5.1-1-7.1-2.9l-60-60c-3.9-3.9-3.9-10.2,0-14.1c3.9-3.9,10.2-3.9,14.1,0l60,60
				c3.9,3.9,3.9,10.2,0,14.1C1804.5,519.2,1801.9,520.2,1799.3,520.2z"/>
		</g>
		<g>
			<path class="st2" d="M1739.3,520.2c-2.6,0-5.1-1-7.1-2.9c-3.9-3.9-3.9-10.2,0-14.1l60-60c3.9-3.9,10.2-3.9,14.1,0
				c3.9,3.9,3.9,10.2,0,14.1l-60,60C1744.5,519.2,1741.9,520.2,1739.3,520.2z"/>
		</g>
		<g>
			<path class="st2" d="M1199.3,700.1c-2.6,0-5.1-1-7.1-2.9l-60-60c-3.9-3.9-3.9-10.2,0-14.1c3.9-3.9,10.2-3.9,14.1,0l60,60
				c3.9,3.9,3.9,10.2,0,14.1C1204.4,699.2,1201.8,700.1,1199.3,700.1z"/>
		</g>
		<g>
			<path class="st2" d="M1139.3,700.1c-2.6,0-5.1-1-7.1-2.9c-3.9-3.9-3.9-10.2,0-14.1l60-60c3.9-3.9,10.2-3.9,14.1,0
				c3.9,3.9,3.9,10.2,0,14.1l-60,60C1144.4,699.2,1141.8,700.1,1139.3,700.1z"/>
		</g>
		<g>
			<path class="st2" d="M1199.3,640.2c-2.6,0-5.1-1-7.1-2.9l-60-60c-3.9-3.9-3.9-10.2,0-14.1c3.9-3.9,10.2-3.9,14.1,0l60,60
				c3.9,3.9,3.9,10.2,0,14.1C1204.4,639.2,1201.8,640.2,1199.3,640.2z"/>
		</g>
		<g>
			<path class="st2" d="M1139.3,640.2c-2.6,0-5.1-1-7.1-2.9c-3.9-3.9-3.9-10.2,0-14.1l60-60c3.9-3.9,10.2-3.9,14.1,0
				c3.9,3.9,3.9,10.2,0,14.1l-60,60C1144.4,639.2,1141.8,640.2,1139.3,640.2z"/>
		</g>
		<g>
			<path class="st2" d="M1199.3,760.2c-2.6,0-5.1-1-7.1-2.9l-60-60c-3.9-3.9-3.9-10.2,0-14.1c3.9-3.9,10.2-3.9,14.1,0l60,60
				c3.9,3.9,3.9,10.2,0,14.1C1204.4,759.2,1201.8,760.2,1199.3,760.2z"/>
		</g>
		<g>
			<path class="st2" d="M1139.3,760.2c-2.6,0-5.1-1-7.1-2.9c-3.9-3.9-3.9-10.2,0-14.1l60-60c3.9-3.9,10.2-3.9,14.1,0
				c3.9,3.9,3.9,10.2,0,14.1l-60,60C1144.4,759.2,1141.8,760.2,1139.3,760.2z"/>
		</g>
		<g>
			<path class="st2" d="M1259.3,820.2c-2.6,0-5.1-1-7.1-2.9l-60-60c-3.9-3.9-3.9-10.2,0-14.1c3.9-3.9,10.2-3.9,14.1,0l60,60
				c3.9,3.9,3.9,10.2,0,14.1C1264.4,819.2,1261.9,820.2,1259.3,820.2z"/>
		</g>
		<g>
			<path class="st2" d="M1199.3,820.2c-2.6,0-5.1-1-7.1-2.9c-3.9-3.9-3.9-10.2,0-14.1l60-60c3.9-3.9,10.2-3.9,14.1,0
				c3.9,3.9,3.9,10.2,0,14.1l-60,60C1204.4,819.2,1201.9,820.2,1199.3,820.2z"/>
		</g>
		<g>
			<path class="st2" d="M1319.3,880.1c-2.6,0-5.1-1-7.1-2.9l-60-60c-3.9-3.9-3.9-10.2,0-14.1c3.9-3.9,10.2-3.9,14.1,0l60,60
				c3.9,3.9,3.9,10.2,0,14.1C1324.4,879.2,1321.8,880.1,1319.3,880.1z"/>
		</g>
		<g>
			<path class="st2" d="M1259.3,880.1c-2.6,0-5.1-1-7.1-2.9c-3.9-3.9-3.9-10.2,0-14.1l60-60c3.9-3.9,10.2-3.9,14.1,0
				c3.9,3.9,3.9,10.2,0,14.1l-60,60C1264.4,879.2,1261.8,880.1,1259.3,880.1z"/>
		</g>
		<g>
			<path class="st2" d="M1379.3,700.1c-2.6,0-5.1-1-7.1-2.9l-60-60c-3.9-3.9-3.9-10.2,0-14.1c3.9-3.9,10.2-3.9,14.1,0l60,60
				c3.9,3.9,3.9,10.2,0,14.1C1384.4,699.2,1381.8,700.1,1379.3,700.1z"/>
		</g>
		<g>
			<path class="st2" d="M1319.3,700.1c-2.6,0-5.1-1-7.1-2.9c-3.9-3.9-3.9-10.2,0-14.1l60-60c3.9-3.9,10.2-3.9,14.1,0
				c3.9,3.9,3.9,10.2,0,14.1l-60,60C1324.4,699.2,1321.8,700.1,1319.3,700.1z"/>
		</g>
		<g>
			<path class="st2" d="M1379.3,640.2c-2.6,0-5.1-1-7.1-2.9l-60-60c-3.9-3.9-3.9-10.2,0-14.1c3.9-3.9,10.2-3.9,14.1,0l60,60
				c3.9,3.9,3.9,10.2,0,14.1C1384.4,639.2,1381.8,640.2,1379.3,640.2z"/>
		</g>
		<g>
			<path class="st2" d="M1319.3,640.2c-2.6,0-5.1-1-7.1-2.9c-3.9-3.9-3.9-10.2,0-14.1l60-60c3.9-3.9,10.2-3.9,14.1,0
				c3.9,3.9,3.9,10.2,0,14.1l-60,60C1324.4,639.2,1321.8,640.2,1319.3,640.2z"/>
		</g>
		<g>
			<path class="st2" d="M1379.3,880.1c-2.6,0-5.1-1-7.1-2.9l-60-60c-3.9-3.9-3.9-10.2,0-14.1c3.9-3.9,10.2-3.9,14.1,0l60,60
				c3.9,3.9,3.9,10.2,0,14.1C1384.4,879.2,1381.8,880.1,1379.3,880.1z"/>
		</g>
		<g>
			<path class="st2" d="M1319.3,880.1c-2.6,0-5.1-1-7.1-2.9c-3.9-3.9-3.9-10.2,0-14.1l60-60c3.9-3.9,10.2-3.9,14.1,0
				c3.9,3.9,3.9,10.2,0,14.1l-60,60C1324.4,879.2,1321.8,880.1,1319.3,880.1z"/>
		</g>
		<g>
			<path class="st2" d="M1439.4,700.1c-2.6,0-5.1-1-7.1-2.9l-60-60c-3.9-3.9-3.9-10.2,0-14.1c3.9-3.9,10.2-3.9,14.1,0l60,60
				c3.9,3.9,3.9,10.2,0,14.1C1444.5,699.2,1441.9,700.1,1439.4,700.1z"/>
		</g>
		<g>
			<path class="st2" d="M1379.4,700.1c-2.6,0-5.1-1-7.1-2.9c-3.9-3.9-3.9-10.2,0-14.1l60-60c3.9-3.9,10.2-3.9,14.1,0
				c3.9,3.9,3.9,10.2,0,14.1l-60,60C1384.5,699.2,1381.9,700.1,1379.4,700.1z"/>
		</g>
		<g>
			<path class="st2" d="M1439.4,640.2c-2.6,0-5.1-1-7.1-2.9l-60-60c-3.9-3.9-3.9-10.2,0-14.1c3.9-3.9,10.2-3.9,14.1,0l60,60
				c3.9,3.9,3.9,10.2,0,14.1C1444.5,639.2,1441.9,640.2,1439.4,640.2z"/>
		</g>
		<g>
			<path class="st2" d="M1379.4,640.2c-2.6,0-5.1-1-7.1-2.9c-3.9-3.9-3.9-10.2,0-14.1l60-60c3.9-3.9,10.2-3.9,14.1,0
				c3.9,3.9,3.9,10.2,0,14.1l-60,60C1384.5,639.2,1381.9,640.2,1379.4,640.2z"/>
		</g>
		<g>
			<path class="st2" d="M1439.4,880.1c-2.6,0-5.1-1-7.1-2.9l-60-60c-3.9-3.9-3.9-10.2,0-14.1c3.9-3.9,10.2-3.9,14.1,0l60,60
				c3.9,3.9,3.9,10.2,0,14.1C1444.5,879.2,1441.9,880.1,1439.4,880.1z"/>
		</g>
		<g>
			<path class="st2" d="M1379.4,880.1c-2.6,0-5.1-1-7.1-2.9c-3.9-3.9-3.9-10.2,0-14.1l60-60c3.9-3.9,10.2-3.9,14.1,0
				c3.9,3.9,3.9,10.2,0,14.1l-60,60C1384.5,879.2,1381.9,880.1,1379.4,880.1z"/>
		</g>
		<g>
			<path class="st2" d="M1499.4,880.1c-2.6,0-5.1-1-7.1-2.9l-60-60c-3.9-3.9-3.9-10.2,0-14.1c3.9-3.9,10.2-3.9,14.1,0l60,60
				c3.9,3.9,3.9,10.2,0,14.1C1504.5,879.2,1501.9,880.1,1499.4,880.1z"/>
		</g>
		<g>
			<path class="st2" d="M1439.4,880.1c-2.6,0-5.1-1-7.1-2.9c-3.9-3.9-3.9-10.2,0-14.1l60-60c3.9-3.9,10.2-3.9,14.1,0
				c3.9,3.9,3.9,10.2,0,14.1l-60,60C1444.5,879.2,1441.9,880.1,1439.4,880.1z"/>
		</g>
		<g>
			<path class="st2" d="M1559.3,880.1c-2.6,0-5.1-1-7.1-2.9l-60-60c-3.9-3.9-3.9-10.2,0-14.1c3.9-3.9,10.2-3.9,14.1,0l60,60
				c3.9,3.9,3.9,10.2,0,14.1C1564.5,879.2,1561.9,880.1,1559.3,880.1z"/>
		</g>
		<g>
			<path class="st2" d="M1499.3,880.1c-2.6,0-5.1-1-7.1-2.9c-3.9-3.9-3.9-10.2,0-14.1l60-60c3.9-3.9,10.2-3.9,14.1,0
				c3.9,3.9,3.9,10.2,0,14.1l-60,60C1504.5,879.2,1501.9,880.1,1499.3,880.1z"/>
		</g>
		<g>
			<path class="st2" d="M1619.4,700.1c-2.6,0-5.1-1-7.1-2.9l-60-60c-3.9-3.9-3.9-10.2,0-14.1c3.9-3.9,10.2-3.9,14.1,0l60,60
				c3.9,3.9,3.9,10.2,0,14.1C1624.5,699.2,1621.9,700.1,1619.4,700.1z"/>
		</g>
		<g>
			<path class="st2" d="M1559.4,700.1c-2.6,0-5.1-1-7.1-2.9c-3.9-3.9-3.9-10.2,0-14.1l60-60c3.9-3.9,10.2-3.9,14.1,0
				c3.9,3.9,3.9,10.2,0,14.1l-60,60C1564.5,699.2,1561.9,700.1,1559.4,700.1z"/>
		</g>
		<g>
			<path class="st2" d="M1619.4,640.2c-2.6,0-5.1-1-7.1-2.9l-60-60c-3.9-3.9-3.9-10.2,0-14.1c3.9-3.9,10.2-3.9,14.1,0l60,60
				c3.9,3.9,3.9,10.2,0,14.1C1624.5,639.2,1621.9,640.2,1619.4,640.2z"/>
		</g>
		<g>
			<path class="st2" d="M1559.4,640.2c-2.6,0-5.1-1-7.1-2.9c-3.9-3.9-3.9-10.2,0-14.1l60-60c3.9-3.9,10.2-3.9,14.1,0
				c3.9,3.9,3.9,10.2,0,14.1l-60,60C1564.5,639.2,1561.9,640.2,1559.4,640.2z"/>
		</g>
		<g>
			<path class="st2" d="M1619.4,880.1c-2.6,0-5.1-1-7.1-2.9l-60-60c-3.9-3.9-3.9-10.2,0-14.1c3.9-3.9,10.2-3.9,14.1,0l60,60
				c3.9,3.9,3.9,10.2,0,14.1C1624.5,879.2,1621.9,880.1,1619.4,880.1z"/>
		</g>
		<g>
			<path class="st2" d="M1559.4,880.1c-2.6,0-5.1-1-7.1-2.9c-3.9-3.9-3.9-10.2,0-14.1l60-60c3.9-3.9,10.2-3.9,14.1,0
				c3.9,3.9,3.9,10.2,0,14.1l-60,60C1564.5,879.2,1561.9,880.1,1559.4,880.1z"/>
		</g>
		<g>
			<path class="st2" d="M1679.3,700.1c-2.6,0-5.1-1-7.1-2.9l-60-60c-3.9-3.9-3.9-10.2,0-14.1c3.9-3.9,10.2-3.9,14.1,0l60,60
				c3.9,3.9,3.9,10.2,0,14.1C1684.5,699.2,1681.9,700.1,1679.3,700.1z"/>
		</g>
		<g>
			<path class="st2" d="M1619.3,700.1c-2.6,0-5.1-1-7.1-2.9c-3.9-3.9-3.9-10.2,0-14.1l60-60c3.9-3.9,10.2-3.9,14.1,0
				c3.9,3.9,3.9,10.2,0,14.1l-60,60C1624.5,699.2,1621.9,700.1,1619.3,700.1z"/>
		</g>
		<g>
			<path class="st2" d="M1679.3,880.1c-2.6,0-5.1-1-7.1-2.9l-60-60c-3.9-3.9-3.9-10.2,0-14.1c3.9-3.9,10.2-3.9,14.1,0l60,60
				c3.9,3.9,3.9,10.2,0,14.1C1684.5,879.2,1681.9,880.1,1679.3,880.1z"/>
		</g>
		<g>
			<path class="st2" d="M1619.3,880.1c-2.6,0-5.1-1-7.1-2.9c-3.9-3.9-3.9-10.2,0-14.1l60-60c3.9-3.9,10.2-3.9,14.1,0
				c3.9,3.9,3.9,10.2,0,14.1l-60,60C1624.5,879.2,1621.9,880.1,1619.3,880.1z"/>
		</g>
		<g>
			<path class="st2" d="M1739.4,700.1c-2.6,0-5.1-1-7.1-2.9l-60-60c-3.9-3.9-3.9-10.2,0-14.1c3.9-3.9,10.2-3.9,14.1,0l60,60
				c3.9,3.9,3.9,10.2,0,14.1C1744.5,699.2,1741.9,700.1,1739.4,700.1z"/>
		</g>
		<g>
			<path class="st2" d="M1679.4,700.1c-2.6,0-5.1-1-7.1-2.9c-3.9-3.9-3.9-10.2,0-14.1l60-60c3.9-3.9,10.2-3.9,14.1,0
				c3.9,3.9,3.9,10.2,0,14.1l-60,60C1684.5,699.2,1681.9,700.1,1679.4,700.1z"/>
		</g>
		<g>
			<path class="st2" d="M1799.3,640.2c-2.6,0-5.1-1-7.1-2.9l-60-60c-3.9-3.9-3.9-10.2,0-14.1c3.9-3.9,10.2-3.9,14.1,0l60,60
				c3.9,3.9,3.9,10.2,0,14.1C1804.4,639.2,1801.9,640.2,1799.3,640.2z"/>
		</g>
		<g>
			<path class="st2" d="M1739.3,640.2c-2.6,0-5.1-1-7.1-2.9c-3.9-3.9-3.9-10.2,0-14.1l60-60c3.9-3.9,10.2-3.9,14.1,0
				c3.9,3.9,3.9,10.2,0,14.1l-60,60C1744.4,639.2,1741.9,640.2,1739.3,640.2z"/>
		</g>
		<g>
			<path class="st2" d="M1739.3,820.2c-2.6,0-5.1-1-7.1-2.9l-60-60c-3.9-3.9-3.9-10.2,0-14.1c3.9-3.9,10.2-3.9,14.1,0l60,60
				c3.9,3.9,3.9,10.2,0,14.1C1744.4,819.2,1741.9,820.2,1739.3,820.2z"/>
		</g>
		<g>
			<path class="st2" d="M1679.3,820.2c-2.6,0-5.1-1-7.1-2.9c-3.9-3.9-3.9-10.2,0-14.1l60-60c3.9-3.9,10.2-3.9,14.1,0
				c3.9,3.9,3.9,10.2,0,14.1l-60,60C1684.4,819.2,1681.9,820.2,1679.3,820.2z"/>
		</g>
	</g>
</g>
</svg>
