<?xml version="1.0" encoding="utf-8"?>
<!-- Generator: Adobe Illustrator 22.0.0, SVG Export Plug-In . SVG Version: 6.00 Build 0)  -->
<svg version="1.1" id="Camada_1" xmlns="http://www.w3.org/2000/svg" xmlns:xlink="http://www.w3.org/1999/xlink" x="0px" y="0px"
	 viewBox="0 0 2729.1 1020.4" style="enable-background:new 0 0 2729.1 1020.4;" xml:space="preserve">
<style type="text/css">
	.st0{enable-background:new    ;}
</style>
<g>
	<g>
		<path d="M210.1,340.2c-2.6,0-5.1-1-7.1-2.9l-60-60c-3.9-3.9-3.9-10.2,0-14.1s10.2-3.9,14.1,0l60,60c3.9,3.9,3.9,10.2,0,14.1
			C215.2,339.2,212.6,340.2,210.1,340.2z"/>
	</g>
	<g>
		<path d="M150.1,340.2c-2.6,0-5.1-1-7.1-2.9c-3.9-3.9-3.9-10.2,0-14.1l60-60c3.9-3.9,10.2-3.9,14.1,0c3.9,3.9,3.9,10.2,0,14.1
			l-60,60C155.2,339.2,152.6,340.2,150.1,340.2z"/>
	</g>
	<g>
		<path d="M210.1,460.2c-2.6,0-5.1-1-7.1-2.9l-60-60c-3.9-3.9-3.9-10.2,0-14.1s10.2-3.9,14.1,0l60,60c3.9,3.9,3.9,10.2,0,14.1
			C215.2,459.2,212.6,460.2,210.1,460.2z"/>
	</g>
	<g>
		<path d="M150.1,460.2c-2.6,0-5.1-1-7.1-2.9c-3.9-3.9-3.9-10.2,0-14.1l60-60c3.9-3.9,10.2-3.9,14.1,0c3.9,3.9,3.9,10.2,0,14.1
			l-60,60C155.2,459.2,152.6,460.2,150.1,460.2z"/>
	</g>
	<g>
		<path d="M210.1,400.2c-2.6,0-5.1-1-7.1-2.9l-60-60c-3.9-3.9-3.9-10.2,0-14.1s10.2-3.9,14.1,0l60,60c3.9,3.9,3.9,10.2,0,14.1
			C215.2,399.2,212.6,400.2,210.1,400.2z"/>
	</g>
	<g>
		<path d="M150.1,400.2c-2.6,0-5.1-1-7.1-2.9c-3.9-3.9-3.9-10.2,0-14.1l60-60c3.9-3.9,10.2-3.9,14.1,0c3.9,3.9,3.9,10.2,0,14.1
			l-60,60C155.2,399.2,152.6,400.2,150.1,400.2z"/>
	</g>
	<g>
		<path d="M210.1,580.2c-2.6,0-5.1-1-7.1-2.9l-60-60c-3.9-3.9-3.9-10.2,0-14.1s10.2-3.9,14.1,0l60,60c3.9,3.9,3.9,10.2,0,14.1
			C215.2,579.2,212.6,580.2,210.1,580.2z"/>
	</g>
	<g>
		<path d="M150.1,580.2c-2.6,0-5.1-1-7.1-2.9c-3.9-3.9-3.9-10.2,0-14.1l60-60c3.9-3.9,10.2-3.9,14.1,0c3.9,3.9,3.9,10.2,0,14.1
			l-60,60C155.2,579.2,152.6,580.2,150.1,580.2z"/>
	</g>
	<g>
		<path d="M210.1,520.2c-2.6,0-5.1-1-7.1-2.9l-60-60c-3.9-3.9-3.9-10.2,0-14.1s10.2-3.9,14.1,0l60,60c3.9,3.9,3.9,10.2,0,14.1
			C215.2,519.2,212.6,520.2,210.1,520.2z"/>
	</g>
	<g>
		<path d="M150.1,520.2c-2.6,0-5.1-1-7.1-2.9c-3.9-3.9-3.9-10.2,0-14.1l60-60c3.9-3.9,10.2-3.9,14.1,0c3.9,3.9,3.9,10.2,0,14.1
			l-60,60C155.2,519.2,152.6,520.2,150.1,520.2z"/>
	</g>
	<g>
		<path d="M270.1,340.2c-2.6,0-5.1-1-7.1-2.9l-60-60c-3.9-3.9-3.9-10.2,0-14.1s10.2-3.9,14.1,0l60,60c3.9,3.9,3.9,10.2,0,14.1
			C275.2,339.2,272.6,340.2,270.1,340.2z"/>
	</g>
	<g>
		<path d="M210.1,340.2c-2.6,0-5.1-1-7.1-2.9c-3.9-3.9-3.9-10.2,0-14.1l60-60c3.9-3.9,10.2-3.9,14.1,0s3.9,10.2,0,14.1l-60,60
			C215.2,339.2,212.6,340.2,210.1,340.2z"/>
	</g>
	<g>
		<path d="M270.1,460.2c-2.6,0-5.1-1-7.1-2.9l-60-60c-3.9-3.9-3.9-10.2,0-14.1s10.2-3.9,14.1,0l60,60c3.9,3.9,3.9,10.2,0,14.1
			C275.2,459.2,272.6,460.2,270.1,460.2z"/>
	</g>
	<g>
		<path d="M210.1,460.2c-2.6,0-5.1-1-7.1-2.9c-3.9-3.9-3.9-10.2,0-14.1l60-60c3.9-3.9,10.2-3.9,14.1,0s3.9,10.2,0,14.1l-60,60
			C215.2,459.2,212.6,460.2,210.1,460.2z"/>
	</g>
	<g>
		<path d="M270.1,400.2c-2.6,0-5.1-1-7.1-2.9l-60-60c-3.9-3.9-3.9-10.2,0-14.1s10.2-3.9,14.1,0l60,60c3.9,3.9,3.9,10.2,0,14.1
			C275.2,399.2,272.6,400.2,270.1,400.2z"/>
	</g>
	<g>
		<path d="M210.1,400.2c-2.6,0-5.1-1-7.1-2.9c-3.9-3.9-3.9-10.2,0-14.1l60-60c3.9-3.9,10.2-3.9,14.1,0s3.9,10.2,0,14.1l-60,60
			C215.2,399.2,212.6,400.2,210.1,400.2z"/>
	</g>
	<g>
		<path d="M270.1,580.2c-2.6,0-5.1-1-7.1-2.9l-60-60c-3.9-3.9-3.9-10.2,0-14.1s10.2-3.9,14.1,0l60,60c3.9,3.9,3.9,10.2,0,14.1
			C275.2,579.2,272.6,580.2,270.1,580.2z"/>
	</g>
	<g>
		<path d="M210.1,580.2c-2.6,0-5.1-1-7.1-2.9c-3.9-3.9-3.9-10.2,0-14.1l60-60c3.9-3.9,10.2-3.9,14.1,0s3.9,10.2,0,14.1l-60,60
			C215.2,579.2,212.6,580.2,210.1,580.2z"/>
	</g>
	<g>
		<path d="M270.1,520.2c-2.6,0-5.1-1-7.1-2.9l-60-60c-3.9-3.9-3.9-10.2,0-14.1s10.2-3.9,14.1,0l60,60c3.9,3.9,3.9,10.2,0,14.1
			C275.2,519.2,272.7,520.2,270.1,520.2z"/>
	</g>
	<g>
		<path d="M210.1,520.2c-2.6,0-5.1-1-7.1-2.9c-3.9-3.9-3.9-10.2,0-14.1l60-60c3.9-3.9,10.2-3.9,14.1,0s3.9,10.2,0,14.1l-60,60
			C215.2,519.2,212.7,520.2,210.1,520.2z"/>
	</g>
	<g>
		<path d="M390.1,580.2c-2.6,0-5.1-1-7.1-2.9l-60-60c-3.9-3.9-3.9-10.2,0-14.1s10.2-3.9,14.1,0l60,60c3.9,3.9,3.9,10.2,0,14.1
			C395.2,579.2,392.6,580.2,390.1,580.2z"/>
	</g>
	<g>
		<path d="M330.1,580.2c-2.6,0-5.1-1-7.1-2.9c-3.9-3.9-3.9-10.2,0-14.1l60-60c3.9-3.9,10.2-3.9,14.1,0s3.9,10.2,0,14.1l-60,60
			C335.2,579.2,332.6,580.2,330.1,580.2z"/>
	</g>
	<g>
		<path d="M390.1,520.2c-2.6,0-5.1-1-7.1-2.9l-60-60c-3.9-3.9-3.9-10.2,0-14.1s10.2-3.9,14.1,0l60,60c3.9,3.9,3.9,10.2,0,14.1
			C395.2,519.2,392.6,520.2,390.1,520.2z"/>
	</g>
	<g>
		<path d="M330.1,520.2c-2.6,0-5.1-1-7.1-2.9c-3.9-3.9-3.9-10.2,0-14.1l60-60c3.9-3.9,10.2-3.9,14.1,0s3.9,10.2,0,14.1l-60,60
			C335.2,519.2,332.6,520.2,330.1,520.2z"/>
	</g>
	<g>
		<path d="M450.1,340.2c-2.6,0-5.1-1-7.1-2.9l-60-60c-3.9-3.9-3.9-10.2,0-14.1s10.2-3.9,14.1,0l60,60c3.9,3.9,3.9,10.2,0,14.1
			C455.2,339.2,452.6,340.2,450.1,340.2z"/>
	</g>
	<g>
		<path d="M390.1,340.2c-2.6,0-5.1-1-7.1-2.9c-3.9-3.9-3.9-10.2,0-14.1l60-60c3.9-3.9,10.2-3.9,14.1,0s3.9,10.2,0,14.1l-60,60
			C395.2,339.2,392.6,340.2,390.1,340.2z"/>
	</g>
	<g>
		<path d="M450.1,460.2c-2.6,0-5.1-1-7.1-2.9l-60-60c-3.9-3.9-3.9-10.2,0-14.1s10.2-3.9,14.1,0l60,60c3.9,3.9,3.9,10.2,0,14.1
			C455.2,459.2,452.6,460.2,450.1,460.2z"/>
	</g>
	<g>
		<path d="M390.1,460.2c-2.6,0-5.1-1-7.1-2.9c-3.9-3.9-3.9-10.2,0-14.1l60-60c3.9-3.9,10.2-3.9,14.1,0s3.9,10.2,0,14.1l-60,60
			C395.2,459.2,392.6,460.2,390.1,460.2z"/>
	</g>
	<g>
		<path d="M450.1,400.2c-2.6,0-5.1-1-7.1-2.9l-60-60c-3.9-3.9-3.9-10.2,0-14.1s10.2-3.9,14.1,0l60,60c3.9,3.9,3.9,10.2,0,14.1
			C455.2,399.2,452.6,400.2,450.1,400.2z"/>
	</g>
	<g>
		<path d="M390.1,400.2c-2.6,0-5.1-1-7.1-2.9c-3.9-3.9-3.9-10.2,0-14.1l60-60c3.9-3.9,10.2-3.9,14.1,0s3.9,10.2,0,14.1l-60,60
			C395.2,399.2,392.6,400.2,390.1,400.2z"/>
	</g>
	<g>
		<path d="M450.1,580.2c-2.6,0-5.1-1-7.1-2.9l-60-60c-3.9-3.9-3.9-10.2,0-14.1s10.2-3.9,14.1,0l60,60c3.9,3.9,3.9,10.2,0,14.1
			C455.2,579.2,452.6,580.2,450.1,580.2z"/>
	</g>
	<g>
		<path d="M390.1,580.2c-2.6,0-5.1-1-7.1-2.9c-3.9-3.9-3.9-10.2,0-14.1l60-60c3.9-3.9,10.2-3.9,14.1,0s3.9,10.2,0,14.1l-60,60
			C395.2,579.2,392.6,580.2,390.1,580.2z"/>
	</g>
	<g>
		<path d="M450.1,520.2c-2.6,0-5.1-1-7.1-2.9l-60-60c-3.9-3.9-3.9-10.2,0-14.1s10.2-3.9,14.1,0l60,60c3.9,3.9,3.9,10.2,0,14.1
			C455.2,519.2,452.6,520.2,450.1,520.2z"/>
	</g>
	<g>
		<path d="M390.1,520.2c-2.6,0-5.1-1-7.1-2.9c-3.9-3.9-3.9-10.2,0-14.1l60-60c3.9-3.9,10.2-3.9,14.1,0s3.9,10.2,0,14.1l-60,60
			C395.2,519.2,392.6,520.2,390.1,520.2z"/>
	</g>
	<g>
		<path d="M599.8,340.2c-2.6,0-5.1-1-7.1-2.9l-60-60c-3.9-3.9-3.9-10.2,0-14.1s10.2-3.9,14.1,0l60,60c3.9,3.9,3.9,10.2,0,14.1
			C604.9,339.2,602.3,340.2,599.8,340.2z"/>
	</g>
	<g>
		<path d="M539.8,340.2c-2.6,0-5.1-1-7.1-2.9c-3.9-3.9-3.9-10.2,0-14.1l60-60c3.9-3.9,10.2-3.9,14.1,0c3.9,3.9,3.9,10.2,0,14.1
			l-60,60C544.9,339.2,542.3,340.2,539.8,340.2z"/>
	</g>
	<g>
		<path d="M599.8,580.2c-2.6,0-5.1-1-7.1-2.9l-60-60c-3.9-3.9-3.9-10.2,0-14.1s10.2-3.9,14.1,0l60,60c3.9,3.9,3.9,10.2,0,14.1
			C604.9,579.2,602.3,580.2,599.8,580.2z"/>
	</g>
	<g>
		<path d="M539.8,580.2c-2.6,0-5.1-1-7.1-2.9c-3.9-3.9-3.9-10.2,0-14.1l60-60c3.9-3.9,10.2-3.9,14.1,0c3.9,3.9,3.9,10.2,0,14.1
			l-60,60C544.9,579.2,542.3,580.2,539.8,580.2z"/>
	</g>
	<g>
		<path d="M659.8,340.2c-2.6,0-5.1-1-7.1-2.9l-60-60c-3.9-3.9-3.9-10.2,0-14.1s10.2-3.9,14.1,0l60,60c3.9,3.9,3.9,10.2,0,14.1
			C664.9,339.2,662.4,340.2,659.8,340.2z"/>
	</g>
	<g>
		<path d="M599.8,340.2c-2.6,0-5.1-1-7.1-2.9c-3.9-3.9-3.9-10.2,0-14.1l60-60c3.9-3.9,10.2-3.9,14.1,0c3.9,3.9,3.9,10.2,0,14.1
			l-60,60C604.9,339.2,602.4,340.2,599.8,340.2z"/>
	</g>
	<g>
		<path d="M659.8,460.2c-2.6,0-5.1-1-7.1-2.9l-60-60c-3.9-3.9-3.9-10.2,0-14.1s10.2-3.9,14.1,0l60,60c3.9,3.9,3.9,10.2,0,14.1
			C664.9,459.2,662.4,460.2,659.8,460.2z"/>
	</g>
	<g>
		<path d="M599.8,460.2c-2.6,0-5.1-1-7.1-2.9c-3.9-3.9-3.9-10.2,0-14.1l60-60c3.9-3.9,10.2-3.9,14.1,0c3.9,3.9,3.9,10.2,0,14.1
			l-60,60C604.9,459.2,602.4,460.2,599.8,460.2z"/>
	</g>
	<g>
		<path d="M659.8,400.2c-2.6,0-5.1-1-7.1-2.9l-60-60c-3.9-3.9-3.9-10.2,0-14.1s10.2-3.9,14.1,0l60,60c3.9,3.9,3.9,10.2,0,14.1
			C664.9,399.2,662.4,400.2,659.8,400.2z"/>
	</g>
	<g>
		<path d="M599.8,400.2c-2.6,0-5.1-1-7.1-2.9c-3.9-3.9-3.9-10.2,0-14.1l60-60c3.9-3.9,10.2-3.9,14.1,0c3.9,3.9,3.9,10.2,0,14.1
			l-60,60C604.9,399.2,602.4,400.2,599.8,400.2z"/>
	</g>
	<g>
		<path d="M659.8,580.2c-2.6,0-5.1-1-7.1-2.9l-60-60c-3.9-3.9-3.9-10.2,0-14.1s10.2-3.9,14.1,0l60,60c3.9,3.9,3.9,10.2,0,14.1
			C664.9,579.2,662.4,580.2,659.8,580.2z"/>
	</g>
	<g>
		<path d="M599.8,580.2c-2.6,0-5.1-1-7.1-2.9c-3.9-3.9-3.9-10.2,0-14.1l60-60c3.9-3.9,10.2-3.9,14.1,0c3.9,3.9,3.9,10.2,0,14.1
			l-60,60C604.9,579.2,602.4,580.2,599.8,580.2z"/>
	</g>
	<g>
		<path d="M659.8,520.2c-2.6,0-5.1-1-7.1-2.9l-60-60c-3.9-3.9-3.9-10.2,0-14.1s10.2-3.9,14.1,0l60,60c3.9,3.9,3.9,10.2,0,14.1
			C664.9,519.2,662.4,520.2,659.8,520.2z"/>
	</g>
	<g>
		<path d="M599.8,520.2c-2.6,0-5.1-1-7.1-2.9c-3.9-3.9-3.9-10.2,0-14.1l60-60c3.9-3.9,10.2-3.9,14.1,0c3.9,3.9,3.9,10.2,0,14.1
			l-60,60C604.9,519.2,602.4,520.2,599.8,520.2z"/>
	</g>
	<g>
		<path d="M2339,460.2c-2.6,0-5.1-1-7.1-2.9l-60-60c-3.9-3.9-3.9-10.2,0-14.1s10.2-3.9,14.1,0l60,60c3.9,3.9,3.9,10.2,0,14.1
			C2344.1,459.2,2341.5,460.2,2339,460.2z"/>
	</g>
	<g>
		<path d="M2279,460.2c-2.6,0-5.1-1-7.1-2.9c-3.9-3.9-3.9-10.2,0-14.1l60-60c3.9-3.9,10.2-3.9,14.1,0c3.9,3.9,3.9,10.2,0,14.1
			l-60,60C2284.1,459.2,2281.5,460.2,2279,460.2z"/>
	</g>
	<g>
		<path d="M2339,400.2c-2.6,0-5.1-1-7.1-2.9l-60-60c-3.9-3.9-3.9-10.2,0-14.1s10.2-3.9,14.1,0l60,60c3.9,3.9,3.9,10.2,0,14.1
			C2344.1,399.2,2341.5,400.2,2339,400.2z"/>
	</g>
	<g>
		<path d="M2279,400.2c-2.6,0-5.1-1-7.1-2.9c-3.9-3.9-3.9-10.2,0-14.1l60-60c3.9-3.9,10.2-3.9,14.1,0c3.9,3.9,3.9,10.2,0,14.1
			l-60,60C2284.1,399.2,2281.5,400.2,2279,400.2z"/>
	</g>
	<g>
		<path d="M2339,580.2c-2.6,0-5.1-1-7.1-2.9l-60-60c-3.9-3.9-3.9-10.2,0-14.1s10.2-3.9,14.1,0l60,60c3.9,3.9,3.9,10.2,0,14.1
			C2344.1,579.2,2341.5,580.2,2339,580.2z"/>
	</g>
	<g>
		<path d="M2279,580.2c-2.6,0-5.1-1-7.1-2.9c-3.9-3.9-3.9-10.2,0-14.1l60-60c3.9-3.9,10.2-3.9,14.1,0c3.9,3.9,3.9,10.2,0,14.1
			l-60,60C2284.1,579.2,2281.5,580.2,2279,580.2z"/>
	</g>
	<g>
		<path d="M2339,520.2c-2.6,0-5.1-1-7.1-2.9l-60-60c-3.9-3.9-3.9-10.2,0-14.1s10.2-3.9,14.1,0l60,60c3.9,3.9,3.9,10.2,0,14.1
			C2344.1,519.3,2341.6,520.2,2339,520.2z"/>
	</g>
	<g>
		<path d="M2279,520.2c-2.6,0-5.1-1-7.1-2.9c-3.9-3.9-3.9-10.2,0-14.1l60-60c3.9-3.9,10.2-3.9,14.1,0c3.9,3.9,3.9,10.2,0,14.1
			l-60,60C2284.1,519.3,2281.6,520.2,2279,520.2z"/>
	</g>
	<g>
		<path d="M2399,340.3c-2.6,0-5.1-1-7.1-2.9l-60-60c-3.9-3.9-3.9-10.2,0-14.1s10.2-3.9,14.1,0l60,60c3.9,3.9,3.9,10.2,0,14.1
			C2404.1,339.3,2401.5,340.3,2399,340.3z"/>
	</g>
	<g>
		<path d="M2339,340.3c-2.6,0-5.1-1-7.1-2.9c-3.9-3.9-3.9-10.2,0-14.1l60-60c3.9-3.9,10.2-3.9,14.1,0c3.9,3.9,3.9,10.2,0,14.1
			l-60,60C2344.1,339.3,2341.5,340.3,2339,340.3z"/>
	</g>
	<g>
		<path d="M2399,460.2c-2.6,0-5.1-1-7.1-2.9l-60-60c-3.9-3.9-3.9-10.2,0-14.1s10.2-3.9,14.1,0l60,60c3.9,3.9,3.9,10.2,0,14.1
			C2404.1,459.2,2401.5,460.2,2399,460.2z"/>
	</g>
	<g>
		<path d="M2339,460.2c-2.6,0-5.1-1-7.1-2.9c-3.9-3.9-3.9-10.2,0-14.1l60-60c3.9-3.9,10.2-3.9,14.1,0c3.9,3.9,3.9,10.2,0,14.1
			l-60,60C2344.1,459.2,2341.5,460.2,2339,460.2z"/>
	</g>
	<g>
		<path d="M2399,400.2c-2.6,0-5.1-1-7.1-2.9l-60-60c-3.9-3.9-3.9-10.2,0-14.1s10.2-3.9,14.1,0l60,60c3.9,3.9,3.9,10.2,0,14.1
			C2404.1,399.2,2401.5,400.2,2399,400.2z"/>
	</g>
	<g>
		<path d="M2339,400.2c-2.6,0-5.1-1-7.1-2.9c-3.9-3.9-3.9-10.2,0-14.1l60-60c3.9-3.9,10.2-3.9,14.1,0c3.9,3.9,3.9,10.2,0,14.1
			l-60,60C2344.1,399.2,2341.5,400.2,2339,400.2z"/>
	</g>
	<g>
		<path d="M2399,580.2c-2.6,0-5.1-1-7.1-2.9l-60-60c-3.9-3.9-3.9-10.2,0-14.1s10.2-3.9,14.1,0l60,60c3.9,3.9,3.9,10.2,0,14.1
			C2404.1,579.2,2401.5,580.2,2399,580.2z"/>
	</g>
	<g>
		<path d="M2339,580.2c-2.6,0-5.1-1-7.1-2.9c-3.9-3.9-3.9-10.2,0-14.1l60-60c3.9-3.9,10.2-3.9,14.1,0c3.9,3.9,3.9,10.2,0,14.1
			l-60,60C2344.1,579.2,2341.5,580.2,2339,580.2z"/>
	</g>
	<g>
		<path d="M2399,520.2c-2.6,0-5.1-1-7.1-2.9l-60-60c-3.9-3.9-3.9-10.2,0-14.1s10.2-3.9,14.1,0l60,60c3.9,3.9,3.9,10.2,0,14.1
			C2404.1,519.3,2401.5,520.2,2399,520.2z"/>
	</g>
	<g>
		<path d="M2339,520.2c-2.6,0-5.1-1-7.1-2.9c-3.9-3.9-3.9-10.2,0-14.1l60-60c3.9-3.9,10.2-3.9,14.1,0c3.9,3.9,3.9,10.2,0,14.1
			l-60,60C2344.1,519.3,2341.5,520.2,2339,520.2z"/>
	</g>
	<g>
		<path d="M2459,340.3c-2.6,0-5.1-1-7.1-2.9l-60-60c-3.9-3.9-3.9-10.2,0-14.1s10.2-3.9,14.1,0l60,60c3.9,3.9,3.9,10.2,0,14.1
			C2464.1,339.3,2461.5,340.3,2459,340.3z"/>
	</g>
	<g>
		<path d="M2399,340.3c-2.6,0-5.1-1-7.1-2.9c-3.9-3.9-3.9-10.2,0-14.1l60-60c3.9-3.9,10.2-3.9,14.1,0c3.9,3.9,3.9,10.2,0,14.1
			l-60,60C2404.1,339.3,2401.5,340.3,2399,340.3z"/>
	</g>
	<g>
		<path d="M2518.9,340.3c-2.6,0-5.1-1-7.1-2.9l-60-60c-3.9-3.9-3.9-10.2,0-14.1s10.2-3.9,14.1,0l60,60c3.9,3.9,3.9,10.2,0,14.1
			C2524.1,339.3,2521.5,340.3,2518.9,340.3z"/>
	</g>
	<g>
		<path d="M2458.9,340.3c-2.6,0-5.1-1-7.1-2.9c-3.9-3.9-3.9-10.2,0-14.1l60-60c3.9-3.9,10.2-3.9,14.1,0c3.9,3.9,3.9,10.2,0,14.1
			l-60,60C2464.1,339.3,2461.5,340.3,2458.9,340.3z"/>
	</g>
	<g>
		<path d="M2518.9,280.2c-2.6,0-5.1-1-7.1-2.9l-60-60c-3.9-3.9-3.9-10.2,0-14.1c3.9-3.9,10.2-3.9,14.1,0l60,60
			c3.9,3.9,3.9,10.2,0,14.1C2524.1,279.3,2521.5,280.2,2518.9,280.2z"/>
	</g>
	<g>
		<path d="M2458.9,280.2c-2.6,0-5.1-1-7.1-2.9c-3.9-3.9-3.9-10.2,0-14.1l60-60c3.9-3.9,10.2-3.9,14.1,0c3.9,3.9,3.9,10.2,0,14.1
			l-60,60C2464.1,279.3,2461.5,280.2,2458.9,280.2z"/>
	</g>
	<g>
		<path d="M2518.9,580.2c-2.6,0-5.1-1-7.1-2.9l-60-60c-3.9-3.9-3.9-10.2,0-14.1s10.2-3.9,14.1,0l60,60c3.9,3.9,3.9,10.2,0,14.1
			C2524.1,579.2,2521.5,580.2,2518.9,580.2z"/>
	</g>
	<g>
		<path d="M2458.9,580.2c-2.6,0-5.1-1-7.1-2.9c-3.9-3.9-3.9-10.2,0-14.1l60-60c3.9-3.9,10.2-3.9,14.1,0c3.9,3.9,3.9,10.2,0,14.1
			l-60,60C2464.1,579.2,2461.5,580.2,2458.9,580.2z"/>
	</g>
	<g>
		<path d="M2579,280.2c-2.6,0-5.1-1-7.1-2.9l-60-60c-3.9-3.9-3.9-10.2,0-14.1c3.9-3.9,10.2-3.9,14.1,0l60,60
			c3.9,3.9,3.9,10.2,0,14.1C2584.1,279.3,2581.5,280.2,2579,280.2z"/>
	</g>
	<g>
		<path d="M2519,280.2c-2.6,0-5.1-1-7.1-2.9c-3.9-3.9-3.9-10.2,0-14.1l60-60c3.9-3.9,10.2-3.9,14.1,0c3.9,3.9,3.9,10.2,0,14.1
			l-60,60C2524.1,279.3,2521.5,280.2,2519,280.2z"/>
	</g>
	<g>
		<path d="M2579,460.2c-2.6,0-5.1-1-7.1-2.9l-60-60c-3.9-3.9-3.9-10.2,0-14.1s10.2-3.9,14.1,0l60,60c3.9,3.9,3.9,10.2,0,14.1
			C2584.1,459.2,2581.5,460.2,2579,460.2z"/>
	</g>
	<g>
		<path d="M2519,460.2c-2.6,0-5.1-1-7.1-2.9c-3.9-3.9-3.9-10.2,0-14.1l60-60c3.9-3.9,10.2-3.9,14.1,0c3.9,3.9,3.9,10.2,0,14.1
			l-60,60C2524.1,459.2,2521.5,460.2,2519,460.2z"/>
	</g>
	<g>
		<path d="M2579,400.2c-2.6,0-5.1-1-7.1-2.9l-60-60c-3.9-3.9-3.9-10.2,0-14.1s10.2-3.9,14.1,0l60,60c3.9,3.9,3.9,10.2,0,14.1
			C2584.1,399.2,2581.5,400.2,2579,400.2z"/>
	</g>
	<g>
		<path d="M2519,400.2c-2.6,0-5.1-1-7.1-2.9c-3.9-3.9-3.9-10.2,0-14.1l60-60c3.9-3.9,10.2-3.9,14.1,0c3.9,3.9,3.9,10.2,0,14.1
			l-60,60C2524.1,399.2,2521.5,400.2,2519,400.2z"/>
	</g>
	<g>
		<path d="M2579,580.2c-2.6,0-5.1-1-7.1-2.9l-60-60c-3.9-3.9-3.9-10.2,0-14.1s10.2-3.9,14.1,0l60,60c3.9,3.9,3.9,10.2,0,14.1
			C2584.1,579.2,2581.5,580.2,2579,580.2z"/>
	</g>
	<g>
		<path d="M2519,580.2c-2.6,0-5.1-1-7.1-2.9c-3.9-3.9-3.9-10.2,0-14.1l60-60c3.9-3.9,10.2-3.9,14.1,0c3.9,3.9,3.9,10.2,0,14.1
			l-60,60C2524.1,579.2,2521.5,580.2,2519,580.2z"/>
	</g>
	<g>
		<path d="M2579,520.2c-2.6,0-5.1-1-7.1-2.9l-60-60c-3.9-3.9-3.9-10.2,0-14.1s10.2-3.9,14.1,0l60,60c3.9,3.9,3.9,10.2,0,14.1
			C2584.1,519.3,2581.5,520.2,2579,520.2z"/>
	</g>
	<g>
		<path d="M2519,520.2c-2.6,0-5.1-1-7.1-2.9c-3.9-3.9-3.9-10.2,0-14.1l60-60c3.9-3.9,10.2-3.9,14.1,0c3.9,3.9,3.9,10.2,0,14.1
			l-60,60C2524.1,519.3,2521.5,520.2,2519,520.2z"/>
	</g>
	<g>
		<path d="M270.1,640.1c-2.6,0-5.1-1-7.1-2.9l-60-60c-3.9-3.9-3.9-10.2,0-14.1c3.9-3.9,10.2-3.9,14.1,0l60,60
			c3.9,3.9,3.9,10.2,0,14.1C275.2,639.2,272.6,640.1,270.1,640.1z"/>
	</g>
	<g>
		<path d="M210.1,640.1c-2.6,0-5.1-1-7.1-2.9c-3.9-3.9-3.9-10.2,0-14.1l60-60c3.9-3.9,10.2-3.9,14.1,0s3.9,10.2,0,14.1l-60,60
			C215.2,639.2,212.6,640.1,210.1,640.1z"/>
	</g>
	<g>
		<path d="M330.1,700.1c-2.6,0-5.1-1-7.1-2.9l-60-60c-3.9-3.9-3.9-10.2,0-14.1c3.9-3.9,10.2-3.9,14.1,0l60,60
			c3.9,3.9,3.9,10.2,0,14.1C335.2,699.2,332.6,700.1,330.1,700.1z"/>
	</g>
	<g>
		<path d="M270.1,700.1c-2.6,0-5.1-1-7.1-2.9c-3.9-3.9-3.9-10.2,0-14.1l60-60c3.9-3.9,10.2-3.9,14.1,0s3.9,10.2,0,14.1l-60,60
			C275.2,699.2,272.6,700.1,270.1,700.1z"/>
	</g>
	<g>
		<path d="M330.1,640.1c-2.6,0-5.1-1-7.1-2.9l-60-60c-3.9-3.9-3.9-10.2,0-14.1c3.9-3.9,10.2-3.9,14.1,0l60,60
			c3.9,3.9,3.9,10.2,0,14.1C335.2,639.2,332.6,640.1,330.1,640.1z"/>
	</g>
	<g>
		<path d="M270.1,640.1c-2.6,0-5.1-1-7.1-2.9c-3.9-3.9-3.9-10.2,0-14.1l60-60c3.9-3.9,10.2-3.9,14.1,0s3.9,10.2,0,14.1l-60,60
			C275.2,639.2,272.6,640.1,270.1,640.1z"/>
	</g>
	<g>
		<path d="M390.1,640.1c-2.6,0-5.1-1-7.1-2.9l-60-60c-3.9-3.9-3.9-10.2,0-14.1c3.9-3.9,10.2-3.9,14.1,0l60,60
			c3.9,3.9,3.9,10.2,0,14.1C395.2,639.2,392.6,640.1,390.1,640.1z"/>
	</g>
	<g>
		<path d="M330.1,640.1c-2.6,0-5.1-1-7.1-2.9c-3.9-3.9-3.9-10.2,0-14.1l60-60c3.9-3.9,10.2-3.9,14.1,0s3.9,10.2,0,14.1l-60,60
			C335.2,639.2,332.6,640.1,330.1,640.1z"/>
	</g>
	<g>
		<path d="M809.6,340.2c-2.6,0-5.1-1-7.1-2.9l-60-60c-3.9-3.9-3.9-10.2,0-14.1s10.2-3.9,14.1,0l60,60c3.9,3.9,3.9,10.2,0,14.1
			C814.7,339.2,812.1,340.2,809.6,340.2z"/>
	</g>
	<g>
		<path d="M749.6,340.2c-2.6,0-5.1-1-7.1-2.9c-3.9-3.9-3.9-10.2,0-14.1l60-60c3.9-3.9,10.2-3.9,14.1,0c3.9,3.9,3.9,10.2,0,14.1
			l-60,60C754.7,339.2,752.1,340.2,749.6,340.2z"/>
	</g>
	<g>
		<path d="M809.6,460.2c-2.6,0-5.1-1-7.1-2.9l-60-60c-3.9-3.9-3.9-10.2,0-14.1s10.2-3.9,14.1,0l60,60c3.9,3.9,3.9,10.2,0,14.1
			C814.7,459.2,812.1,460.2,809.6,460.2z"/>
	</g>
	<g>
		<path d="M749.6,460.2c-2.6,0-5.1-1-7.1-2.9c-3.9-3.9-3.9-10.2,0-14.1l60-60c3.9-3.9,10.2-3.9,14.1,0c3.9,3.9,3.9,10.2,0,14.1
			l-60,60C754.7,459.2,752.1,460.2,749.6,460.2z"/>
	</g>
	<g>
		<path d="M809.6,400.2c-2.6,0-5.1-1-7.1-2.9l-60-60c-3.9-3.9-3.9-10.2,0-14.1s10.2-3.9,14.1,0l60,60c3.9,3.9,3.9,10.2,0,14.1
			C814.7,399.2,812.1,400.2,809.6,400.2z"/>
	</g>
	<g>
		<path d="M749.6,400.2c-2.6,0-5.1-1-7.1-2.9c-3.9-3.9-3.9-10.2,0-14.1l60-60c3.9-3.9,10.2-3.9,14.1,0c3.9,3.9,3.9,10.2,0,14.1
			l-60,60C754.7,399.2,752.1,400.2,749.6,400.2z"/>
	</g>
	<g>
		<path d="M809.6,580.2c-2.6,0-5.1-1-7.1-2.9l-60-60c-3.9-3.9-3.9-10.2,0-14.1s10.2-3.9,14.1,0l60,60c3.9,3.9,3.9,10.2,0,14.1
			C814.7,579.2,812.1,580.2,809.6,580.2z"/>
	</g>
	<g>
		<path d="M749.6,580.2c-2.6,0-5.1-1-7.1-2.9c-3.9-3.9-3.9-10.2,0-14.1l60-60c3.9-3.9,10.2-3.9,14.1,0c3.9,3.9,3.9,10.2,0,14.1
			l-60,60C754.7,579.2,752.1,580.2,749.6,580.2z"/>
	</g>
	<g>
		<path d="M809.6,520.2c-2.6,0-5.1-1-7.1-2.9l-60-60c-3.9-3.9-3.9-10.2,0-14.1s10.2-3.9,14.1,0l60,60c3.9,3.9,3.9,10.2,0,14.1
			C814.7,519.2,812.1,520.2,809.6,520.2z"/>
	</g>
	<g>
		<path d="M749.6,520.2c-2.6,0-5.1-1-7.1-2.9c-3.9-3.9-3.9-10.2,0-14.1l60-60c3.9-3.9,10.2-3.9,14.1,0c3.9,3.9,3.9,10.2,0,14.1
			l-60,60C754.7,519.2,752.1,520.2,749.6,520.2z"/>
	</g>
	<g>
		<path d="M869.6,340.2c-2.6,0-5.1-1-7.1-2.9l-60-60c-3.9-3.9-3.9-10.2,0-14.1s10.2-3.9,14.1,0l60,60c3.9,3.9,3.9,10.2,0,14.1
			C874.7,339.2,872.1,340.2,869.6,340.2z"/>
	</g>
	<g>
		<path d="M809.6,340.2c-2.6,0-5.1-1-7.1-2.9c-3.9-3.9-3.9-10.2,0-14.1l60-60c3.9-3.9,10.2-3.9,14.1,0c3.9,3.9,3.9,10.2,0,14.1
			l-60,60C814.7,339.2,812.1,340.2,809.6,340.2z"/>
	</g>
	<g>
		<path d="M869.6,460.2c-2.6,0-5.1-1-7.1-2.9l-60-60c-3.9-3.9-3.9-10.2,0-14.1s10.2-3.9,14.1,0l60,60c3.9,3.9,3.9,10.2,0,14.1
			C874.7,459.2,872.1,460.2,869.6,460.2z"/>
	</g>
	<g>
		<path d="M809.6,460.2c-2.6,0-5.1-1-7.1-2.9c-3.9-3.9-3.9-10.2,0-14.1l60-60c3.9-3.9,10.2-3.9,14.1,0c3.9,3.9,3.9,10.2,0,14.1
			l-60,60C814.7,459.2,812.1,460.2,809.6,460.2z"/>
	</g>
	<g>
		<path d="M869.6,400.2c-2.6,0-5.1-1-7.1-2.9l-60-60c-3.9-3.9-3.9-10.2,0-14.1s10.2-3.9,14.1,0l60,60c3.9,3.9,3.9,10.2,0,14.1
			C874.7,399.2,872.1,400.2,869.6,400.2z"/>
	</g>
	<g>
		<path d="M809.6,400.2c-2.6,0-5.1-1-7.1-2.9c-3.9-3.9-3.9-10.2,0-14.1l60-60c3.9-3.9,10.2-3.9,14.1,0c3.9,3.9,3.9,10.2,0,14.1
			l-60,60C814.7,399.2,812.1,400.2,809.6,400.2z"/>
	</g>
	<g>
		<path d="M869.6,580.2c-2.6,0-5.1-1-7.1-2.9l-60-60c-3.9-3.9-3.9-10.2,0-14.1s10.2-3.9,14.1,0l60,60c3.9,3.9,3.9,10.2,0,14.1
			C874.7,579.2,872.1,580.2,869.6,580.2z"/>
	</g>
	<g>
		<path d="M809.6,580.2c-2.6,0-5.1-1-7.1-2.9c-3.9-3.9-3.9-10.2,0-14.1l60-60c3.9-3.9,10.2-3.9,14.1,0c3.9,3.9,3.9,10.2,0,14.1
			l-60,60C814.7,579.2,812.1,580.2,809.6,580.2z"/>
	</g>
	<g>
		<path d="M869.6,520.2c-2.6,0-5.1-1-7.1-2.9l-60-60c-3.9-3.9-3.9-10.2,0-14.1s10.2-3.9,14.1,0l60,60c3.9,3.9,3.9,10.2,0,14.1
			C874.7,519.2,872.1,520.2,869.6,520.2z"/>
	</g>
	<g>
		<path d="M809.6,520.2c-2.6,0-5.1-1-7.1-2.9c-3.9-3.9-3.9-10.2,0-14.1l60-60c3.9-3.9,10.2-3.9,14.1,0c3.9,3.9,3.9,10.2,0,14.1
			l-60,60C814.7,519.2,812.1,520.2,809.6,520.2z"/>
	</g>
	<g>
		<path d="M989.6,580.2c-2.6,0-5.1-1-7.1-2.9l-60-60c-3.9-3.9-3.9-10.2,0-14.1s10.2-3.9,14.1,0l60,60c3.9,3.9,3.9,10.2,0,14.1
			C994.7,579.2,992.1,580.2,989.6,580.2z"/>
	</g>
	<g>
		<path d="M929.6,580.2c-2.6,0-5.1-1-7.1-2.9c-3.9-3.9-3.9-10.2,0-14.1l60-60c3.9-3.9,10.2-3.9,14.1,0c3.9,3.9,3.9,10.2,0,14.1
			l-60,60C934.7,579.2,932.1,580.2,929.6,580.2z"/>
	</g>
	<g>
		<path d="M989.6,520.2c-2.6,0-5.1-1-7.1-2.9l-60-60c-3.9-3.9-3.9-10.2,0-14.1s10.2-3.9,14.1,0l60,60c3.9,3.9,3.9,10.2,0,14.1
			C994.7,519.2,992.1,520.2,989.6,520.2z"/>
	</g>
	<g>
		<path d="M929.6,520.2c-2.6,0-5.1-1-7.1-2.9c-3.9-3.9-3.9-10.2,0-14.1l60-60c3.9-3.9,10.2-3.9,14.1,0c3.9,3.9,3.9,10.2,0,14.1
			l-60,60C934.7,519.2,932.1,520.2,929.6,520.2z"/>
	</g>
	<g>
		<path d="M1049.5,340.2c-2.6,0-5.1-1-7.1-2.9l-60-60c-3.9-3.9-3.9-10.2,0-14.1s10.2-3.9,14.1,0l60,60c3.9,3.9,3.9,10.2,0,14.1
			C1054.7,339.2,1052.1,340.2,1049.5,340.2z"/>
	</g>
	<g>
		<path d="M989.5,340.2c-2.6,0-5.1-1-7.1-2.9c-3.9-3.9-3.9-10.2,0-14.1l60-60c3.9-3.9,10.2-3.9,14.1,0s3.9,10.2,0,14.1l-60,60
			C994.7,339.2,992.1,340.2,989.5,340.2z"/>
	</g>
	<g>
		<path d="M1049.5,460.2c-2.6,0-5.1-1-7.1-2.9l-60-60c-3.9-3.9-3.9-10.2,0-14.1s10.2-3.9,14.1,0l60,60c3.9,3.9,3.9,10.2,0,14.1
			C1054.7,459.2,1052.1,460.2,1049.5,460.2z"/>
	</g>
	<g>
		<path d="M989.5,460.2c-2.6,0-5.1-1-7.1-2.9c-3.9-3.9-3.9-10.2,0-14.1l60-60c3.9-3.9,10.2-3.9,14.1,0s3.9,10.2,0,14.1l-60,60
			C994.7,459.2,992.1,460.2,989.5,460.2z"/>
	</g>
	<g>
		<path d="M1049.5,400.2c-2.6,0-5.1-1-7.1-2.9l-60-60c-3.9-3.9-3.9-10.2,0-14.1s10.2-3.9,14.1,0l60,60c3.9,3.9,3.9,10.2,0,14.1
			C1054.7,399.2,1052.1,400.2,1049.5,400.2z"/>
	</g>
	<g>
		<path d="M989.5,400.2c-2.6,0-5.1-1-7.1-2.9c-3.9-3.9-3.9-10.2,0-14.1l60-60c3.9-3.9,10.2-3.9,14.1,0s3.9,10.2,0,14.1l-60,60
			C994.7,399.2,992.1,400.2,989.5,400.2z"/>
	</g>
	<g>
		<path d="M1049.5,580.2c-2.6,0-5.1-1-7.1-2.9l-60-60c-3.9-3.9-3.9-10.2,0-14.1s10.2-3.9,14.1,0l60,60c3.9,3.9,3.9,10.2,0,14.1
			C1054.7,579.2,1052.1,580.2,1049.5,580.2z"/>
	</g>
	<g>
		<path d="M989.5,580.2c-2.6,0-5.1-1-7.1-2.9c-3.9-3.9-3.9-10.2,0-14.1l60-60c3.9-3.9,10.2-3.9,14.1,0s3.9,10.2,0,14.1l-60,60
			C994.7,579.2,992.1,580.2,989.5,580.2z"/>
	</g>
	<g>
		<path d="M1049.6,520.2c-2.6,0-5.1-1-7.1-2.9l-60-60c-3.9-3.9-3.9-10.2,0-14.1s10.2-3.9,14.1,0l60,60c3.9,3.9,3.9,10.2,0,14.1
			C1054.7,519.2,1052.1,520.2,1049.6,520.2z"/>
	</g>
	<g>
		<path d="M989.6,520.2c-2.6,0-5.1-1-7.1-2.9c-3.9-3.9-3.9-10.2,0-14.1l60-60c3.9-3.9,10.2-3.9,14.1,0s3.9,10.2,0,14.1l-60,60
			C994.7,519.2,992.1,520.2,989.6,520.2z"/>
	</g>
	<g>
		<path d="M869.6,640.1c-2.6,0-5.1-1-7.1-2.9l-60-60c-3.9-3.9-3.9-10.2,0-14.1c3.9-3.9,10.2-3.9,14.1,0l60,60
			c3.9,3.9,3.9,10.2,0,14.1C874.7,639.2,872.1,640.1,869.6,640.1z"/>
	</g>
	<g>
		<path d="M809.6,640.1c-2.6,0-5.1-1-7.1-2.9c-3.9-3.9-3.9-10.2,0-14.1l60-60c3.9-3.9,10.2-3.9,14.1,0c3.9,3.9,3.9,10.2,0,14.1
			l-60,60C814.7,639.2,812.1,640.1,809.6,640.1z"/>
	</g>
	<g>
		<path d="M929.5,700.1c-2.6,0-5.1-1-7.1-2.9l-60-60c-3.9-3.9-3.9-10.2,0-14.1c3.9-3.9,10.2-3.9,14.1,0l60,60
			c3.9,3.9,3.9,10.2,0,14.1C934.7,699.2,932.1,700.1,929.5,700.1z"/>
	</g>
	<g>
		<path d="M869.5,700.1c-2.6,0-5.1-1-7.1-2.9c-3.9-3.9-3.9-10.2,0-14.1l60-60c3.9-3.9,10.2-3.9,14.1,0c3.9,3.9,3.9,10.2,0,14.1
			l-60,60C874.7,699.2,872.1,700.1,869.5,700.1z"/>
	</g>
	<g>
		<path d="M929.5,640.1c-2.6,0-5.1-1-7.1-2.9l-60-60c-3.9-3.9-3.9-10.2,0-14.1c3.9-3.9,10.2-3.9,14.1,0l60,60
			c3.9,3.9,3.9,10.2,0,14.1C934.7,639.2,932.1,640.1,929.5,640.1z"/>
	</g>
	<g>
		<path d="M869.5,640.1c-2.6,0-5.1-1-7.1-2.9c-3.9-3.9-3.9-10.2,0-14.1l60-60c3.9-3.9,10.2-3.9,14.1,0c3.9,3.9,3.9,10.2,0,14.1
			l-60,60C874.7,639.2,872.1,640.1,869.5,640.1z"/>
	</g>
	<g>
		<path d="M989.6,640.1c-2.6,0-5.1-1-7.1-2.9l-60-60c-3.9-3.9-3.9-10.2,0-14.1c3.9-3.9,10.2-3.9,14.1,0l60,60
			c3.9,3.9,3.9,10.2,0,14.1C994.7,639.2,992.1,640.1,989.6,640.1z"/>
	</g>
	<g>
		<path d="M929.6,640.1c-2.6,0-5.1-1-7.1-2.9c-3.9-3.9-3.9-10.2,0-14.1l60-60c3.9-3.9,10.2-3.9,14.1,0c3.9,3.9,3.9,10.2,0,14.1
			l-60,60C934.7,639.2,932.1,640.1,929.6,640.1z"/>
	</g>
	<g>
		<path d="M1949.2,340.2c-2.6,0-5.1-1-7.1-2.9l-60-60c-3.9-3.9-3.9-10.2,0-14.1s10.2-3.9,14.1,0l60,60c3.9,3.9,3.9,10.2,0,14.1
			C1954.3,339.2,1951.7,340.2,1949.2,340.2z"/>
	</g>
	<g>
		<path d="M1889.2,340.2c-2.6,0-5.1-1-7.1-2.9c-3.9-3.9-3.9-10.2,0-14.1l60-60c3.9-3.9,10.2-3.9,14.1,0s3.9,10.2,0,14.1l-60,60
			C1894.3,339.2,1891.7,340.2,1889.2,340.2z"/>
	</g>
	<g>
		<path d="M1949.2,460.2c-2.6,0-5.1-1-7.1-2.9l-60-60c-3.9-3.9-3.9-10.2,0-14.1s10.2-3.9,14.1,0l60,60c3.9,3.9,3.9,10.2,0,14.1
			C1954.3,459.2,1951.7,460.2,1949.2,460.2z"/>
	</g>
	<g>
		<path d="M1889.2,460.2c-2.6,0-5.1-1-7.1-2.9c-3.9-3.9-3.9-10.2,0-14.1l60-60c3.9-3.9,10.2-3.9,14.1,0s3.9,10.2,0,14.1l-60,60
			C1894.3,459.2,1891.7,460.2,1889.2,460.2z"/>
	</g>
	<g>
		<path d="M1949.2,400.2c-2.6,0-5.1-1-7.1-2.9l-60-60c-3.9-3.9-3.9-10.2,0-14.1s10.2-3.9,14.1,0l60,60c3.9,3.9,3.9,10.2,0,14.1
			C1954.3,399.2,1951.7,400.2,1949.2,400.2z"/>
	</g>
	<g>
		<path d="M1889.2,400.2c-2.6,0-5.1-1-7.1-2.9c-3.9-3.9-3.9-10.2,0-14.1l60-60c3.9-3.9,10.2-3.9,14.1,0s3.9,10.2,0,14.1l-60,60
			C1894.3,399.2,1891.7,400.2,1889.2,400.2z"/>
	</g>
	<g>
		<path d="M1949.2,580.2c-2.6,0-5.1-1-7.1-2.9l-60-60c-3.9-3.9-3.9-10.2,0-14.1s10.2-3.9,14.1,0l60,60c3.9,3.9,3.9,10.2,0,14.1
			C1954.3,579.2,1951.7,580.2,1949.2,580.2z"/>
	</g>
	<g>
		<path d="M1889.2,580.2c-2.6,0-5.1-1-7.1-2.9c-3.9-3.9-3.9-10.2,0-14.1l60-60c3.9-3.9,10.2-3.9,14.1,0s3.9,10.2,0,14.1l-60,60
			C1894.3,579.2,1891.7,580.2,1889.2,580.2z"/>
	</g>
	<g>
		<path d="M1949.2,520.2c-2.6,0-5.1-1-7.1-2.9l-60-60c-3.9-3.9-3.9-10.2,0-14.1s10.2-3.9,14.1,0l60,60c3.9,3.9,3.9,10.2,0,14.1
			C1954.3,519.2,1951.7,520.2,1949.2,520.2z"/>
	</g>
	<g>
		<path d="M1889.2,520.2c-2.6,0-5.1-1-7.1-2.9c-3.9-3.9-3.9-10.2,0-14.1l60-60c3.9-3.9,10.2-3.9,14.1,0s3.9,10.2,0,14.1l-60,60
			C1894.3,519.2,1891.7,520.2,1889.2,520.2z"/>
	</g>
	<g>
		<path d="M2009.2,340.2c-2.6,0-5.1-1-7.1-2.9l-60-60c-3.9-3.9-3.9-10.2,0-14.1s10.2-3.9,14.1,0l60,60c3.9,3.9,3.9,10.2,0,14.1
			C2014.3,339.2,2011.7,340.2,2009.2,340.2z"/>
	</g>
	<g>
		<path d="M1949.2,340.2c-2.6,0-5.1-1-7.1-2.9c-3.9-3.9-3.9-10.2,0-14.1l60-60c3.9-3.9,10.2-3.9,14.1,0s3.9,10.2,0,14.1l-60,60
			C1954.3,339.2,1951.7,340.2,1949.2,340.2z"/>
	</g>
	<g>
		<path d="M2009.2,460.2c-2.6,0-5.1-1-7.1-2.9l-60-60c-3.9-3.9-3.9-10.2,0-14.1s10.2-3.9,14.1,0l60,60c3.9,3.9,3.9,10.2,0,14.1
			C2014.3,459.2,2011.7,460.2,2009.2,460.2z"/>
	</g>
	<g>
		<path d="M1949.2,460.2c-2.6,0-5.1-1-7.1-2.9c-3.9-3.9-3.9-10.2,0-14.1l60-60c3.9-3.9,10.2-3.9,14.1,0s3.9,10.2,0,14.1l-60,60
			C1954.3,459.2,1951.7,460.2,1949.2,460.2z"/>
	</g>
	<g>
		<path d="M2009.2,400.2c-2.6,0-5.1-1-7.1-2.9l-60-60c-3.9-3.9-3.9-10.2,0-14.1s10.2-3.9,14.1,0l60,60c3.9,3.9,3.9,10.2,0,14.1
			C2014.3,399.2,2011.7,400.2,2009.2,400.2z"/>
	</g>
	<g>
		<path d="M1949.2,400.2c-2.6,0-5.1-1-7.1-2.9c-3.9-3.9-3.9-10.2,0-14.1l60-60c3.9-3.9,10.2-3.9,14.1,0s3.9,10.2,0,14.1l-60,60
			C1954.3,399.2,1951.7,400.2,1949.2,400.2z"/>
	</g>
	<g>
		<path d="M2009.2,580.2c-2.6,0-5.1-1-7.1-2.9l-60-60c-3.9-3.9-3.9-10.2,0-14.1s10.2-3.9,14.1,0l60,60c3.9,3.9,3.9,10.2,0,14.1
			C2014.3,579.2,2011.7,580.2,2009.2,580.2z"/>
	</g>
	<g>
		<path d="M1949.2,580.2c-2.6,0-5.1-1-7.1-2.9c-3.9-3.9-3.9-10.2,0-14.1l60-60c3.9-3.9,10.2-3.9,14.1,0s3.9,10.2,0,14.1l-60,60
			C1954.3,579.2,1951.7,580.2,1949.2,580.2z"/>
	</g>
	<g>
		<path d="M2009.2,520.2c-2.6,0-5.1-1-7.1-2.9l-60-60c-3.9-3.9-3.9-10.2,0-14.1s10.2-3.9,14.1,0l60,60c3.9,3.9,3.9,10.2,0,14.1
			C2014.3,519.2,2011.7,520.2,2009.2,520.2z"/>
	</g>
	<g>
		<path d="M1949.2,520.2c-2.6,0-5.1-1-7.1-2.9c-3.9-3.9-3.9-10.2,0-14.1l60-60c3.9-3.9,10.2-3.9,14.1,0s3.9,10.2,0,14.1l-60,60
			C1954.3,519.2,1951.7,520.2,1949.2,520.2z"/>
	</g>
	<g>
		<path d="M2129.1,580.2c-2.6,0-5.1-1-7.1-2.9l-60-60c-3.9-3.9-3.9-10.2,0-14.1s10.2-3.9,14.1,0l60,60c3.9,3.9,3.9,10.2,0,14.1
			C2134.3,579.2,2131.7,580.2,2129.1,580.2z"/>
	</g>
	<g>
		<path d="M2069.1,580.2c-2.6,0-5.1-1-7.1-2.9c-3.9-3.9-3.9-10.2,0-14.1l60-60c3.9-3.9,10.2-3.9,14.1,0c3.9,3.9,3.9,10.2,0,14.1
			l-60,60C2074.3,579.2,2071.7,580.2,2069.1,580.2z"/>
	</g>
	<g>
		<path d="M2129.2,520.2c-2.6,0-5.1-1-7.1-2.9l-60-60c-3.9-3.9-3.9-10.2,0-14.1s10.2-3.9,14.1,0l60,60c3.9,3.9,3.9,10.2,0,14.1
			C2134.3,519.2,2131.7,520.2,2129.2,520.2z"/>
	</g>
	<g>
		<path d="M2069.2,520.2c-2.6,0-5.1-1-7.1-2.9c-3.9-3.9-3.9-10.2,0-14.1l60-60c3.9-3.9,10.2-3.9,14.1,0c3.9,3.9,3.9,10.2,0,14.1
			l-60,60C2074.3,519.2,2071.7,520.2,2069.2,520.2z"/>
	</g>
	<g>
		<path d="M2189.1,340.2c-2.6,0-5.1-1-7.1-2.9l-60-60c-3.9-3.9-3.9-10.2,0-14.1s10.2-3.9,14.1,0l60,60c3.9,3.9,3.9,10.2,0,14.1
			C2194.3,339.2,2191.7,340.2,2189.1,340.2z"/>
	</g>
	<g>
		<path d="M2129.1,340.2c-2.6,0-5.1-1-7.1-2.9c-3.9-3.9-3.9-10.2,0-14.1l60-60c3.9-3.9,10.2-3.9,14.1,0c3.9,3.9,3.9,10.2,0,14.1
			l-60,60C2134.3,339.2,2131.7,340.2,2129.1,340.2z"/>
	</g>
	<g>
		<path d="M2189.1,460.2c-2.6,0-5.1-1-7.1-2.9l-60-60c-3.9-3.9-3.9-10.2,0-14.1s10.2-3.9,14.1,0l60,60c3.9,3.9,3.9,10.2,0,14.1
			C2194.3,459.2,2191.7,460.2,2189.1,460.2z"/>
	</g>
	<g>
		<path d="M2129.1,460.2c-2.6,0-5.1-1-7.1-2.9c-3.9-3.9-3.9-10.2,0-14.1l60-60c3.9-3.9,10.2-3.9,14.1,0c3.9,3.9,3.9,10.2,0,14.1
			l-60,60C2134.3,459.2,2131.7,460.2,2129.1,460.2z"/>
	</g>
	<g>
		<path d="M2189.1,400.2c-2.6,0-5.1-1-7.1-2.9l-60-60c-3.9-3.9-3.9-10.2,0-14.1s10.2-3.9,14.1,0l60,60c3.9,3.9,3.9,10.2,0,14.1
			C2194.3,399.2,2191.7,400.2,2189.1,400.2z"/>
	</g>
	<g>
		<path d="M2129.1,400.2c-2.6,0-5.1-1-7.1-2.9c-3.9-3.9-3.9-10.2,0-14.1l60-60c3.9-3.9,10.2-3.9,14.1,0c3.9,3.9,3.9,10.2,0,14.1
			l-60,60C2134.3,399.2,2131.7,400.2,2129.1,400.2z"/>
	</g>
	<g>
		<path d="M2189.1,580.2c-2.6,0-5.1-1-7.1-2.9l-60-60c-3.9-3.9-3.9-10.2,0-14.1s10.2-3.9,14.1,0l60,60c3.9,3.9,3.9,10.2,0,14.1
			C2194.2,579.2,2191.7,580.2,2189.1,580.2z"/>
	</g>
	<g>
		<path d="M2129.1,580.2c-2.6,0-5.1-1-7.1-2.9c-3.9-3.9-3.9-10.2,0-14.1l60-60c3.9-3.9,10.2-3.9,14.1,0c3.9,3.9,3.9,10.2,0,14.1
			l-60,60C2134.2,579.2,2131.7,580.2,2129.1,580.2z"/>
	</g>
	<g>
		<path d="M2189.1,520.2c-2.6,0-5.1-1-7.1-2.9l-60-60c-3.9-3.9-3.9-10.2,0-14.1s10.2-3.9,14.1,0l60,60c3.9,3.9,3.9,10.2,0,14.1
			C2194.3,519.2,2191.7,520.2,2189.1,520.2z"/>
	</g>
	<g>
		<path d="M2129.1,520.2c-2.6,0-5.1-1-7.1-2.9c-3.9-3.9-3.9-10.2,0-14.1l60-60c3.9-3.9,10.2-3.9,14.1,0c3.9,3.9,3.9,10.2,0,14.1
			l-60,60C2134.3,519.2,2131.7,520.2,2129.1,520.2z"/>
	</g>
	<g>
		<path d="M2009.2,640.1c-2.6,0-5.1-1-7.1-2.9l-60-60c-3.9-3.9-3.9-10.2,0-14.1c3.9-3.9,10.2-3.9,14.1,0l60,60
			c3.9,3.9,3.9,10.2,0,14.1C2014.3,639.2,2011.7,640.1,2009.2,640.1z"/>
	</g>
	<g>
		<path d="M1949.2,640.1c-2.6,0-5.1-1-7.1-2.9c-3.9-3.9-3.9-10.2,0-14.1l60-60c3.9-3.9,10.2-3.9,14.1,0s3.9,10.2,0,14.1l-60,60
			C1954.3,639.2,1951.7,640.1,1949.2,640.1z"/>
	</g>
	<g>
		<path d="M2069.1,700.1c-2.6,0-5.1-1-7.1-2.9l-60-60c-3.9-3.9-3.9-10.2,0-14.1c3.9-3.9,10.2-3.9,14.1,0l60,60
			c3.9,3.9,3.9,10.2,0,14.1C2074.3,699.2,2071.7,700.1,2069.1,700.1z"/>
	</g>
	<g>
		<path d="M2009.1,700.1c-2.6,0-5.1-1-7.1-2.9c-3.9-3.9-3.9-10.2,0-14.1l60-60c3.9-3.9,10.2-3.9,14.1,0c3.9,3.9,3.9,10.2,0,14.1
			l-60,60C2014.3,699.2,2011.7,700.1,2009.1,700.1z"/>
	</g>
	<g>
		<path d="M2069.1,640.1c-2.6,0-5.1-1-7.1-2.9l-60-60c-3.9-3.9-3.9-10.2,0-14.1c3.9-3.9,10.2-3.9,14.1,0l60,60
			c3.9,3.9,3.9,10.2,0,14.1C2074.3,639.2,2071.7,640.1,2069.1,640.1z"/>
	</g>
	<g>
		<path d="M2009.1,640.1c-2.6,0-5.1-1-7.1-2.9c-3.9-3.9-3.9-10.2,0-14.1l60-60c3.9-3.9,10.2-3.9,14.1,0c3.9,3.9,3.9,10.2,0,14.1
			l-60,60C2014.3,639.2,2011.7,640.1,2009.1,640.1z"/>
	</g>
	<g>
		<path d="M2129.1,640.1c-2.6,0-5.1-1-7.1-2.9l-60-60c-3.9-3.9-3.9-10.2,0-14.1c3.9-3.9,10.2-3.9,14.1,0l60,60
			c3.9,3.9,3.9,10.2,0,14.1C2134.3,639.2,2131.7,640.1,2129.1,640.1z"/>
	</g>
	<g>
		<path d="M2069.1,640.1c-2.6,0-5.1-1-7.1-2.9c-3.9-3.9-3.9-10.2,0-14.1l60-60c3.9-3.9,10.2-3.9,14.1,0c3.9,3.9,3.9,10.2,0,14.1
			l-60,60C2074.3,639.2,2071.7,640.1,2069.1,640.1z"/>
	</g>
	<g>
		<path d="M599.8,700.1c-2.6,0-5.1-1-7.1-2.9l-60-60c-3.9-3.9-3.9-10.2,0-14.1c3.9-3.9,10.2-3.9,14.1,0l60,60
			c3.9,3.9,3.9,10.2,0,14.1C604.9,699.2,602.3,700.1,599.8,700.1z"/>
	</g>
	<g>
		<path d="M539.8,700.1c-2.6,0-5.1-1-7.1-2.9c-3.9-3.9-3.9-10.2,0-14.1l60-60c3.9-3.9,10.2-3.9,14.1,0c3.9,3.9,3.9,10.2,0,14.1
			l-60,60C544.9,699.2,542.3,700.1,539.8,700.1z"/>
	</g>
	<g>
		<path d="M599.8,640.1c-2.6,0-5.1-1-7.1-2.9l-60-60c-3.9-3.9-3.9-10.2,0-14.1c3.9-3.9,10.2-3.9,14.1,0l60,60
			c3.9,3.9,3.9,10.2,0,14.1C604.9,639.2,602.3,640.1,599.8,640.1z"/>
	</g>
	<g>
		<path d="M539.8,640.1c-2.6,0-5.1-1-7.1-2.9c-3.9-3.9-3.9-10.2,0-14.1l60-60c3.9-3.9,10.2-3.9,14.1,0c3.9,3.9,3.9,10.2,0,14.1
			l-60,60C544.9,639.2,542.3,640.1,539.8,640.1z"/>
	</g>
	<g>
		<path d="M659.8,700.1c-2.6,0-5.1-1-7.1-2.9l-60-60c-3.9-3.9-3.9-10.2,0-14.1c3.9-3.9,10.2-3.9,14.1,0l60,60
			c3.9,3.9,3.9,10.2,0,14.1C664.9,699.2,662.4,700.1,659.8,700.1z"/>
	</g>
	<g>
		<path d="M599.8,700.1c-2.6,0-5.1-1-7.1-2.9c-3.9-3.9-3.9-10.2,0-14.1l60-60c3.9-3.9,10.2-3.9,14.1,0c3.9,3.9,3.9,10.2,0,14.1
			l-60,60C604.9,699.2,602.4,700.1,599.8,700.1z"/>
	</g>
	<g>
		<path d="M659.8,640.1c-2.6,0-5.1-1-7.1-2.9l-60-60c-3.9-3.9-3.9-10.2,0-14.1c3.9-3.9,10.2-3.9,14.1,0l60,60
			c3.9,3.9,3.9,10.2,0,14.1C664.9,639.2,662.4,640.1,659.8,640.1z"/>
	</g>
	<g>
		<path d="M599.8,640.1c-2.6,0-5.1-1-7.1-2.9c-3.9-3.9-3.9-10.2,0-14.1l60-60c3.9-3.9,10.2-3.9,14.1,0c3.9,3.9,3.9,10.2,0,14.1
			l-60,60C604.9,639.2,602.4,640.1,599.8,640.1z"/>
	</g>
	<g>
		<path d="M719.8,700.1c-2.6,0-5.1-1-7.1-2.9l-60-60c-3.9-3.9-3.9-10.2,0-14.1c3.9-3.9,10.2-3.9,14.1,0l60,60
			c3.9,3.9,3.9,10.2,0,14.1C724.9,699.2,722.3,700.1,719.8,700.1z"/>
	</g>
	<g>
		<path d="M659.8,700.1c-2.6,0-5.1-1-7.1-2.9c-3.9-3.9-3.9-10.2,0-14.1l60-60c3.9-3.9,10.2-3.9,14.1,0c3.9,3.9,3.9,10.2,0,14.1
			l-60,60C664.9,699.2,662.3,700.1,659.8,700.1z"/>
	</g>
	<g>
		<path d="M2339,640.2c-2.6,0-5.1-1-7.1-2.9l-60-60c-3.9-3.9-3.9-10.2,0-14.1c3.9-3.9,10.2-3.9,14.1,0l60,60
			c3.9,3.9,3.9,10.2,0,14.1C2344.1,639.2,2341.5,640.2,2339,640.2z"/>
	</g>
	<g>
		<path d="M2279,640.2c-2.6,0-5.1-1-7.1-2.9c-3.9-3.9-3.9-10.2,0-14.1l60-60c3.9-3.9,10.2-3.9,14.1,0c3.9,3.9,3.9,10.2,0,14.1
			l-60,60C2284.1,639.2,2281.5,640.2,2279,640.2z"/>
	</g>
	<g>
		<path d="M2399,700.2c-2.6,0-5.1-1-7.1-2.9l-60-60c-3.9-3.9-3.9-10.2,0-14.1c3.9-3.9,10.2-3.9,14.1,0l60,60
			c3.9,3.9,3.9,10.2,0,14.1C2404.1,699.2,2401.5,700.2,2399,700.2z"/>
	</g>
	<g>
		<path d="M2339,700.2c-2.6,0-5.1-1-7.1-2.9c-3.9-3.9-3.9-10.2,0-14.1l60-60c3.9-3.9,10.2-3.9,14.1,0c3.9,3.9,3.9,10.2,0,14.1
			l-60,60C2344.1,699.2,2341.5,700.2,2339,700.2z"/>
	</g>
	<g>
		<path d="M2399,640.2c-2.6,0-5.1-1-7.1-2.9l-60-60c-3.9-3.9-3.9-10.2,0-14.1c3.9-3.9,10.2-3.9,14.1,0l60,60
			c3.9,3.9,3.9,10.2,0,14.1C2404.1,639.2,2401.5,640.2,2399,640.2z"/>
	</g>
	<g>
		<path d="M2339,640.2c-2.6,0-5.1-1-7.1-2.9c-3.9-3.9-3.9-10.2,0-14.1l60-60c3.9-3.9,10.2-3.9,14.1,0c3.9,3.9,3.9,10.2,0,14.1
			l-60,60C2344.1,639.2,2341.5,640.2,2339,640.2z"/>
	</g>
	<g>
		<path d="M2459,700.2c-2.6,0-5.1-1-7.1-2.9l-60-60c-3.9-3.9-3.9-10.2,0-14.1c3.9-3.9,10.2-3.9,14.1,0l60,60
			c3.9,3.9,3.9,10.2,0,14.1C2464.1,699.2,2461.5,700.2,2459,700.2z"/>
	</g>
	<g>
		<path d="M2399,700.2c-2.6,0-5.1-1-7.1-2.9c-3.9-3.9-3.9-10.2,0-14.1l60-60c3.9-3.9,10.2-3.9,14.1,0c3.9,3.9,3.9,10.2,0,14.1
			l-60,60C2404.1,699.2,2401.5,700.2,2399,700.2z"/>
	</g>
	<g>
		<path d="M2518.9,700.2c-2.6,0-5.1-1-7.1-2.9l-60-60c-3.9-3.9-3.9-10.2,0-14.1c3.9-3.9,10.2-3.9,14.1,0l60,60
			c3.9,3.9,3.9,10.2,0,14.1C2524.1,699.2,2521.5,700.2,2518.9,700.2z"/>
	</g>
	<g>
		<path d="M2458.9,700.2c-2.6,0-5.1-1-7.1-2.9c-3.9-3.9-3.9-10.2,0-14.1l60-60c3.9-3.9,10.2-3.9,14.1,0c3.9,3.9,3.9,10.2,0,14.1
			l-60,60C2464.1,699.2,2461.5,700.2,2458.9,700.2z"/>
	</g>
	<g>
		<path d="M2518.9,640.2c-2.6,0-5.1-1-7.1-2.9l-60-60c-3.9-3.9-3.9-10.2,0-14.1c3.9-3.9,10.2-3.9,14.1,0l60,60
			c3.9,3.9,3.9,10.2,0,14.1C2524.1,639.2,2521.5,640.2,2518.9,640.2z"/>
	</g>
	<g>
		<path d="M2458.9,640.2c-2.6,0-5.1-1-7.1-2.9c-3.9-3.9-3.9-10.2,0-14.1l60-60c3.9-3.9,10.2-3.9,14.1,0c3.9,3.9,3.9,10.2,0,14.1
			l-60,60C2464.1,639.2,2461.5,640.2,2458.9,640.2z"/>
	</g>
	<g>
		<path d="M2579,640.2c-2.6,0-5.1-1-7.1-2.9l-60-60c-3.9-3.9-3.9-10.2,0-14.1c3.9-3.9,10.2-3.9,14.1,0l60,60
			c3.9,3.9,3.9,10.2,0,14.1C2584.1,639.2,2581.5,640.2,2579,640.2z"/>
	</g>
	<g>
		<path d="M2519,640.2c-2.6,0-5.1-1-7.1-2.9c-3.9-3.9-3.9-10.2,0-14.1l60-60c3.9-3.9,10.2-3.9,14.1,0c3.9,3.9,3.9,10.2,0,14.1
			l-60,60C2524.1,639.2,2521.5,640.2,2519,640.2z"/>
	</g>
	<g>
		<g>
			<path d="M1199.3,340.2c-2.6,0-5.1-1-7.1-2.9l-60-60c-3.9-3.9-3.9-10.2,0-14.1s10.2-3.9,14.1,0l60,60c3.9,3.9,3.9,10.2,0,14.1
				C1204.4,339.2,1201.8,340.2,1199.3,340.2z"/>
		</g>
		<g>
			<path d="M1139.3,340.2c-2.6,0-5.1-1-7.1-2.9c-3.9-3.9-3.9-10.2,0-14.1l60-60c3.9-3.9,10.2-3.9,14.1,0s3.9,10.2,0,14.1l-60,60
				C1144.4,339.2,1141.8,340.2,1139.3,340.2z"/>
		</g>
		<g>
			<path d="M1199.3,460.2c-2.6,0-5.1-1-7.1-2.9l-60-60c-3.9-3.9-3.9-10.2,0-14.1s10.2-3.9,14.1,0l60,60c3.9,3.9,3.9,10.2,0,14.1
				C1204.4,459.2,1201.8,460.2,1199.3,460.2z"/>
		</g>
		<g>
			<path d="M1139.3,460.2c-2.6,0-5.1-1-7.1-2.9c-3.9-3.9-3.9-10.2,0-14.1l60-60c3.9-3.9,10.2-3.9,14.1,0s3.9,10.2,0,14.1l-60,60
				C1144.4,459.2,1141.8,460.2,1139.3,460.2z"/>
		</g>
		<g>
			<path d="M1199.3,400.2c-2.6,0-5.1-1-7.1-2.9l-60-60c-3.9-3.9-3.9-10.2,0-14.1s10.2-3.9,14.1,0l60,60c3.9,3.9,3.9,10.2,0,14.1
				C1204.4,399.2,1201.8,400.2,1199.3,400.2z"/>
		</g>
		<g>
			<path d="M1139.3,400.2c-2.6,0-5.1-1-7.1-2.9c-3.9-3.9-3.9-10.2,0-14.1l60-60c3.9-3.9,10.2-3.9,14.1,0s3.9,10.2,0,14.1l-60,60
				C1144.4,399.2,1141.8,400.2,1139.3,400.2z"/>
		</g>
		<g>
			<path d="M1199.3,580.2c-2.6,0-5.1-1-7.1-2.9l-60-60c-3.9-3.9-3.9-10.2,0-14.1s10.2-3.9,14.1,0l60,60c3.9,3.9,3.9,10.2,0,14.1
				C1204.4,579.2,1201.8,580.2,1199.3,580.2z"/>
		</g>
		<g>
			<path d="M1139.3,580.2c-2.6,0-5.1-1-7.1-2.9c-3.9-3.9-3.9-10.2,0-14.1l60-60c3.9-3.9,10.2-3.9,14.1,0s3.9,10.2,0,14.1l-60,60
				C1144.4,579.2,1141.8,580.2,1139.3,580.2z"/>
		</g>
		<g>
			<path d="M1199.3,520.2c-2.6,0-5.1-1-7.1-2.9l-60-60c-3.9-3.9-3.9-10.2,0-14.1s10.2-3.9,14.1,0l60,60c3.9,3.9,3.9,10.2,0,14.1
				C1204.4,519.2,1201.9,520.2,1199.3,520.2z"/>
		</g>
		<g>
			<path d="M1139.3,520.2c-2.6,0-5.1-1-7.1-2.9c-3.9-3.9-3.9-10.2,0-14.1l60-60c3.9-3.9,10.2-3.9,14.1,0s3.9,10.2,0,14.1l-60,60
				C1144.4,519.2,1141.9,520.2,1139.3,520.2z"/>
		</g>
		<g>
			<path d="M1259.3,280.2c-2.6,0-5.1-1-7.1-2.9l-60-60c-3.9-3.9-3.9-10.2,0-14.1c3.9-3.9,10.2-3.9,14.1,0l60,60
				c3.9,3.9,3.9,10.2,0,14.1C1264.4,279.2,1261.9,280.2,1259.3,280.2z"/>
		</g>
		<g>
			<path d="M1199.3,280.2c-2.6,0-5.1-1-7.1-2.9c-3.9-3.9-3.9-10.2,0-14.1l60-60c3.9-3.9,10.2-3.9,14.1,0s3.9,10.2,0,14.1l-60,60
				C1204.4,279.2,1201.9,280.2,1199.3,280.2z"/>
		</g>
		<g>
			<path d="M1319.3,220.2c-2.6,0-5.1-1-7.1-2.9l-60-60c-3.9-3.9-3.9-10.2,0-14.1c3.9-3.9,10.2-3.9,14.1,0l60,60
				c3.9,3.9,3.9,10.2,0,14.1C1324.4,219.2,1321.8,220.2,1319.3,220.2z"/>
		</g>
		<g>
			<path d="M1259.3,220.2c-2.6,0-5.1-1-7.1-2.9c-3.9-3.9-3.9-10.2,0-14.1l60-60c3.9-3.9,10.2-3.9,14.1,0s3.9,10.2,0,14.1l-60,60
				C1264.4,219.2,1261.8,220.2,1259.3,220.2z"/>
		</g>
		<g>
			<path d="M1379.3,220.2c-2.6,0-5.1-1-7.1-2.9l-60-60c-3.9-3.9-3.9-10.2,0-14.1c3.9-3.9,10.2-3.9,14.1,0l60,60
				c3.9,3.9,3.9,10.2,0,14.1C1384.4,219.2,1381.8,220.2,1379.3,220.2z"/>
		</g>
		<g>
			<path d="M1319.3,220.2c-2.6,0-5.1-1-7.1-2.9c-3.9-3.9-3.9-10.2,0-14.1l60-60c3.9-3.9,10.2-3.9,14.1,0s3.9,10.2,0,14.1l-60,60
				C1324.4,219.2,1321.8,220.2,1319.3,220.2z"/>
		</g>
		<g>
			<path d="M1379.3,460.2c-2.6,0-5.1-1-7.1-2.9l-60-60c-3.9-3.9-3.9-10.2,0-14.1s10.2-3.9,14.1,0l60,60c3.9,3.9,3.9,10.2,0,14.1
				C1384.4,459.2,1381.8,460.2,1379.3,460.2z"/>
		</g>
		<g>
			<path d="M1319.3,460.2c-2.6,0-5.1-1-7.1-2.9c-3.9-3.9-3.9-10.2,0-14.1l60-60c3.9-3.9,10.2-3.9,14.1,0s3.9,10.2,0,14.1l-60,60
				C1324.4,459.2,1321.8,460.2,1319.3,460.2z"/>
		</g>
		<g>
			<path d="M1379.3,580.2c-2.6,0-5.1-1-7.1-2.9l-60-60c-3.9-3.9-3.9-10.2,0-14.1s10.2-3.9,14.1,0l60,60c3.9,3.9,3.9,10.2,0,14.1
				C1384.4,579.2,1381.8,580.2,1379.3,580.2z"/>
		</g>
		<g>
			<path d="M1319.3,580.2c-2.6,0-5.1-1-7.1-2.9c-3.9-3.9-3.9-10.2,0-14.1l60-60c3.9-3.9,10.2-3.9,14.1,0s3.9,10.2,0,14.1l-60,60
				C1324.4,579.2,1321.8,580.2,1319.3,580.2z"/>
		</g>
		<g>
			<path d="M1379.3,520.2c-2.6,0-5.1-1-7.1-2.9l-60-60c-3.9-3.9-3.9-10.2,0-14.1s10.2-3.9,14.1,0l60,60c3.9,3.9,3.9,10.2,0,14.1
				C1384.4,519.2,1381.8,520.2,1379.3,520.2z"/>
		</g>
		<g>
			<path d="M1319.3,520.2c-2.6,0-5.1-1-7.1-2.9c-3.9-3.9-3.9-10.2,0-14.1l60-60c3.9-3.9,10.2-3.9,14.1,0s3.9,10.2,0,14.1l-60,60
				C1324.4,519.2,1321.8,520.2,1319.3,520.2z"/>
		</g>
		<g>
			<path d="M1439.4,220.2c-2.6,0-5.1-1-7.1-2.9l-60-60c-3.9-3.9-3.9-10.2,0-14.1c3.9-3.9,10.2-3.9,14.1,0l60,60
				c3.9,3.9,3.9,10.2,0,14.1C1444.5,219.2,1441.9,220.2,1439.4,220.2z"/>
		</g>
		<g>
			<path d="M1379.4,220.2c-2.6,0-5.1-1-7.1-2.9c-3.9-3.9-3.9-10.2,0-14.1l60-60c3.9-3.9,10.2-3.9,14.1,0s3.9,10.2,0,14.1l-60,60
				C1384.5,219.2,1381.9,220.2,1379.4,220.2z"/>
		</g>
		<g>
			<path d="M1439.4,460.2c-2.6,0-5.1-1-7.1-2.9l-60-60c-3.9-3.9-3.9-10.2,0-14.1s10.2-3.9,14.1,0l60,60c3.9,3.9,3.9,10.2,0,14.1
				C1444.5,459.2,1441.9,460.2,1439.4,460.2z"/>
		</g>
		<g>
			<path d="M1379.4,460.2c-2.6,0-5.1-1-7.1-2.9c-3.9-3.9-3.9-10.2,0-14.1l60-60c3.9-3.9,10.2-3.9,14.1,0s3.9,10.2,0,14.1l-60,60
				C1384.5,459.2,1381.9,460.2,1379.4,460.2z"/>
		</g>
		<g>
			<path d="M1439.4,400.2c-2.6,0-5.1-1-7.1-2.9l-60-60c-3.9-3.9-3.9-10.2,0-14.1s10.2-3.9,14.1,0l60,60c3.9,3.9,3.9,10.2,0,14.1
				C1444.5,399.2,1441.9,400.2,1439.4,400.2z"/>
		</g>
		<g>
			<path d="M1379.4,400.2c-2.6,0-5.1-1-7.1-2.9c-3.9-3.9-3.9-10.2,0-14.1l60-60c3.9-3.9,10.2-3.9,14.1,0s3.9,10.2,0,14.1l-60,60
				C1384.5,399.2,1381.9,400.2,1379.4,400.2z"/>
		</g>
		<g>
			<path d="M1439.4,580.2c-2.6,0-5.1-1-7.1-2.9l-60-60c-3.9-3.9-3.9-10.2,0-14.1s10.2-3.9,14.1,0l60,60c3.9,3.9,3.9,10.2,0,14.1
				C1444.5,579.2,1441.9,580.2,1439.4,580.2z"/>
		</g>
		<g>
			<path d="M1379.4,580.2c-2.6,0-5.1-1-7.1-2.9c-3.9-3.9-3.9-10.2,0-14.1l60-60c3.9-3.9,10.2-3.9,14.1,0s3.9,10.2,0,14.1l-60,60
				C1384.5,579.2,1381.9,580.2,1379.4,580.2z"/>
		</g>
		<g>
			<path d="M1439.4,520.2c-2.6,0-5.1-1-7.1-2.9l-60-60c-3.9-3.9-3.9-10.2,0-14.1s10.2-3.9,14.1,0l60,60c3.9,3.9,3.9,10.2,0,14.1
				C1444.5,519.2,1441.9,520.2,1439.4,520.2z"/>
		</g>
		<g>
			<path d="M1379.4,520.2c-2.6,0-5.1-1-7.1-2.9c-3.9-3.9-3.9-10.2,0-14.1l60-60c3.9-3.9,10.2-3.9,14.1,0s3.9,10.2,0,14.1l-60,60
				C1384.5,519.2,1381.9,520.2,1379.4,520.2z"/>
		</g>
		<g>
			<path d="M1499.4,220.2c-2.6,0-5.1-1-7.1-2.9l-60-60c-3.9-3.9-3.9-10.2,0-14.1c3.9-3.9,10.2-3.9,14.1,0l60,60
				c3.9,3.9,3.9,10.2,0,14.1C1504.5,219.2,1501.9,220.2,1499.4,220.2z"/>
		</g>
		<g>
			<path d="M1439.4,220.2c-2.6,0-5.1-1-7.1-2.9c-3.9-3.9-3.9-10.2,0-14.1l60-60c3.9-3.9,10.2-3.9,14.1,0s3.9,10.2,0,14.1l-60,60
				C1444.5,219.2,1441.9,220.2,1439.4,220.2z"/>
		</g>
		<g>
			<path d="M1499.4,340.2c-2.6,0-5.1-1-7.1-2.9l-60-60c-3.9-3.9-3.9-10.2,0-14.1s10.2-3.9,14.1,0l60,60c3.9,3.9,3.9,10.2,0,14.1
				C1504.5,339.2,1501.9,340.2,1499.4,340.2z"/>
		</g>
		<g>
			<path d="M1439.4,340.2c-2.6,0-5.1-1-7.1-2.9c-3.9-3.9-3.9-10.2,0-14.1l60-60c3.9-3.9,10.2-3.9,14.1,0s3.9,10.2,0,14.1l-60,60
				C1444.5,339.2,1441.9,340.2,1439.4,340.2z"/>
		</g>
		<g>
			<path d="M1499.4,460.2c-2.6,0-5.1-1-7.1-2.9l-60-60c-3.9-3.9-3.9-10.2,0-14.1s10.2-3.9,14.1,0l60,60c3.9,3.9,3.9,10.2,0,14.1
				C1504.5,459.2,1501.9,460.2,1499.4,460.2z"/>
		</g>
		<g>
			<path d="M1439.4,460.2c-2.6,0-5.1-1-7.1-2.9c-3.9-3.9-3.9-10.2,0-14.1l60-60c3.9-3.9,10.2-3.9,14.1,0s3.9,10.2,0,14.1l-60,60
				C1444.5,459.2,1441.9,460.2,1439.4,460.2z"/>
		</g>
		<g>
			<path d="M1499.4,400.2c-2.6,0-5.1-1-7.1-2.9l-60-60c-3.9-3.9-3.9-10.2,0-14.1s10.2-3.9,14.1,0l60,60c3.9,3.9,3.9,10.2,0,14.1
				C1504.5,399.2,1501.9,400.2,1499.4,400.2z"/>
		</g>
		<g>
			<path d="M1439.4,400.2c-2.6,0-5.1-1-7.1-2.9c-3.9-3.9-3.9-10.2,0-14.1l60-60c3.9-3.9,10.2-3.9,14.1,0s3.9,10.2,0,14.1l-60,60
				C1444.5,399.2,1441.9,400.2,1439.4,400.2z"/>
		</g>
		<g>
			<path d="M1559.3,220.2c-2.6,0-5.1-1-7.1-2.9l-60-60c-3.9-3.9-3.9-10.2,0-14.1c3.9-3.9,10.2-3.9,14.1,0l60,60
				c3.9,3.9,3.9,10.2,0,14.1C1564.5,219.2,1561.9,220.2,1559.3,220.2z"/>
		</g>
		<g>
			<path d="M1499.3,220.2c-2.6,0-5.1-1-7.1-2.9c-3.9-3.9-3.9-10.2,0-14.1l60-60c3.9-3.9,10.2-3.9,14.1,0s3.9,10.2,0,14.1l-60,60
				C1504.5,219.2,1501.9,220.2,1499.3,220.2z"/>
		</g>
		<g>
			<path d="M1559.3,460.2c-2.6,0-5.1-1-7.1-2.9l-60-60c-3.9-3.9-3.9-10.2,0-14.1s10.2-3.9,14.1,0l60,60c3.9,3.9,3.9,10.2,0,14.1
				C1564.5,459.2,1561.9,460.2,1559.3,460.2z"/>
		</g>
		<g>
			<path d="M1499.3,460.2c-2.6,0-5.1-1-7.1-2.9c-3.9-3.9-3.9-10.2,0-14.1l60-60c3.9-3.9,10.2-3.9,14.1,0s3.9,10.2,0,14.1l-60,60
				C1504.5,459.2,1501.9,460.2,1499.3,460.2z"/>
		</g>
		<g>
			<path d="M1559.3,400.2c-2.6,0-5.1-1-7.1-2.9l-60-60c-3.9-3.9-3.9-10.2,0-14.1s10.2-3.9,14.1,0l60,60c3.9,3.9,3.9,10.2,0,14.1
				C1564.5,399.2,1561.9,400.2,1559.3,400.2z"/>
		</g>
		<g>
			<path d="M1499.3,400.2c-2.6,0-5.1-1-7.1-2.9c-3.9-3.9-3.9-10.2,0-14.1l60-60c3.9-3.9,10.2-3.9,14.1,0s3.9,10.2,0,14.1l-60,60
				C1504.5,399.2,1501.9,400.2,1499.3,400.2z"/>
		</g>
		<g>
			<path d="M1559.4,520.2c-2.6,0-5.1-1-7.1-2.9l-60-60c-3.9-3.9-3.9-10.2,0-14.1s10.2-3.9,14.1,0l60,60c3.9,3.9,3.9,10.2,0,14.1
				C1564.5,519.2,1561.9,520.2,1559.4,520.2z"/>
		</g>
		<g>
			<path d="M1499.4,520.2c-2.6,0-5.1-1-7.1-2.9c-3.9-3.9-3.9-10.2,0-14.1l60-60c3.9-3.9,10.2-3.9,14.1,0s3.9,10.2,0,14.1l-60,60
				C1504.5,519.2,1501.9,520.2,1499.4,520.2z"/>
		</g>
		<g>
			<path d="M1619.4,220.2c-2.6,0-5.1-1-7.1-2.9l-60-60c-3.9-3.9-3.9-10.2,0-14.1c3.9-3.9,10.2-3.9,14.1,0l60,60
				c3.9,3.9,3.9,10.2,0,14.1C1624.5,219.2,1621.9,220.2,1619.4,220.2z"/>
		</g>
		<g>
			<path d="M1559.4,220.2c-2.6,0-5.1-1-7.1-2.9c-3.9-3.9-3.9-10.2,0-14.1l60-60c3.9-3.9,10.2-3.9,14.1,0s3.9,10.2,0,14.1l-60,60
				C1564.5,219.2,1561.9,220.2,1559.4,220.2z"/>
		</g>
		<g>
			<path d="M1619.4,460.2c-2.6,0-5.1-1-7.1-2.9l-60-60c-3.9-3.9-3.9-10.2,0-14.1s10.2-3.9,14.1,0l60,60c3.9,3.9,3.9,10.2,0,14.1
				C1624.5,459.2,1621.9,460.2,1619.4,460.2z"/>
		</g>
		<g>
			<path d="M1559.4,460.2c-2.6,0-5.1-1-7.1-2.9c-3.9-3.9-3.9-10.2,0-14.1l60-60c3.9-3.9,10.2-3.9,14.1,0s3.9,10.2,0,14.1l-60,60
				C1564.5,459.2,1561.9,460.2,1559.4,460.2z"/>
		</g>
		<g>
			<path d="M1619.4,580.2c-2.6,0-5.1-1-7.1-2.9l-60-60c-3.9-3.9-3.9-10.2,0-14.1s10.2-3.9,14.1,0l60,60c3.9,3.9,3.9,10.2,0,14.1
				C1624.5,579.2,1621.9,580.2,1619.4,580.2z"/>
		</g>
		<g>
			<path d="M1559.4,580.2c-2.6,0-5.1-1-7.1-2.9c-3.9-3.9-3.9-10.2,0-14.1l60-60c3.9-3.9,10.2-3.9,14.1,0s3.9,10.2,0,14.1l-60,60
				C1564.5,579.2,1561.9,580.2,1559.4,580.2z"/>
		</g>
		<g>
			<path d="M1619.4,520.2c-2.6,0-5.1-1-7.1-2.9l-60-60c-3.9-3.9-3.9-10.2,0-14.1s10.2-3.9,14.1,0l60,60c3.9,3.9,3.9,10.2,0,14.1
				C1624.5,519.2,1621.9,520.2,1619.4,520.2z"/>
		</g>
		<g>
			<path d="M1559.4,520.2c-2.6,0-5.1-1-7.1-2.9c-3.9-3.9-3.9-10.2,0-14.1l60-60c3.9-3.9,10.2-3.9,14.1,0s3.9,10.2,0,14.1l-60,60
				C1564.5,519.2,1561.9,520.2,1559.4,520.2z"/>
		</g>
		<g>
			<path d="M1679.3,220.2c-2.6,0-5.1-1-7.1-2.9l-60-60c-3.9-3.9-3.9-10.2,0-14.1c3.9-3.9,10.2-3.9,14.1,0l60,60
				c3.9,3.9,3.9,10.2,0,14.1C1684.5,219.2,1681.9,220.2,1679.3,220.2z"/>
		</g>
		<g>
			<path d="M1619.3,220.2c-2.6,0-5.1-1-7.1-2.9c-3.9-3.9-3.9-10.2,0-14.1l60-60c3.9-3.9,10.2-3.9,14.1,0s3.9,10.2,0,14.1l-60,60
				C1624.5,219.2,1621.9,220.2,1619.3,220.2z"/>
		</g>
		<g>
			<path d="M1739.4,280.2c-2.6,0-5.1-1-7.1-2.9l-60-60c-3.9-3.9-3.9-10.2,0-14.1c3.9-3.9,10.2-3.9,14.1,0l60,60
				c3.9,3.9,3.9,10.2,0,14.1C1744.5,279.2,1741.9,280.2,1739.4,280.2z"/>
		</g>
		<g>
			<path d="M1679.4,280.2c-2.6,0-5.1-1-7.1-2.9c-3.9-3.9-3.9-10.2,0-14.1l60-60c3.9-3.9,10.2-3.9,14.1,0s3.9,10.2,0,14.1l-60,60
				C1684.5,279.2,1681.9,280.2,1679.4,280.2z"/>
		</g>
		<g>
			<path d="M1799.3,340.2c-2.6,0-5.1-1-7.1-2.9l-60-60c-3.9-3.9-3.9-10.2,0-14.1s10.2-3.9,14.1,0l60,60c3.9,3.9,3.9,10.2,0,14.1
				C1804.4,339.2,1801.9,340.2,1799.3,340.2z"/>
		</g>
		<g>
			<path d="M1739.3,340.2c-2.6,0-5.1-1-7.1-2.9c-3.9-3.9-3.9-10.2,0-14.1l60-60c3.9-3.9,10.2-3.9,14.1,0s3.9,10.2,0,14.1l-60,60
				C1744.4,339.2,1741.9,340.2,1739.3,340.2z"/>
		</g>
		<g>
			<path d="M1799.3,460.2c-2.6,0-5.1-1-7.1-2.9l-60-60c-3.9-3.9-3.9-10.2,0-14.1s10.2-3.9,14.1,0l60,60c3.9,3.9,3.9,10.2,0,14.1
				C1804.4,459.2,1801.9,460.2,1799.3,460.2z"/>
		</g>
		<g>
			<path d="M1739.3,460.2c-2.6,0-5.1-1-7.1-2.9c-3.9-3.9-3.9-10.2,0-14.1l60-60c3.9-3.9,10.2-3.9,14.1,0s3.9,10.2,0,14.1l-60,60
				C1744.4,459.2,1741.9,460.2,1739.3,460.2z"/>
		</g>
		<g>
			<path d="M1799.3,400.2c-2.6,0-5.1-1-7.1-2.9l-60-60c-3.9-3.9-3.9-10.2,0-14.1s10.2-3.9,14.1,0l60,60c3.9,3.9,3.9,10.2,0,14.1
				C1804.4,399.2,1801.9,400.2,1799.3,400.2z"/>
		</g>
		<g>
			<path d="M1739.3,400.2c-2.6,0-5.1-1-7.1-2.9c-3.9-3.9-3.9-10.2,0-14.1l60-60c3.9-3.9,10.2-3.9,14.1,0s3.9,10.2,0,14.1l-60,60
				C1744.4,399.2,1741.9,400.2,1739.3,400.2z"/>
		</g>
		<g>
			<path d="M1799.3,580.2c-2.6,0-5.1-1-7.1-2.9l-60-60c-3.9-3.9-3.9-10.2,0-14.1s10.2-3.9,14.1,0l60,60c3.9,3.9,3.9,10.2,0,14.1
				C1804.4,579.2,1801.9,580.2,1799.3,580.2z"/>
		</g>
		<g>
			<path d="M1739.3,580.2c-2.6,0-5.1-1-7.1-2.9c-3.9-3.9-3.9-10.2,0-14.1l60-60c3.9-3.9,10.2-3.9,14.1,0s3.9,10.2,0,14.1l-60,60
				C1744.4,579.2,1741.9,580.2,1739.3,580.2z"/>
		</g>
		<g>
			<path d="M1799.3,520.2c-2.6,0-5.1-1-7.1-2.9l-60-60c-3.9-3.9-3.9-10.2,0-14.1s10.2-3.9,14.1,0l60,60c3.9,3.9,3.9,10.2,0,14.1
				C1804.5,519.2,1801.9,520.2,1799.3,520.2z"/>
		</g>
		<g>
			<path d="M1739.3,520.2c-2.6,0-5.1-1-7.1-2.9c-3.9-3.9-3.9-10.2,0-14.1l60-60c3.9-3.9,10.2-3.9,14.1,0s3.9,10.2,0,14.1l-60,60
				C1744.5,519.2,1741.9,520.2,1739.3,520.2z"/>
		</g>
		<g>
			<path d="M1199.3,700.1c-2.6,0-5.1-1-7.1-2.9l-60-60c-3.9-3.9-3.9-10.2,0-14.1c3.9-3.9,10.2-3.9,14.1,0l60,60
				c3.9,3.9,3.9,10.2,0,14.1C1204.4,699.2,1201.8,700.1,1199.3,700.1z"/>
		</g>
		<g>
			<path d="M1139.3,700.1c-2.6,0-5.1-1-7.1-2.9c-3.9-3.9-3.9-10.2,0-14.1l60-60c3.9-3.9,10.2-3.9,14.1,0s3.9,10.2,0,14.1l-60,60
				C1144.4,699.2,1141.8,700.1,1139.3,700.1z"/>
		</g>
		<g>
			<path d="M1199.3,640.2c-2.6,0-5.1-1-7.1-2.9l-60-60c-3.9-3.9-3.9-10.2,0-14.1c3.9-3.9,10.2-3.9,14.1,0l60,60
				c3.9,3.9,3.9,10.2,0,14.1C1204.4,639.2,1201.8,640.2,1199.3,640.2z"/>
		</g>
		<g>
			<path d="M1139.3,640.2c-2.6,0-5.1-1-7.1-2.9c-3.9-3.9-3.9-10.2,0-14.1l60-60c3.9-3.9,10.2-3.9,14.1,0s3.9,10.2,0,14.1l-60,60
				C1144.4,639.2,1141.8,640.2,1139.3,640.2z"/>
		</g>
		<g>
			<path d="M1199.3,760.2c-2.6,0-5.1-1-7.1-2.9l-60-60c-3.9-3.9-3.9-10.2,0-14.1c3.9-3.9,10.2-3.9,14.1,0l60,60
				c3.9,3.9,3.9,10.2,0,14.1C1204.4,759.2,1201.8,760.2,1199.3,760.2z"/>
		</g>
		<g>
			<path d="M1139.3,760.2c-2.6,0-5.1-1-7.1-2.9c-3.9-3.9-3.9-10.2,0-14.1l60-60c3.9-3.9,10.2-3.9,14.1,0s3.9,10.2,0,14.1l-60,60
				C1144.4,759.2,1141.8,760.2,1139.3,760.2z"/>
		</g>
		<g>
			<path d="M1259.3,820.2c-2.6,0-5.1-1-7.1-2.9l-60-60c-3.9-3.9-3.9-10.2,0-14.1c3.9-3.9,10.2-3.9,14.1,0l60,60
				c3.9,3.9,3.9,10.2,0,14.1C1264.4,819.2,1261.9,820.2,1259.3,820.2z"/>
		</g>
		<g>
			<path d="M1199.3,820.2c-2.6,0-5.1-1-7.1-2.9c-3.9-3.9-3.9-10.2,0-14.1l60-60c3.9-3.9,10.2-3.9,14.1,0s3.9,10.2,0,14.1l-60,60
				C1204.4,819.2,1201.9,820.2,1199.3,820.2z"/>
		</g>
		<g>
			<path d="M1319.3,880.1c-2.6,0-5.1-1-7.1-2.9l-60-60c-3.9-3.9-3.9-10.2,0-14.1c3.9-3.9,10.2-3.9,14.1,0l60,60
				c3.9,3.9,3.9,10.2,0,14.1C1324.4,879.2,1321.8,880.1,1319.3,880.1z"/>
		</g>
		<g>
			<path d="M1259.3,880.1c-2.6,0-5.1-1-7.1-2.9c-3.9-3.9-3.9-10.2,0-14.1l60-60c3.9-3.9,10.2-3.9,14.1,0s3.9,10.2,0,14.1l-60,60
				C1264.4,879.2,1261.8,880.1,1259.3,880.1z"/>
		</g>
		<g>
			<path d="M1379.3,700.1c-2.6,0-5.1-1-7.1-2.9l-60-60c-3.9-3.9-3.9-10.2,0-14.1c3.9-3.9,10.2-3.9,14.1,0l60,60
				c3.9,3.9,3.9,10.2,0,14.1C1384.4,699.2,1381.8,700.1,1379.3,700.1z"/>
		</g>
		<g>
			<path d="M1319.3,700.1c-2.6,0-5.1-1-7.1-2.9c-3.9-3.9-3.9-10.2,0-14.1l60-60c3.9-3.9,10.2-3.9,14.1,0s3.9,10.2,0,14.1l-60,60
				C1324.4,699.2,1321.8,700.1,1319.3,700.1z"/>
		</g>
		<g>
			<path d="M1379.3,640.2c-2.6,0-5.1-1-7.1-2.9l-60-60c-3.9-3.9-3.9-10.2,0-14.1c3.9-3.9,10.2-3.9,14.1,0l60,60
				c3.9,3.9,3.9,10.2,0,14.1C1384.4,639.2,1381.8,640.2,1379.3,640.2z"/>
		</g>
		<g>
			<path d="M1319.3,640.2c-2.6,0-5.1-1-7.1-2.9c-3.9-3.9-3.9-10.2,0-14.1l60-60c3.9-3.9,10.2-3.9,14.1,0s3.9,10.2,0,14.1l-60,60
				C1324.4,639.2,1321.8,640.2,1319.3,640.2z"/>
		</g>
		<g>
			<path d="M1379.3,880.1c-2.6,0-5.1-1-7.1-2.9l-60-60c-3.9-3.9-3.9-10.2,0-14.1c3.9-3.9,10.2-3.9,14.1,0l60,60
				c3.9,3.9,3.9,10.2,0,14.1C1384.4,879.2,1381.8,880.1,1379.3,880.1z"/>
		</g>
		<g>
			<path d="M1319.3,880.1c-2.6,0-5.1-1-7.1-2.9c-3.9-3.9-3.9-10.2,0-14.1l60-60c3.9-3.9,10.2-3.9,14.1,0s3.9,10.2,0,14.1l-60,60
				C1324.4,879.2,1321.8,880.1,1319.3,880.1z"/>
		</g>
		<g>
			<path d="M1439.4,700.1c-2.6,0-5.1-1-7.1-2.9l-60-60c-3.9-3.9-3.9-10.2,0-14.1c3.9-3.9,10.2-3.9,14.1,0l60,60
				c3.9,3.9,3.9,10.2,0,14.1C1444.5,699.2,1441.9,700.1,1439.4,700.1z"/>
		</g>
		<g>
			<path d="M1379.4,700.1c-2.6,0-5.1-1-7.1-2.9c-3.9-3.9-3.9-10.2,0-14.1l60-60c3.9-3.9,10.2-3.9,14.1,0s3.9,10.2,0,14.1l-60,60
				C1384.5,699.2,1381.9,700.1,1379.4,700.1z"/>
		</g>
		<g>
			<path d="M1439.4,640.2c-2.6,0-5.1-1-7.1-2.9l-60-60c-3.9-3.9-3.9-10.2,0-14.1c3.9-3.9,10.2-3.9,14.1,0l60,60
				c3.9,3.9,3.9,10.2,0,14.1C1444.5,639.2,1441.9,640.2,1439.4,640.2z"/>
		</g>
		<g>
			<path d="M1379.4,640.2c-2.6,0-5.1-1-7.1-2.9c-3.9-3.9-3.9-10.2,0-14.1l60-60c3.9-3.9,10.2-3.9,14.1,0s3.9,10.2,0,14.1l-60,60
				C1384.5,639.2,1381.9,640.2,1379.4,640.2z"/>
		</g>
		<g>
			<path d="M1439.4,880.1c-2.6,0-5.1-1-7.1-2.9l-60-60c-3.9-3.9-3.9-10.2,0-14.1c3.9-3.9,10.2-3.9,14.1,0l60,60
				c3.9,3.9,3.9,10.2,0,14.1C1444.5,879.2,1441.9,880.1,1439.4,880.1z"/>
		</g>
		<g>
			<path d="M1379.4,880.1c-2.6,0-5.1-1-7.1-2.9c-3.9-3.9-3.9-10.2,0-14.1l60-60c3.9-3.9,10.2-3.9,14.1,0s3.9,10.2,0,14.1l-60,60
				C1384.5,879.2,1381.9,880.1,1379.4,880.1z"/>
		</g>
		<g>
			<path d="M1499.4,880.1c-2.6,0-5.1-1-7.1-2.9l-60-60c-3.9-3.9-3.9-10.2,0-14.1c3.9-3.9,10.2-3.9,14.1,0l60,60
				c3.9,3.9,3.9,10.2,0,14.1C1504.5,879.2,1501.9,880.1,1499.4,880.1z"/>
		</g>
		<g>
			<path d="M1439.4,880.1c-2.6,0-5.1-1-7.1-2.9c-3.9-3.9-3.9-10.2,0-14.1l60-60c3.9-3.9,10.2-3.9,14.1,0s3.9,10.2,0,14.1l-60,60
				C1444.5,879.2,1441.9,880.1,1439.4,880.1z"/>
		</g>
		<g>
			<path d="M1559.3,880.1c-2.6,0-5.1-1-7.1-2.9l-60-60c-3.9-3.9-3.9-10.2,0-14.1c3.9-3.9,10.2-3.9,14.1,0l60,60
				c3.9,3.9,3.9,10.2,0,14.1C1564.5,879.2,1561.9,880.1,1559.3,880.1z"/>
		</g>
		<g>
			<path d="M1499.3,880.1c-2.6,0-5.1-1-7.1-2.9c-3.9-3.9-3.9-10.2,0-14.1l60-60c3.9-3.9,10.2-3.9,14.1,0s3.9,10.2,0,14.1l-60,60
				C1504.5,879.2,1501.9,880.1,1499.3,880.1z"/>
		</g>
		<g>
			<path d="M1619.4,700.1c-2.6,0-5.1-1-7.1-2.9l-60-60c-3.9-3.9-3.9-10.2,0-14.1c3.9-3.9,10.2-3.9,14.1,0l60,60
				c3.9,3.9,3.9,10.2,0,14.1C1624.5,699.2,1621.9,700.1,1619.4,700.1z"/>
		</g>
		<g>
			<path d="M1559.4,700.1c-2.6,0-5.1-1-7.1-2.9c-3.9-3.9-3.9-10.2,0-14.1l60-60c3.9-3.9,10.2-3.9,14.1,0s3.9,10.2,0,14.1l-60,60
				C1564.5,699.2,1561.9,700.1,1559.4,700.1z"/>
		</g>
		<g>
			<path d="M1619.4,640.2c-2.6,0-5.1-1-7.1-2.9l-60-60c-3.9-3.9-3.9-10.2,0-14.1c3.9-3.9,10.2-3.9,14.1,0l60,60
				c3.9,3.9,3.9,10.2,0,14.1C1624.5,639.2,1621.9,640.2,1619.4,640.2z"/>
		</g>
		<g>
			<path d="M1559.4,640.2c-2.6,0-5.1-1-7.1-2.9c-3.9-3.9-3.9-10.2,0-14.1l60-60c3.9-3.9,10.2-3.9,14.1,0s3.9,10.2,0,14.1l-60,60
				C1564.5,639.2,1561.9,640.2,1559.4,640.2z"/>
		</g>
		<g>
			<path d="M1619.4,880.1c-2.6,0-5.1-1-7.1-2.9l-60-60c-3.9-3.9-3.9-10.2,0-14.1c3.9-3.9,10.2-3.9,14.1,0l60,60
				c3.9,3.9,3.9,10.2,0,14.1C1624.5,879.2,1621.9,880.1,1619.4,880.1z"/>
		</g>
		<g>
			<path d="M1559.4,880.1c-2.6,0-5.1-1-7.1-2.9c-3.9-3.9-3.9-10.2,0-14.1l60-60c3.9-3.9,10.2-3.9,14.1,0s3.9,10.2,0,14.1l-60,60
				C1564.5,879.2,1561.9,880.1,1559.4,880.1z"/>
		</g>
		<g>
			<path d="M1679.3,700.1c-2.6,0-5.1-1-7.1-2.9l-60-60c-3.9-3.9-3.9-10.2,0-14.1c3.9-3.9,10.2-3.9,14.1,0l60,60
				c3.9,3.9,3.9,10.2,0,14.1C1684.5,699.2,1681.9,700.1,1679.3,700.1z"/>
		</g>
		<g>
			<path d="M1619.3,700.1c-2.6,0-5.1-1-7.1-2.9c-3.9-3.9-3.9-10.2,0-14.1l60-60c3.9-3.9,10.2-3.9,14.1,0s3.9,10.2,0,14.1l-60,60
				C1624.5,699.2,1621.9,700.1,1619.3,700.1z"/>
		</g>
		<g>
			<path d="M1679.3,880.1c-2.6,0-5.1-1-7.1-2.9l-60-60c-3.9-3.9-3.9-10.2,0-14.1c3.9-3.9,10.2-3.9,14.1,0l60,60
				c3.9,3.9,3.9,10.2,0,14.1C1684.5,879.2,1681.9,880.1,1679.3,880.1z"/>
		</g>
		<g>
			<path d="M1619.3,880.1c-2.6,0-5.1-1-7.1-2.9c-3.9-3.9-3.9-10.2,0-14.1l60-60c3.9-3.9,10.2-3.9,14.1,0s3.9,10.2,0,14.1l-60,60
				C1624.5,879.2,1621.9,880.1,1619.3,880.1z"/>
		</g>
		<g>
			<path d="M1739.4,700.1c-2.6,0-5.1-1-7.1-2.9l-60-60c-3.9-3.9-3.9-10.2,0-14.1c3.9-3.9,10.2-3.9,14.1,0l60,60
				c3.9,3.9,3.9,10.2,0,14.1C1744.5,699.2,1741.9,700.1,1739.4,700.1z"/>
		</g>
		<g>
			<path d="M1679.4,700.1c-2.6,0-5.1-1-7.1-2.9c-3.9-3.9-3.9-10.2,0-14.1l60-60c3.9-3.9,10.2-3.9,14.1,0s3.9,10.2,0,14.1l-60,60
				C1684.5,699.2,1681.9,700.1,1679.4,700.1z"/>
		</g>
		<g>
			<path d="M1799.3,640.2c-2.6,0-5.1-1-7.1-2.9l-60-60c-3.9-3.9-3.9-10.2,0-14.1c3.9-3.9,10.2-3.9,14.1,0l60,60
				c3.9,3.9,3.9,10.2,0,14.1C1804.4,639.2,1801.9,640.2,1799.3,640.2z"/>
		</g>
		<g>
			<path d="M1739.3,640.2c-2.6,0-5.1-1-7.1-2.9c-3.9-3.9-3.9-10.2,0-14.1l60-60c3.9-3.9,10.2-3.9,14.1,0s3.9,10.2,0,14.1l-60,60
				C1744.4,639.2,1741.9,640.2,1739.3,640.2z"/>
		</g>
		<g>
			<path d="M1739.3,820.2c-2.6,0-5.1-1-7.1-2.9l-60-60c-3.9-3.9-3.9-10.2,0-14.1c3.9-3.9,10.2-3.9,14.1,0l60,60
				c3.9,3.9,3.9,10.2,0,14.1C1744.4,819.2,1741.9,820.2,1739.3,820.2z"/>
		</g>
		<g>
			<path d="M1679.3,820.2c-2.6,0-5.1-1-7.1-2.9c-3.9-3.9-3.9-10.2,0-14.1l60-60c3.9-3.9,10.2-3.9,14.1,0s3.9,10.2,0,14.1l-60,60
				C1684.4,819.2,1681.9,820.2,1679.3,820.2z"/>
		</g>
	</g>
</g>
<g id="Layer_2_1_">
	<g id="HomePage">
		<g class="st0">
			<path d="M122.7,742.8c-0.7-2-1.8-2.3-3.8-2.3h-1.1V734h3.3c5.3,0,6.9,1.1,8.7,6.1l18.3,49.9c1.4,3.8,2.8,9.6,2.8,9.6h0.2
				c0,0,1.5-5.8,2.8-9.6l18.3-49.9c1.9-5.2,3.5-6.1,8.8-6.1h3.2v6.5h-1c-2,0-3.1,0.3-3.8,2.3L155,808.2h-7.9L122.7,742.8z"/>
		</g>
		<g class="st0">
			<path d="M195.2,763.6c0-1.5-0.8-2.3-2.3-2.3h-4.4v-6.2h7.5c4.5,0,6.4,1.9,6.4,6.4v38.1c0,1.6,0.8,2.3,2.3,2.3h4.4v6.2h-7.5
				c-4.5,0-6.4-1.9-6.4-6.4V763.6z M195,734h7v9.1h-7V734z"/>
		</g>
		<g class="st0">
			<path d="M217.6,763.7c-0.7-1.9-1.8-2.4-3.7-2.4h-1v-6.2h2.9c5.1,0,6.6,1.1,8.4,5.8l12.8,33.1c1,2.6,1.8,6.2,1.8,6.2h0.2
				c0,0,0.8-3.6,1.8-6.2l12.8-33.1c1.8-4.8,3.4-5.8,8.3-5.8h2.7v6.2h-1c-1.9,0-3.1,0.5-3.7,2.4l-17.3,44.4h-7.8L217.6,763.7z"/>
		</g>
		<g class="st0">
			<path d="M295.5,753.8c14.7,0,22.3,11.3,22.3,24.5c0,1.3-0.2,3.6-0.2,3.6h-40.7c0.2,13.4,9.6,21.1,20.6,21.1
				c9.7,0,15.9-6.5,15.9-6.5l3.5,5.4c0,0-7.7,7.6-19.7,7.6c-15.7,0-27.8-11.4-27.8-27.8C269.3,764.3,281.3,753.8,295.5,753.8z
				 M310.4,776.2c-0.4-11-7.2-16.4-15-16.4c-8.8,0-16.5,5.7-18.3,16.4H310.4z"/>
			<path d="M332.1,763.6c0-1.5-0.8-2.3-2.3-2.3h-4.4v-6.2h7.4c4.4,0,6.4,1.8,6.4,6v3.6c0,2.2-0.2,4-0.2,4h0.2
				c2.5-8,8.4-14.1,16.8-14.1c1.5,0,2.9,0.3,2.9,0.3v7.1c0,0-1.3-0.2-2.6-0.2c-7.5,0-13.1,5.9-15.4,13.7c-1.1,3.4-1.5,7-1.5,10.3
				v22.4h-7.2V763.6z"/>
			<path d="M399.1,763.6c0-1.5-0.8-2.3-2.3-2.3h-4.4v-6.2h7.4c4.4,0,6.4,1.9,6.4,5.9v2.4c0,2.1-0.2,3.8-0.2,3.8h0.2
				c1.9-4.9,8.7-13.4,21.1-13.4c13.2,0,17.8,7.5,17.8,20.6v25.2c0,1.6,0.8,2.3,2.3,2.3h4.4v6.2h-7.5c-4.5,0-6.4-1.9-6.4-6.4v-25.4
				c0-8.3-1.3-15.7-11.5-15.7c-9.1,0-16.9,6.2-19.3,15c-0.6,2.2-0.8,4.6-0.8,7.2v25.4h-7.2V763.6z"/>
			<path d="M490.8,775.4h3v-0.6c0-11.1-4-15-13.7-15c-2.6,0-10.3,0.7-10.3,4.6v3.4h-6.9v-5.1c0-7.4,12.7-9,17.3-9
				c16.8,0,20.8,9,20.8,20.4v25.4c0,1.6,0.8,2.3,2.3,2.3h4.4v6.2h-7.3c-4.5,0-6.3-2-6.3-6.3c0-2.3,0.1-3.9,0.1-3.9h-0.2
				c0.1,0-4.3,11.5-17.6,11.5c-8.9,0-18-5.2-18-15.7C458.3,776.1,481.6,775.4,490.8,775.4z M477.5,803.3c10.1,0,16.3-10.6,16.3-19.7
				v-2.4h-3.1c-8.3,0-25,0.2-25,12.1C465.7,798.2,469.6,803.3,477.5,803.3z"/>
			<path d="M570.8,753.8c6,0,18.9,2.5,18.9,11.3v4.7h-6.8v-3.1c0-4.4-7.7-6.5-12.1-6.5c-11.4,0-20.6,8.5-20.6,21.4
				c0,13.1,9.6,21.2,20.8,21.2c10.9,0,17.1-7.5,17.1-7.5l3.4,5.4c0,0-7.2,8.7-20.8,8.7c-15.8,0-27.9-11.3-27.9-27.8
				C542.8,765.4,554.9,753.8,570.8,753.8z"/>
			<path d="M631,775.4h3v-0.6c0-11.1-4-15-13.7-15c-2.6,0-10.3,0.7-10.3,4.6v3.4h-6.9v-5.1c0-7.4,12.7-9,17.3-9
				c16.8,0,20.8,9,20.8,20.4v25.4c0,1.6,0.8,2.3,2.3,2.3h4.4v6.2h-7.3c-4.5,0-6.3-2-6.3-6.3c0-2.3,0.1-3.9,0.1-3.9h-0.2
				c0.1,0-4.3,11.5-17.6,11.5c-8.9,0-18-5.2-18-15.7C598.5,776.1,621.9,775.4,631,775.4z M617.7,803.3c10.1,0,16.3-10.6,16.3-19.7
				v-2.4h-3.1c-8.3,0-25,0.2-25,12.1C605.9,798.2,609.8,803.3,617.7,803.3z"/>
			<path d="M657.3,795.2c0,0,5.9,8,16.4,8c5.9,0,11.2-2.8,11.2-8.4c0-11.6-29.8-9.5-29.8-26.6c0-9.6,8.2-14.4,18.9-14.4
				c5.4,0,16.1,2.1,16.1,9.6v4.5h-6.8v-2.5c0-3.9-5.7-5.4-9.2-5.4c-7.4,0-11.8,2.5-11.8,7.7c0,11.9,29.8,9.2,29.8,26.8
				c0,8.9-8,14.9-18.6,14.9c-13.8,0-20.4-9.3-20.4-9.3L657.3,795.2z"/>
			<path d="M733.3,775.4h3v-0.6c0-11.1-4-15-13.7-15c-2.6,0-10.3,0.7-10.3,4.6v3.4h-6.9v-5.1c0-7.4,12.7-9,17.3-9
				c16.8,0,20.8,9,20.8,20.4v25.4c0,1.6,0.8,2.3,2.3,2.3h4.4v6.2h-7.3c-4.5,0-6.3-2-6.3-6.3c0-2.3,0.1-3.9,0.1-3.9h-0.2
				c0.1,0-4.3,11.5-17.6,11.5c-8.9,0-18-5.2-18-15.7C700.8,776.1,724.1,775.4,733.3,775.4z M720,803.3c10.1,0,16.3-10.6,16.3-19.7
				v-2.4h-3.1c-8.3,0-25,0.2-25,12.1C708.2,798.2,712.1,803.3,720,803.3z"/>
			<path d="M809.4,753.8c12.9,0,17.3,9.9,17.3,9.9h0.2c0,0-0.2-1.8-0.2-4v-17.2c0-1.5-0.8-2.3-2.3-2.3H820V734h7.5
				c4.5,0,6.4,1.9,6.4,6.4v59.2c0,1.6,0.8,2.3,2.3,2.3h4.4v6.2h-7.4c-4.4,0-6.3-2-6.3-5.9c0-2,0.2-3.4,0.2-3.4h-0.2
				c0,0-4.3,10.6-18.3,10.6c-14.2,0-23.1-11.4-23.1-27.9C785.6,764.8,795.5,753.8,809.4,753.8z M826.9,781.6
				c0-10.8-5.5-21.3-16.9-21.3c-9.4,0-17.1,7.9-17.1,21.3c0,13.1,6.9,21.4,16.8,21.4C818.6,803,826.9,796.7,826.9,781.6z"/>
			<path d="M879.9,775.4h3v-0.6c0-11.1-4-15-13.7-15c-2.6,0-10.3,0.7-10.3,4.6v3.4H852v-5.1c0-7.4,12.7-9,17.3-9
				c16.8,0,20.8,9,20.8,20.4v25.4c0,1.6,0.8,2.3,2.3,2.3h4.4v6.2h-7.3c-4.5,0-6.3-2-6.3-6.3c0-2.3,0.1-3.9,0.1-3.9h-0.2
				c0.1,0-4.3,11.5-17.6,11.5c-8.9,0-18-5.2-18-15.7C847.4,776.1,870.7,775.4,879.9,775.4z M866.6,803.3c10.1,0,16.3-10.6,16.3-19.7
				v-2.4h-3.1c-8.3,0-25,0.2-25,12.1C854.8,798.2,858.7,803.3,866.6,803.3z"/>
		</g>
		<g class="st0">
			<path d="M964.5,775.4h3v-0.6c0-11.1-4-15-13.7-15c-2.6,0-10.3,0.7-10.3,4.6v3.4h-6.9v-5.1c0-7.4,12.7-9,17.3-9
				c16.8,0,20.8,9,20.8,20.4v25.4c0,1.6,0.8,2.3,2.3,2.3h4.4v6.2h-7.3c-4.5,0-6.3-2-6.3-6.3c0-2.3,0.1-3.9,0.1-3.9h-0.2
				c0.1,0-4.3,11.5-17.6,11.5c-8.9,0-18-5.2-18-15.7C932,776.1,955.3,775.4,964.5,775.4z M951.2,803.3c10.1,0,16.3-10.6,16.3-19.7
				v-2.4h-3.1c-8.3,0-25,0.2-25,12.1C939.3,798.2,943.3,803.3,951.2,803.3z"/>
		</g>
		<g class="st0">
			<path d="M988.4,763.7c-0.7-1.9-1.8-2.4-3.7-2.4h-1v-6.2h2.9c5.1,0,6.6,1.1,8.4,5.8l12.8,33.1c1,2.6,1.8,6.2,1.8,6.2h0.2
				c0,0,0.8-3.6,1.8-6.2l12.8-33.1c1.8-4.8,3.4-5.8,8.3-5.8h2.7v6.2h-1c-1.9,0-3.1,0.5-3.7,2.4l-17.3,44.4h-7.8L988.4,763.7z"/>
		</g>
		<g class="st0">
			<path d="M1068.1,753.8c15.5,0,28.1,11.8,28.1,27.5c0,16-12.6,28.1-28,28.1c-15.5,0-28.1-12-28.1-28.1
				C1040.2,765.6,1052.7,753.8,1068.1,753.8z M1068.2,803c11.3,0,20.6-9.3,20.6-21.6c0-12-9.3-21-20.6-21c-11.4,0-20.7,9-20.7,21
				C1047.6,793.7,1056.8,803,1068.2,803z M1072.5,734h8l-9.2,12.6h-6.2L1072.5,734z"/>
		</g>
		<g class="st0">
			<path d="M125.5,856.1c0-1.2-0.7-1.8-1.8-1.8h-3.6v-5.1h6.1c3.6,0,5,1.5,5,5v46.1c0,1.2,0.7,1.8,1.8,1.8h19.3
				c1.2,0,1.8-0.6,1.8-1.8v-3.9h5.5v5.8c0,3.6-1.5,5-5,5h-24c-3.6,0-5-1.5-5-5V856.1z"/>
		</g>
		<g class="st0">
			<path d="M168,872.4c0-1.2-0.7-1.8-1.8-1.8h-3.5v-4.9h5.9c3.6,0,5,1.5,5,5v29.8c0,1.2,0.7,1.8,1.8,1.8h3.5v4.9H173
				c-3.6,0-5-1.5-5-5V872.4z M167.8,849.2h5.5v7.1h-5.5V849.2z"/>
		</g>
		<g class="st0">
			<path d="M185.5,872.5c-0.6-1.5-1.4-1.9-2.9-1.9h-0.7v-4.9h2.2c4,0,5.2,0.8,6.6,4.5l10,25.9c0.7,2.1,1.4,4.9,1.4,4.9h0.2
				c0,0,0.7-2.8,1.4-4.9l10-25.9c1.4-3.7,2.6-4.5,6.5-4.5h2.2v4.9h-0.7c-1.5,0-2.4,0.4-2.9,1.9l-13.5,34.8h-6.1L185.5,872.5z"/>
			<path d="M231.1,872.4c0-1.2-0.7-1.8-1.8-1.8h-3.5v-4.9h5.9c3.6,0,5,1.5,5,5v29.8c0,1.2,0.7,1.8,1.8,1.8h3.5v4.9h-5.9
				c-3.6,0-5-1.5-5-5V872.4z M230.9,849.2h5.5v7.1h-5.5V849.2z"/>
			<path d="M251.4,872.4c0-1.2-0.7-1.8-1.8-1.8h-3.5v-4.9h5.8c3.5,0,5,1.5,5,4.6v1.9c0,1.7-0.2,3-0.2,3h0.2
				c1.5-3.8,6.8-10.5,16.5-10.5c10.3,0,14,5.9,14,16.1v19.8c0,1.2,0.7,1.8,1.8,1.8h3.5v4.9h-5.9c-3.6,0-5-1.5-5-5v-19.9
				c0-6.5-1-12.3-9-12.3c-7.1,0-13.2,4.9-15.1,11.7c-0.5,1.7-0.7,3.6-0.7,5.6v19.9h-5.6V872.4z"/>
			<path d="M315.9,864.7c11.2,0,13.8,7.1,13.8,7.1h0.2c0,0,0-0.7,0-1.6c0-3,1.3-4.5,4.7-4.5h5.8v4.9H337c-1.2,0-1.8,0.6-1.8,1.8
				v33.9c0,13.2-9.7,18.3-20,18.3c-4.7,0-9.5-1.2-13.6-3.3l2.1-4.7c0,0,5.1,2.9,11.2,2.9c8.1,0,14.5-3.8,14.5-13.1v-3.6
				c0-1.6,0.1-3,0.1-3h-0.2c-2.5,4.5-6.6,7.2-13.1,7.2c-11.2,0-18.5-8.8-18.5-21.3C297.9,873.2,304.8,864.7,315.9,864.7z
				 M329.7,885.7c0-12.1-5.8-15.9-13.1-15.9c-8.1,0-12.8,5.9-12.8,15.8c0,9.9,5.4,16.4,13.5,16.4C323.9,902,329.7,897.9,329.7,885.7
				z"/>
			<path d="M372.4,872.4c0-1.2-0.7-1.8-1.8-1.8h-3.5v-4.9h5.9c3.6,0,5,1.5,5,5v29.8c0,1.2,0.7,1.8,1.8,1.8h3.5v4.9h-5.9
				c-3.6,0-5-1.5-5-5V872.4z M372.2,849.2h5.5v7.1h-5.5V849.2z"/>
			<path d="M392.7,872.4c0-1.2-0.7-1.8-1.8-1.8h-3.5v-4.9h5.8c3.5,0,5,1.5,5,4.6v1.9c0,1.7-0.2,3-0.2,3h0.2
				c1.5-3.8,6.8-10.5,16.5-10.5c10.3,0,14,5.9,14,16.1v19.8c0,1.2,0.7,1.8,1.8,1.8h3.5v4.9h-5.9c-3.6,0-5-1.5-5-5v-19.9
				c0-6.5-1-12.3-9-12.3c-7.1,0-13.2,4.9-15.1,11.7c-0.5,1.7-0.7,3.6-0.7,5.6v19.9h-5.6V872.4z"/>
			<path d="M479.7,864.7c11.2,0,13.8,7.1,13.8,7.1h0.2c0,0,0-0.7,0-1.6c0-3,1.3-4.5,4.7-4.5h5.8v4.9h-3.4c-1.2,0-1.8,0.6-1.8,1.8
				v33.9c0,13.2-9.7,18.3-20,18.3c-4.7,0-9.5-1.2-13.6-3.3l2.1-4.7c0,0,5.1,2.9,11.2,2.9c8.1,0,14.5-3.8,14.5-13.1v-3.6
				c0-1.6,0.1-3,0.1-3h-0.2c-2.5,4.5-6.6,7.2-13.1,7.2c-11.2,0-18.5-8.8-18.5-21.3C461.7,873.2,468.5,864.7,479.7,864.7z
				 M493.4,885.7c0-12.1-5.8-15.9-13.1-15.9c-8.1,0-12.8,5.9-12.8,15.8c0,9.9,5.4,16.4,13.5,16.4C487.6,902,493.4,897.9,493.4,885.7
				z"/>
		</g>
		<g class="st0">
			<path d="M513.2,872.4c0-1.2-0.7-1.8-1.8-1.8h-3.5v-4.9h5.8c3.5,0,5,1.4,5,4.7v2.8c0,1.7-0.2,3.1-0.2,3.1h0.2
				c2-6.3,6.6-11.1,13.1-11.1c1.2,0,2.2,0.2,2.2,0.2v5.5c0,0-1-0.2-2.1-0.2c-5.9,0-10.2,4.6-12.1,10.7c-0.8,2.6-1.2,5.5-1.2,8.1
				v17.5h-5.6V872.4z"/>
		</g>
		<g class="st0">
			<path d="M561.9,881.7h2.3v-0.5c0-8.7-3.1-11.7-10.7-11.7c-2.1,0-8.1,0.6-8.1,3.6v2.6H540v-4c0-5.8,9.9-7,13.6-7
				c13.1,0,16.3,7,16.3,15.9v19.9c0,1.2,0.7,1.8,1.8,1.8h3.5v4.9h-5.7c-3.6,0-5-1.6-5-5c0-1.8,0.1-3.1,0.1-3.1h-0.2
				c0.1,0-3.4,9-13.8,9c-6.9,0-14.1-4-14.1-12.3C536.5,882.2,554.7,881.7,561.9,881.7z M551.5,903.5c7.9,0,12.7-8.3,12.7-15.5v-1.9
				h-2.4c-6.5,0-19.6,0.2-19.6,9.5C542.3,899.5,545.3,903.5,551.5,903.5z"/>
			<path d="M584.1,872.4c0-1.2-0.7-1.8-1.8-1.8h-3.5v-4.9h5.8c3.5,0,5,1.5,5,4.6v1.9c0,1.7-0.2,3-0.2,3h0.2
				c1.5-3.8,6.8-10.5,16.5-10.5c10.3,0,14,5.9,14,16.1v19.8c0,1.2,0.7,1.8,1.8,1.8h3.5v4.9h-5.9c-3.6,0-5-1.5-5-5v-19.9
				c0-6.5-1-12.3-9-12.3c-7.1,0-13.2,4.9-15.1,11.7c-0.5,1.7-0.7,3.6-0.7,5.6v19.9h-5.6V872.4z"/>
			<path d="M649.2,864.7c10.1,0,13.6,7.8,13.6,7.8h0.2c0,0-0.2-1.4-0.2-3.1v-13.5c0-1.2-0.7-1.8-1.8-1.8h-3.5v-4.9h5.9
				c3.5,0,5,1.5,5,5v46.4c0,1.2,0.7,1.8,1.8,1.8h3.5v4.9h-5.8c-3.5,0-5-1.6-5-4.6c0-1.6,0.2-2.6,0.2-2.6H663c0,0-3.4,8.3-14.3,8.3
				c-11.2,0-18.1-8.9-18.1-21.8C630.6,873.3,638.3,864.7,649.2,864.7z M663,886.5c0-8.4-4.3-16.7-13.2-16.7
				c-7.4,0-13.4,6.2-13.4,16.7c0,10.2,5.4,16.8,13.1,16.8C656.4,903.2,663,898.3,663,886.5z"/>
			<path d="M682.8,872.4c0-1.2-0.7-1.8-1.8-1.8h-3.5v-4.9h5.8c3.5,0,5,1.5,5,4.6v1.9c0,1.7-0.2,3-0.2,3h0.2
				c2.1-5.6,8.6-10.5,15-10.5c7.7,0,11.7,3.6,12.9,10.4h0.2c2.2-5.6,8.3-10.4,15.3-10.4c10.1,0,13.8,5.9,13.8,16.1v19.8
				c0,1.2,0.7,1.8,1.8,1.8h3.5v4.9H745c-3.5,0-5-1.5-5-5v-20c0-6.8-1.4-12.4-9-12.4c-6.3,0-11.5,5.6-13.1,11.7
				c-0.6,1.8-0.7,3.8-0.7,6v19.7h-5.6v-25c0-6.3-0.9-12.4-8.8-12.4c-6.8,0-11.8,5.9-13.5,12.2c-0.5,1.7-0.7,3.6-0.7,5.5v19.7h-5.6
				V872.4z"/>
		</g>
		<g class="st0">
			<path d="M781.3,881.7h2.3v-0.5c0-8.7-3.1-11.7-10.7-11.7c-2.1,0-8.1,0.6-8.1,3.6v2.6h-5.4v-4c0-5.8,9.9-7,13.6-7
				c13.1,0,16.3,7,16.3,15.9v19.9c0,1.2,0.7,1.8,1.8,1.8h3.5v4.9h-5.7c-3.6,0-5-1.6-5-5c0-1.8,0.1-3.1,0.1-3.1h-0.2
				c0.1,0-3.4,9-13.8,9c-6.9,0-14.1-4-14.1-12.3C755.9,882.2,774.1,881.7,781.3,881.7z M770.9,903.5c7.9,0,12.7-8.3,12.7-15.5v-1.9
				h-2.4c-6.5,0-19.6,0.2-19.6,9.5C761.7,899.5,764.7,903.5,770.9,903.5z"/>
		</g>
		<g class="st0">
			<path d="M800.7,848.4h5.9l-4.6,14.2h-4.5L800.7,848.4z"/>
		</g>
		<g class="st0">
			<path d="M812.6,897.1c0,0,4.6,6.3,12.8,6.3c4.6,0,8.8-2.2,8.8-6.6c0-9.1-23.3-7.4-23.3-20.8c0-7.5,6.4-11.2,14.8-11.2
				c4.2,0,12.6,1.6,12.6,7.5v3.6H833v-2c0-3.1-4.5-4.2-7.2-4.2c-5.8,0-9.3,2-9.3,6c0,9.3,23.3,7.2,23.3,21c0,6.9-6.3,11.6-14.5,11.6
				c-10.8,0-16-7.3-16-7.3L812.6,897.1z"/>
			<path d="M872.8,855.9c0-1.2-0.7-1.8-1.8-1.8h-3.5v-4.9h5.9c3.5,0,5,1.5,5,4.9v17.6c0,1.9-0.2,3.4-0.2,3.4h0.2
				c1.6-4,7.1-10.3,16.4-10.3c10.3,0,14,5.9,14,16.1v19.8c0,1.2,0.7,1.8,1.8,1.8h3.5v4.9h-5.9c-3.6,0-5-1.5-5-5v-19.9
				c0-6.5-1-12.3-9.1-12.3c-7,0-13.1,4.9-15,11.8c-0.5,1.7-0.7,3.6-0.7,5.5v19.9h-5.6V855.9z"/>
			<path d="M941,864.7c12.1,0,22,9.3,22,21.6c0,12.6-9.8,22-21.9,22c-12.1,0-22-9.4-22-22C919.1,874,928.9,864.7,941,864.7z
				 M941.1,903.2c8.8,0,16.1-7.3,16.1-16.9c0-9.4-7.3-16.4-16.1-16.4c-8.9,0-16.2,7-16.2,16.4C924.9,896,932.2,903.2,941.1,903.2z"
				/>
			<path d="M973.3,872.4c0-1.2-0.7-1.8-1.8-1.8H968v-4.9h5.9c3.6,0,5,1.5,5,4.9v20.1c0,6.5,1.1,12.3,9.1,12.3
				c9.4,0,15.3-8.3,15.3-17.4v-19.9h5.6v34.9c0,1.2,0.7,1.8,1.8,1.8h3.5v4.9h-5.7c-3.5,0-5-1.5-5-4.6v-1.9c0-1.6,0.2-3,0.2-3h-0.2
				c-1.7,4-7.1,10.5-16.2,10.5c-9.8,0-14-5.3-14-16.1V872.4z"/>
			<path d="M1021.7,897.1c0,0,4.6,6.3,12.8,6.3c4.6,0,8.8-2.2,8.8-6.6c0-9.1-23.3-7.4-23.3-20.8c0-7.5,6.4-11.2,14.8-11.2
				c4.2,0,12.6,1.6,12.6,7.5v3.6h-5.3v-2c0-3.1-4.5-4.2-7.2-4.2c-5.8,0-9.3,2-9.3,6c0,9.3,23.3,7.2,23.3,21
				c0,6.9-6.3,11.6-14.5,11.6c-10.8,0-15.9-7.3-15.9-7.3L1021.7,897.1z"/>
			<path d="M1076.2,864.7c11.5,0,17.4,8.8,17.4,19.2c0,1-0.2,2.8-0.2,2.8h-31.9c0.2,10.5,7.5,16.5,16.1,16.5
				c7.6,0,12.5-5.1,12.5-5.1l2.7,4.2c0,0-6,5.9-15.5,5.9c-12.3,0-21.7-8.9-21.7-21.7C1055.7,872.9,1065.1,864.7,1076.2,864.7z
				 M1087.9,882.2c-0.3-8.6-5.6-12.8-11.7-12.8c-6.9,0-12.9,4.5-14.3,12.8H1087.9z"/>
		</g>
	</g>
</g>
</svg>
