<?xml version="1.0" encoding="utf-8"?>
<!-- Generator: Adobe Illustrator 22.0.0, SVG Export Plug-In . SVG Version: 6.00 Build 0)  -->
<svg version="1.1" id="Camada_1" xmlns="http://www.w3.org/2000/svg" xmlns:xlink="http://www.w3.org/1999/xlink" x="0px" y="0px"
	 viewBox="0 0 2729.1 1020.4" style="enable-background:new 0 0 2729.1 1020.4;" xml:space="preserve">
<g>
	<g>
		<path d="M210.1,340.2c-2.6,0-5.1-1-7.1-2.9l-60-60c-3.9-3.9-3.9-10.2,0-14.1c3.9-3.9,10.2-3.9,14.1,0l60,60
			c3.9,3.9,3.9,10.2,0,14.1C215.2,339.2,212.6,340.2,210.1,340.2z"/>
	</g>
	<g>
		<path d="M150.1,340.2c-2.6,0-5.1-1-7.1-2.9c-3.9-3.9-3.9-10.2,0-14.1l60-60c3.9-3.9,10.2-3.9,14.1,0c3.9,3.9,3.9,10.2,0,14.1
			l-60,60C155.2,339.2,152.6,340.2,150.1,340.2z"/>
	</g>
	<g>
		<path d="M210.1,460.2c-2.6,0-5.1-1-7.1-2.9l-60-60c-3.9-3.9-3.9-10.2,0-14.1c3.9-3.9,10.2-3.9,14.1,0l60,60
			c3.9,3.9,3.9,10.2,0,14.1C215.2,459.2,212.6,460.2,210.1,460.2z"/>
	</g>
	<g>
		<path d="M150.1,460.2c-2.6,0-5.1-1-7.1-2.9c-3.9-3.9-3.9-10.2,0-14.1l60-60c3.9-3.9,10.2-3.9,14.1,0c3.9,3.9,3.9,10.2,0,14.1
			l-60,60C155.2,459.2,152.6,460.2,150.1,460.2z"/>
	</g>
	<g>
		<path d="M210.1,400.2c-2.6,0-5.1-1-7.1-2.9l-60-60c-3.9-3.9-3.9-10.2,0-14.1c3.9-3.9,10.2-3.9,14.1,0l60,60
			c3.9,3.9,3.9,10.2,0,14.1C215.2,399.2,212.6,400.2,210.1,400.2z"/>
	</g>
	<g>
		<path d="M150.1,400.2c-2.6,0-5.1-1-7.1-2.9c-3.9-3.9-3.9-10.2,0-14.1l60-60c3.9-3.9,10.2-3.9,14.1,0c3.9,3.9,3.9,10.2,0,14.1
			l-60,60C155.2,399.2,152.6,400.2,150.1,400.2z"/>
	</g>
	<g>
		<path d="M210.1,580.2c-2.6,0-5.1-1-7.1-2.9l-60-60c-3.9-3.9-3.9-10.2,0-14.1c3.9-3.9,10.2-3.9,14.1,0l60,60
			c3.9,3.9,3.9,10.2,0,14.1C215.2,579.2,212.6,580.2,210.1,580.2z"/>
	</g>
	<g>
		<path d="M150.1,580.2c-2.6,0-5.1-1-7.1-2.9c-3.9-3.9-3.9-10.2,0-14.1l60-60c3.9-3.9,10.2-3.9,14.1,0c3.9,3.9,3.9,10.2,0,14.1
			l-60,60C155.2,579.2,152.6,580.2,150.1,580.2z"/>
	</g>
	<g>
		<path d="M210.1,520.2c-2.6,0-5.1-1-7.1-2.9l-60-60c-3.9-3.9-3.9-10.2,0-14.1c3.9-3.9,10.2-3.9,14.1,0l60,60
			c3.9,3.9,3.9,10.2,0,14.1C215.2,519.2,212.6,520.2,210.1,520.2z"/>
	</g>
	<g>
		<path d="M150.1,520.2c-2.6,0-5.1-1-7.1-2.9c-3.9-3.9-3.9-10.2,0-14.1l60-60c3.9-3.9,10.2-3.9,14.1,0c3.9,3.9,3.9,10.2,0,14.1
			l-60,60C155.2,519.2,152.6,520.2,150.1,520.2z"/>
	</g>
	<g>
		<path d="M270.1,340.2c-2.6,0-5.1-1-7.1-2.9l-60-60c-3.9-3.9-3.9-10.2,0-14.1c3.9-3.9,10.2-3.9,14.1,0l60,60
			c3.9,3.9,3.9,10.2,0,14.1C275.2,339.2,272.6,340.2,270.1,340.2z"/>
	</g>
	<g>
		<path d="M210.1,340.2c-2.6,0-5.1-1-7.1-2.9c-3.9-3.9-3.9-10.2,0-14.1l60-60c3.9-3.9,10.2-3.9,14.1,0c3.9,3.9,3.9,10.2,0,14.1
			l-60,60C215.2,339.2,212.6,340.2,210.1,340.2z"/>
	</g>
	<g>
		<path d="M270.1,460.2c-2.6,0-5.1-1-7.1-2.9l-60-60c-3.9-3.9-3.9-10.2,0-14.1c3.9-3.9,10.2-3.9,14.1,0l60,60
			c3.9,3.9,3.9,10.2,0,14.1C275.2,459.2,272.6,460.2,270.1,460.2z"/>
	</g>
	<g>
		<path d="M210.1,460.2c-2.6,0-5.1-1-7.1-2.9c-3.9-3.9-3.9-10.2,0-14.1l60-60c3.9-3.9,10.2-3.9,14.1,0c3.9,3.9,3.9,10.2,0,14.1
			l-60,60C215.2,459.2,212.6,460.2,210.1,460.2z"/>
	</g>
	<g>
		<path d="M270.1,400.2c-2.6,0-5.1-1-7.1-2.9l-60-60c-3.9-3.9-3.9-10.2,0-14.1c3.9-3.9,10.2-3.9,14.1,0l60,60
			c3.9,3.9,3.9,10.2,0,14.1C275.2,399.2,272.6,400.2,270.1,400.2z"/>
	</g>
	<g>
		<path d="M210.1,400.2c-2.6,0-5.1-1-7.1-2.9c-3.9-3.9-3.9-10.2,0-14.1l60-60c3.9-3.9,10.2-3.9,14.1,0c3.9,3.9,3.9,10.2,0,14.1
			l-60,60C215.2,399.2,212.6,400.2,210.1,400.2z"/>
	</g>
	<g>
		<path d="M270.1,580.2c-2.6,0-5.1-1-7.1-2.9l-60-60c-3.9-3.9-3.9-10.2,0-14.1c3.9-3.9,10.2-3.9,14.1,0l60,60
			c3.9,3.9,3.9,10.2,0,14.1C275.2,579.2,272.6,580.2,270.1,580.2z"/>
	</g>
	<g>
		<path d="M210.1,580.2c-2.6,0-5.1-1-7.1-2.9c-3.9-3.9-3.9-10.2,0-14.1l60-60c3.9-3.9,10.2-3.9,14.1,0c3.9,3.9,3.9,10.2,0,14.1
			l-60,60C215.2,579.2,212.6,580.2,210.1,580.2z"/>
	</g>
	<g>
		<path d="M270.1,520.2c-2.6,0-5.1-1-7.1-2.9l-60-60c-3.9-3.9-3.9-10.2,0-14.1c3.9-3.9,10.2-3.9,14.1,0l60,60
			c3.9,3.9,3.9,10.2,0,14.1C275.2,519.2,272.7,520.2,270.1,520.2z"/>
	</g>
	<g>
		<path d="M210.1,520.2c-2.6,0-5.1-1-7.1-2.9c-3.9-3.9-3.9-10.2,0-14.1l60-60c3.9-3.9,10.2-3.9,14.1,0c3.9,3.9,3.9,10.2,0,14.1
			l-60,60C215.2,519.2,212.7,520.2,210.1,520.2z"/>
	</g>
	<g>
		<path d="M390.1,580.2c-2.6,0-5.1-1-7.1-2.9l-60-60c-3.9-3.9-3.9-10.2,0-14.1c3.9-3.9,10.2-3.9,14.1,0l60,60
			c3.9,3.9,3.9,10.2,0,14.1C395.2,579.2,392.6,580.2,390.1,580.2z"/>
	</g>
	<g>
		<path d="M330.1,580.2c-2.6,0-5.1-1-7.1-2.9c-3.9-3.9-3.9-10.2,0-14.1l60-60c3.9-3.9,10.2-3.9,14.1,0c3.9,3.9,3.9,10.2,0,14.1
			l-60,60C335.2,579.2,332.6,580.2,330.1,580.2z"/>
	</g>
	<g>
		<path d="M390.1,520.2c-2.6,0-5.1-1-7.1-2.9l-60-60c-3.9-3.9-3.9-10.2,0-14.1c3.9-3.9,10.2-3.9,14.1,0l60,60
			c3.9,3.9,3.9,10.2,0,14.1C395.2,519.2,392.6,520.2,390.1,520.2z"/>
	</g>
	<g>
		<path d="M330.1,520.2c-2.6,0-5.1-1-7.1-2.9c-3.9-3.9-3.9-10.2,0-14.1l60-60c3.9-3.9,10.2-3.9,14.1,0c3.9,3.9,3.9,10.2,0,14.1
			l-60,60C335.2,519.2,332.6,520.2,330.1,520.2z"/>
	</g>
	<g>
		<path d="M450.1,340.2c-2.6,0-5.1-1-7.1-2.9l-60-60c-3.9-3.9-3.9-10.2,0-14.1c3.9-3.9,10.2-3.9,14.1,0l60,60
			c3.9,3.9,3.9,10.2,0,14.1C455.2,339.2,452.6,340.2,450.1,340.2z"/>
	</g>
	<g>
		<path d="M390.1,340.2c-2.6,0-5.1-1-7.1-2.9c-3.9-3.9-3.9-10.2,0-14.1l60-60c3.9-3.9,10.2-3.9,14.1,0c3.9,3.9,3.9,10.2,0,14.1
			l-60,60C395.2,339.2,392.6,340.2,390.1,340.2z"/>
	</g>
	<g>
		<path d="M450.1,460.2c-2.6,0-5.1-1-7.1-2.9l-60-60c-3.9-3.9-3.9-10.2,0-14.1c3.9-3.9,10.2-3.9,14.1,0l60,60
			c3.9,3.9,3.9,10.2,0,14.1C455.2,459.2,452.6,460.2,450.1,460.2z"/>
	</g>
	<g>
		<path d="M390.1,460.2c-2.6,0-5.1-1-7.1-2.9c-3.9-3.9-3.9-10.2,0-14.1l60-60c3.9-3.9,10.2-3.9,14.1,0c3.9,3.9,3.9,10.2,0,14.1
			l-60,60C395.2,459.2,392.6,460.2,390.1,460.2z"/>
	</g>
	<g>
		<path d="M450.1,400.2c-2.6,0-5.1-1-7.1-2.9l-60-60c-3.9-3.9-3.9-10.2,0-14.1c3.9-3.9,10.2-3.9,14.1,0l60,60
			c3.9,3.9,3.9,10.2,0,14.1C455.2,399.2,452.6,400.2,450.1,400.2z"/>
	</g>
	<g>
		<path d="M390.1,400.2c-2.6,0-5.1-1-7.1-2.9c-3.9-3.9-3.9-10.2,0-14.1l60-60c3.9-3.9,10.2-3.9,14.1,0c3.9,3.9,3.9,10.2,0,14.1
			l-60,60C395.2,399.2,392.6,400.2,390.1,400.2z"/>
	</g>
	<g>
		<path d="M450.1,580.2c-2.6,0-5.1-1-7.1-2.9l-60-60c-3.9-3.9-3.9-10.2,0-14.1c3.9-3.9,10.2-3.9,14.1,0l60,60
			c3.9,3.9,3.9,10.2,0,14.1C455.2,579.2,452.6,580.2,450.1,580.2z"/>
	</g>
	<g>
		<path d="M390.1,580.2c-2.6,0-5.1-1-7.1-2.9c-3.9-3.9-3.9-10.2,0-14.1l60-60c3.9-3.9,10.2-3.9,14.1,0c3.9,3.9,3.9,10.2,0,14.1
			l-60,60C395.2,579.2,392.6,580.2,390.1,580.2z"/>
	</g>
	<g>
		<path d="M450.1,520.2c-2.6,0-5.1-1-7.1-2.9l-60-60c-3.9-3.9-3.9-10.2,0-14.1c3.9-3.9,10.2-3.9,14.1,0l60,60
			c3.9,3.9,3.9,10.2,0,14.1C455.2,519.2,452.6,520.2,450.1,520.2z"/>
	</g>
	<g>
		<path d="M390.1,520.2c-2.6,0-5.1-1-7.1-2.9c-3.9-3.9-3.9-10.2,0-14.1l60-60c3.9-3.9,10.2-3.9,14.1,0c3.9,3.9,3.9,10.2,0,14.1
			l-60,60C395.2,519.2,392.6,520.2,390.1,520.2z"/>
	</g>
	<g>
		<path d="M599.8,340.2c-2.6,0-5.1-1-7.1-2.9l-60-60c-3.9-3.9-3.9-10.2,0-14.1c3.9-3.9,10.2-3.9,14.1,0l60,60
			c3.9,3.9,3.9,10.2,0,14.1C604.9,339.2,602.3,340.2,599.8,340.2z"/>
	</g>
	<g>
		<path d="M539.8,340.2c-2.6,0-5.1-1-7.1-2.9c-3.9-3.9-3.9-10.2,0-14.1l60-60c3.9-3.9,10.2-3.9,14.1,0c3.9,3.9,3.9,10.2,0,14.1
			l-60,60C544.9,339.2,542.3,340.2,539.8,340.2z"/>
	</g>
	<g>
		<path d="M599.8,580.2c-2.6,0-5.1-1-7.1-2.9l-60-60c-3.9-3.9-3.9-10.2,0-14.1c3.9-3.9,10.2-3.9,14.1,0l60,60
			c3.9,3.9,3.9,10.2,0,14.1C604.9,579.2,602.3,580.2,599.8,580.2z"/>
	</g>
	<g>
		<path d="M539.8,580.2c-2.6,0-5.1-1-7.1-2.9c-3.9-3.9-3.9-10.2,0-14.1l60-60c3.9-3.9,10.2-3.9,14.1,0c3.9,3.9,3.9,10.2,0,14.1
			l-60,60C544.9,579.2,542.3,580.2,539.8,580.2z"/>
	</g>
	<g>
		<path d="M659.8,340.2c-2.6,0-5.1-1-7.1-2.9l-60-60c-3.9-3.9-3.9-10.2,0-14.1c3.9-3.9,10.2-3.9,14.1,0l60,60
			c3.9,3.9,3.9,10.2,0,14.1C664.9,339.2,662.4,340.2,659.8,340.2z"/>
	</g>
	<g>
		<path d="M599.8,340.2c-2.6,0-5.1-1-7.1-2.9c-3.9-3.9-3.9-10.2,0-14.1l60-60c3.9-3.9,10.2-3.9,14.1,0c3.9,3.9,3.9,10.2,0,14.1
			l-60,60C604.9,339.2,602.4,340.2,599.8,340.2z"/>
	</g>
	<g>
		<path d="M659.8,460.2c-2.6,0-5.1-1-7.1-2.9l-60-60c-3.9-3.9-3.9-10.2,0-14.1c3.9-3.9,10.2-3.9,14.1,0l60,60
			c3.9,3.9,3.9,10.2,0,14.1C664.9,459.2,662.4,460.2,659.8,460.2z"/>
	</g>
	<g>
		<path d="M599.8,460.2c-2.6,0-5.1-1-7.1-2.9c-3.9-3.9-3.9-10.2,0-14.1l60-60c3.9-3.9,10.2-3.9,14.1,0c3.9,3.9,3.9,10.2,0,14.1
			l-60,60C604.9,459.2,602.4,460.2,599.8,460.2z"/>
	</g>
	<g>
		<path d="M659.8,400.2c-2.6,0-5.1-1-7.1-2.9l-60-60c-3.9-3.9-3.9-10.2,0-14.1c3.9-3.9,10.2-3.9,14.1,0l60,60
			c3.9,3.9,3.9,10.2,0,14.1C664.9,399.2,662.4,400.2,659.8,400.2z"/>
	</g>
	<g>
		<path d="M599.8,400.2c-2.6,0-5.1-1-7.1-2.9c-3.9-3.9-3.9-10.2,0-14.1l60-60c3.9-3.9,10.2-3.9,14.1,0c3.9,3.9,3.9,10.2,0,14.1
			l-60,60C604.9,399.2,602.4,400.2,599.8,400.2z"/>
	</g>
	<g>
		<path d="M659.8,580.2c-2.6,0-5.1-1-7.1-2.9l-60-60c-3.9-3.9-3.9-10.2,0-14.1c3.9-3.9,10.2-3.9,14.1,0l60,60
			c3.9,3.9,3.9,10.2,0,14.1C664.9,579.2,662.4,580.2,659.8,580.2z"/>
	</g>
	<g>
		<path d="M599.8,580.2c-2.6,0-5.1-1-7.1-2.9c-3.9-3.9-3.9-10.2,0-14.1l60-60c3.9-3.9,10.2-3.9,14.1,0c3.9,3.9,3.9,10.2,0,14.1
			l-60,60C604.9,579.2,602.4,580.2,599.8,580.2z"/>
	</g>
	<g>
		<path d="M659.8,520.2c-2.6,0-5.1-1-7.1-2.9l-60-60c-3.9-3.9-3.9-10.2,0-14.1c3.9-3.9,10.2-3.9,14.1,0l60,60
			c3.9,3.9,3.9,10.2,0,14.1C664.9,519.2,662.4,520.2,659.8,520.2z"/>
	</g>
	<g>
		<path d="M599.8,520.2c-2.6,0-5.1-1-7.1-2.9c-3.9-3.9-3.9-10.2,0-14.1l60-60c3.9-3.9,10.2-3.9,14.1,0c3.9,3.9,3.9,10.2,0,14.1
			l-60,60C604.9,519.2,602.4,520.2,599.8,520.2z"/>
	</g>
	<g>
		<path d="M2339,460.2c-2.6,0-5.1-1-7.1-2.9l-60-60c-3.9-3.9-3.9-10.2,0-14.1c3.9-3.9,10.2-3.9,14.1,0l60,60
			c3.9,3.9,3.9,10.2,0,14.1C2344.1,459.2,2341.5,460.2,2339,460.2z"/>
	</g>
	<g>
		<path d="M2279,460.2c-2.6,0-5.1-1-7.1-2.9c-3.9-3.9-3.9-10.2,0-14.1l60-60c3.9-3.9,10.2-3.9,14.1,0c3.9,3.9,3.9,10.2,0,14.1
			l-60,60C2284.1,459.2,2281.5,460.2,2279,460.2z"/>
	</g>
	<g>
		<path d="M2339,400.2c-2.6,0-5.1-1-7.1-2.9l-60-60c-3.9-3.9-3.9-10.2,0-14.1c3.9-3.9,10.2-3.9,14.1,0l60,60
			c3.9,3.9,3.9,10.2,0,14.1C2344.1,399.2,2341.5,400.2,2339,400.2z"/>
	</g>
	<g>
		<path d="M2279,400.2c-2.6,0-5.1-1-7.1-2.9c-3.9-3.9-3.9-10.2,0-14.1l60-60c3.9-3.9,10.2-3.9,14.1,0c3.9,3.9,3.9,10.2,0,14.1
			l-60,60C2284.1,399.2,2281.5,400.2,2279,400.2z"/>
	</g>
	<g>
		<path d="M2339,580.2c-2.6,0-5.1-1-7.1-2.9l-60-60c-3.9-3.9-3.9-10.2,0-14.1c3.9-3.9,10.2-3.9,14.1,0l60,60
			c3.9,3.9,3.9,10.2,0,14.1C2344.1,579.2,2341.5,580.2,2339,580.2z"/>
	</g>
	<g>
		<path d="M2279,580.2c-2.6,0-5.1-1-7.1-2.9c-3.9-3.9-3.9-10.2,0-14.1l60-60c3.9-3.9,10.2-3.9,14.1,0c3.9,3.9,3.9,10.2,0,14.1
			l-60,60C2284.1,579.2,2281.5,580.2,2279,580.2z"/>
	</g>
	<g>
		<path d="M2339,520.2c-2.6,0-5.1-1-7.1-2.9l-60-60c-3.9-3.9-3.9-10.2,0-14.1c3.9-3.9,10.2-3.9,14.1,0l60,60
			c3.9,3.9,3.9,10.2,0,14.1C2344.1,519.3,2341.6,520.2,2339,520.2z"/>
	</g>
	<g>
		<path d="M2279,520.2c-2.6,0-5.1-1-7.1-2.9c-3.9-3.9-3.9-10.2,0-14.1l60-60c3.9-3.9,10.2-3.9,14.1,0c3.9,3.9,3.9,10.2,0,14.1
			l-60,60C2284.1,519.3,2281.6,520.2,2279,520.2z"/>
	</g>
	<g>
		<path d="M2399,340.3c-2.6,0-5.1-1-7.1-2.9l-60-60c-3.9-3.9-3.9-10.2,0-14.1c3.9-3.9,10.2-3.9,14.1,0l60,60
			c3.9,3.9,3.9,10.2,0,14.1C2404.1,339.3,2401.5,340.3,2399,340.3z"/>
	</g>
	<g>
		<path d="M2339,340.3c-2.6,0-5.1-1-7.1-2.9c-3.9-3.9-3.9-10.2,0-14.1l60-60c3.9-3.9,10.2-3.9,14.1,0c3.9,3.9,3.9,10.2,0,14.1
			l-60,60C2344.1,339.3,2341.5,340.3,2339,340.3z"/>
	</g>
	<g>
		<path d="M2399,460.2c-2.6,0-5.1-1-7.1-2.9l-60-60c-3.9-3.9-3.9-10.2,0-14.1c3.9-3.9,10.2-3.9,14.1,0l60,60
			c3.9,3.9,3.9,10.2,0,14.1C2404.1,459.2,2401.5,460.2,2399,460.2z"/>
	</g>
	<g>
		<path d="M2339,460.2c-2.6,0-5.1-1-7.1-2.9c-3.9-3.9-3.9-10.2,0-14.1l60-60c3.9-3.9,10.2-3.9,14.1,0c3.9,3.9,3.9,10.2,0,14.1
			l-60,60C2344.1,459.2,2341.5,460.2,2339,460.2z"/>
	</g>
	<g>
		<path d="M2399,400.2c-2.6,0-5.1-1-7.1-2.9l-60-60c-3.9-3.9-3.9-10.2,0-14.1c3.9-3.9,10.2-3.9,14.1,0l60,60
			c3.9,3.9,3.9,10.2,0,14.1C2404.1,399.2,2401.5,400.2,2399,400.2z"/>
	</g>
	<g>
		<path d="M2339,400.2c-2.6,0-5.1-1-7.1-2.9c-3.9-3.9-3.9-10.2,0-14.1l60-60c3.9-3.9,10.2-3.9,14.1,0c3.9,3.9,3.9,10.2,0,14.1
			l-60,60C2344.1,399.2,2341.5,400.2,2339,400.2z"/>
	</g>
	<g>
		<path d="M2399,580.2c-2.6,0-5.1-1-7.1-2.9l-60-60c-3.9-3.9-3.9-10.2,0-14.1c3.9-3.9,10.2-3.9,14.1,0l60,60
			c3.9,3.9,3.9,10.2,0,14.1C2404.1,579.2,2401.5,580.2,2399,580.2z"/>
	</g>
	<g>
		<path d="M2339,580.2c-2.6,0-5.1-1-7.1-2.9c-3.9-3.9-3.9-10.2,0-14.1l60-60c3.9-3.9,10.2-3.9,14.1,0c3.9,3.9,3.9,10.2,0,14.1
			l-60,60C2344.1,579.2,2341.5,580.2,2339,580.2z"/>
	</g>
	<g>
		<path d="M2399,520.2c-2.6,0-5.1-1-7.1-2.9l-60-60c-3.9-3.9-3.9-10.2,0-14.1c3.9-3.9,10.2-3.9,14.1,0l60,60
			c3.9,3.9,3.9,10.2,0,14.1C2404.1,519.3,2401.5,520.2,2399,520.2z"/>
	</g>
	<g>
		<path d="M2339,520.2c-2.6,0-5.1-1-7.1-2.9c-3.9-3.9-3.9-10.2,0-14.1l60-60c3.9-3.9,10.2-3.9,14.1,0c3.9,3.9,3.9,10.2,0,14.1
			l-60,60C2344.1,519.3,2341.5,520.2,2339,520.2z"/>
	</g>
	<g>
		<path d="M2459,340.3c-2.6,0-5.1-1-7.1-2.9l-60-60c-3.9-3.9-3.9-10.2,0-14.1c3.9-3.9,10.2-3.9,14.1,0l60,60
			c3.9,3.9,3.9,10.2,0,14.1C2464.1,339.3,2461.5,340.3,2459,340.3z"/>
	</g>
	<g>
		<path d="M2399,340.3c-2.6,0-5.1-1-7.1-2.9c-3.9-3.9-3.9-10.2,0-14.1l60-60c3.9-3.9,10.2-3.9,14.1,0c3.9,3.9,3.9,10.2,0,14.1
			l-60,60C2404.1,339.3,2401.5,340.3,2399,340.3z"/>
	</g>
	<g>
		<path d="M2518.9,340.3c-2.6,0-5.1-1-7.1-2.9l-60-60c-3.9-3.9-3.9-10.2,0-14.1c3.9-3.9,10.2-3.9,14.1,0l60,60
			c3.9,3.9,3.9,10.2,0,14.1C2524.1,339.3,2521.5,340.3,2518.9,340.3z"/>
	</g>
	<g>
		<path d="M2458.9,340.3c-2.6,0-5.1-1-7.1-2.9c-3.9-3.9-3.9-10.2,0-14.1l60-60c3.9-3.9,10.2-3.9,14.1,0c3.9,3.9,3.9,10.2,0,14.1
			l-60,60C2464.1,339.3,2461.5,340.3,2458.9,340.3z"/>
	</g>
	<g>
		<path d="M2518.9,280.2c-2.6,0-5.1-1-7.1-2.9l-60-60c-3.9-3.9-3.9-10.2,0-14.1c3.9-3.9,10.2-3.9,14.1,0l60,60
			c3.9,3.9,3.9,10.2,0,14.1C2524.1,279.3,2521.5,280.2,2518.9,280.2z"/>
	</g>
	<g>
		<path d="M2458.9,280.2c-2.6,0-5.1-1-7.1-2.9c-3.9-3.9-3.9-10.2,0-14.1l60-60c3.9-3.9,10.2-3.9,14.1,0c3.9,3.9,3.9,10.2,0,14.1
			l-60,60C2464.1,279.3,2461.5,280.2,2458.9,280.2z"/>
	</g>
	<g>
		<path d="M2518.9,580.2c-2.6,0-5.1-1-7.1-2.9l-60-60c-3.9-3.9-3.9-10.2,0-14.1c3.9-3.9,10.2-3.9,14.1,0l60,60
			c3.9,3.9,3.9,10.2,0,14.1C2524.1,579.2,2521.5,580.2,2518.9,580.2z"/>
	</g>
	<g>
		<path d="M2458.9,580.2c-2.6,0-5.1-1-7.1-2.9c-3.9-3.9-3.9-10.2,0-14.1l60-60c3.9-3.9,10.2-3.9,14.1,0c3.9,3.9,3.9,10.2,0,14.1
			l-60,60C2464.1,579.2,2461.5,580.2,2458.9,580.2z"/>
	</g>
	<g>
		<path d="M2579,280.2c-2.6,0-5.1-1-7.1-2.9l-60-60c-3.9-3.9-3.9-10.2,0-14.1c3.9-3.9,10.2-3.9,14.1,0l60,60
			c3.9,3.9,3.9,10.2,0,14.1C2584.1,279.3,2581.5,280.2,2579,280.2z"/>
	</g>
	<g>
		<path d="M2519,280.2c-2.6,0-5.1-1-7.1-2.9c-3.9-3.9-3.9-10.2,0-14.1l60-60c3.9-3.9,10.2-3.9,14.1,0c3.9,3.9,3.9,10.2,0,14.1
			l-60,60C2524.1,279.3,2521.5,280.2,2519,280.2z"/>
	</g>
	<g>
		<path d="M2579,460.2c-2.6,0-5.1-1-7.1-2.9l-60-60c-3.9-3.9-3.9-10.2,0-14.1c3.9-3.9,10.2-3.9,14.1,0l60,60
			c3.9,3.9,3.9,10.2,0,14.1C2584.1,459.2,2581.5,460.2,2579,460.2z"/>
	</g>
	<g>
		<path d="M2519,460.2c-2.6,0-5.1-1-7.1-2.9c-3.9-3.9-3.9-10.2,0-14.1l60-60c3.9-3.9,10.2-3.9,14.1,0c3.9,3.9,3.9,10.2,0,14.1
			l-60,60C2524.1,459.2,2521.5,460.2,2519,460.2z"/>
	</g>
	<g>
		<path d="M2579,400.2c-2.6,0-5.1-1-7.1-2.9l-60-60c-3.9-3.9-3.9-10.2,0-14.1c3.9-3.9,10.2-3.9,14.1,0l60,60
			c3.9,3.9,3.9,10.2,0,14.1C2584.1,399.2,2581.5,400.2,2579,400.2z"/>
	</g>
	<g>
		<path d="M2519,400.2c-2.6,0-5.1-1-7.1-2.9c-3.9-3.9-3.9-10.2,0-14.1l60-60c3.9-3.9,10.2-3.9,14.1,0c3.9,3.9,3.9,10.2,0,14.1
			l-60,60C2524.1,399.2,2521.5,400.2,2519,400.2z"/>
	</g>
	<g>
		<path d="M2579,580.2c-2.6,0-5.1-1-7.1-2.9l-60-60c-3.9-3.9-3.9-10.2,0-14.1c3.9-3.9,10.2-3.9,14.1,0l60,60
			c3.9,3.9,3.9,10.2,0,14.1C2584.1,579.2,2581.5,580.2,2579,580.2z"/>
	</g>
	<g>
		<path d="M2519,580.2c-2.6,0-5.1-1-7.1-2.9c-3.9-3.9-3.9-10.2,0-14.1l60-60c3.9-3.9,10.2-3.9,14.1,0c3.9,3.9,3.9,10.2,0,14.1
			l-60,60C2524.1,579.2,2521.5,580.2,2519,580.2z"/>
	</g>
	<g>
		<path d="M2579,520.2c-2.6,0-5.1-1-7.1-2.9l-60-60c-3.9-3.9-3.9-10.2,0-14.1c3.9-3.9,10.2-3.9,14.1,0l60,60
			c3.9,3.9,3.9,10.2,0,14.1C2584.1,519.3,2581.5,520.2,2579,520.2z"/>
	</g>
	<g>
		<path d="M2519,520.2c-2.6,0-5.1-1-7.1-2.9c-3.9-3.9-3.9-10.2,0-14.1l60-60c3.9-3.9,10.2-3.9,14.1,0c3.9,3.9,3.9,10.2,0,14.1
			l-60,60C2524.1,519.3,2521.5,520.2,2519,520.2z"/>
	</g>
	<g>
		<path d="M270.1,640.1c-2.6,0-5.1-1-7.1-2.9l-60-60c-3.9-3.9-3.9-10.2,0-14.1c3.9-3.9,10.2-3.9,14.1,0l60,60
			c3.9,3.9,3.9,10.2,0,14.1C275.2,639.2,272.6,640.1,270.1,640.1z"/>
	</g>
	<g>
		<path d="M210.1,640.1c-2.6,0-5.1-1-7.1-2.9c-3.9-3.9-3.9-10.2,0-14.1l60-60c3.9-3.9,10.2-3.9,14.1,0c3.9,3.9,3.9,10.2,0,14.1
			l-60,60C215.2,639.2,212.6,640.1,210.1,640.1z"/>
	</g>
	<g>
		<path d="M330.1,700.1c-2.6,0-5.1-1-7.1-2.9l-60-60c-3.9-3.9-3.9-10.2,0-14.1c3.9-3.9,10.2-3.9,14.1,0l60,60
			c3.9,3.9,3.9,10.2,0,14.1C335.2,699.2,332.6,700.1,330.1,700.1z"/>
	</g>
	<g>
		<path d="M270.1,700.1c-2.6,0-5.1-1-7.1-2.9c-3.9-3.9-3.9-10.2,0-14.1l60-60c3.9-3.9,10.2-3.9,14.1,0c3.9,3.9,3.9,10.2,0,14.1
			l-60,60C275.2,699.2,272.6,700.1,270.1,700.1z"/>
	</g>
	<g>
		<path d="M330.1,640.1c-2.6,0-5.1-1-7.1-2.9l-60-60c-3.9-3.9-3.9-10.2,0-14.1c3.9-3.9,10.2-3.9,14.1,0l60,60
			c3.9,3.9,3.9,10.2,0,14.1C335.2,639.2,332.6,640.1,330.1,640.1z"/>
	</g>
	<g>
		<path d="M270.1,640.1c-2.6,0-5.1-1-7.1-2.9c-3.9-3.9-3.9-10.2,0-14.1l60-60c3.9-3.9,10.2-3.9,14.1,0c3.9,3.9,3.9,10.2,0,14.1
			l-60,60C275.2,639.2,272.6,640.1,270.1,640.1z"/>
	</g>
	<g>
		<path d="M390.1,640.1c-2.6,0-5.1-1-7.1-2.9l-60-60c-3.9-3.9-3.9-10.2,0-14.1c3.9-3.9,10.2-3.9,14.1,0l60,60
			c3.9,3.9,3.9,10.2,0,14.1C395.2,639.2,392.6,640.1,390.1,640.1z"/>
	</g>
	<g>
		<path d="M330.1,640.1c-2.6,0-5.1-1-7.1-2.9c-3.9-3.9-3.9-10.2,0-14.1l60-60c3.9-3.9,10.2-3.9,14.1,0c3.9,3.9,3.9,10.2,0,14.1
			l-60,60C335.2,639.2,332.6,640.1,330.1,640.1z"/>
	</g>
	<g>
		<path d="M809.6,340.2c-2.6,0-5.1-1-7.1-2.9l-60-60c-3.9-3.9-3.9-10.2,0-14.1c3.9-3.9,10.2-3.9,14.1,0l60,60
			c3.9,3.9,3.9,10.2,0,14.1C814.7,339.2,812.1,340.2,809.6,340.2z"/>
	</g>
	<g>
		<path d="M749.6,340.2c-2.6,0-5.1-1-7.1-2.9c-3.9-3.9-3.9-10.2,0-14.1l60-60c3.9-3.9,10.2-3.9,14.1,0c3.9,3.9,3.9,10.2,0,14.1
			l-60,60C754.7,339.2,752.1,340.2,749.6,340.2z"/>
	</g>
	<g>
		<path d="M809.6,460.2c-2.6,0-5.1-1-7.1-2.9l-60-60c-3.9-3.9-3.9-10.2,0-14.1c3.9-3.9,10.2-3.9,14.1,0l60,60
			c3.9,3.9,3.9,10.2,0,14.1C814.7,459.2,812.1,460.2,809.6,460.2z"/>
	</g>
	<g>
		<path d="M749.6,460.2c-2.6,0-5.1-1-7.1-2.9c-3.9-3.9-3.9-10.2,0-14.1l60-60c3.9-3.9,10.2-3.9,14.1,0c3.9,3.9,3.9,10.2,0,14.1
			l-60,60C754.7,459.2,752.1,460.2,749.6,460.2z"/>
	</g>
	<g>
		<path d="M809.6,400.2c-2.6,0-5.1-1-7.1-2.9l-60-60c-3.9-3.9-3.9-10.2,0-14.1c3.9-3.9,10.2-3.9,14.1,0l60,60
			c3.9,3.9,3.9,10.2,0,14.1C814.7,399.2,812.1,400.2,809.6,400.2z"/>
	</g>
	<g>
		<path d="M749.6,400.2c-2.6,0-5.1-1-7.1-2.9c-3.9-3.9-3.9-10.2,0-14.1l60-60c3.9-3.9,10.2-3.9,14.1,0c3.9,3.9,3.9,10.2,0,14.1
			l-60,60C754.7,399.2,752.1,400.2,749.6,400.2z"/>
	</g>
	<g>
		<path d="M809.6,580.2c-2.6,0-5.1-1-7.1-2.9l-60-60c-3.9-3.9-3.9-10.2,0-14.1c3.9-3.9,10.2-3.9,14.1,0l60,60
			c3.9,3.9,3.9,10.2,0,14.1C814.7,579.2,812.1,580.2,809.6,580.2z"/>
	</g>
	<g>
		<path d="M749.6,580.2c-2.6,0-5.1-1-7.1-2.9c-3.9-3.9-3.9-10.2,0-14.1l60-60c3.9-3.9,10.2-3.9,14.1,0c3.9,3.9,3.9,10.2,0,14.1
			l-60,60C754.7,579.2,752.1,580.2,749.6,580.2z"/>
	</g>
	<g>
		<path d="M809.6,520.2c-2.6,0-5.1-1-7.1-2.9l-60-60c-3.9-3.9-3.9-10.2,0-14.1c3.9-3.9,10.2-3.9,14.1,0l60,60
			c3.9,3.9,3.9,10.2,0,14.1C814.7,519.2,812.1,520.2,809.6,520.2z"/>
	</g>
	<g>
		<path d="M749.6,520.2c-2.6,0-5.1-1-7.1-2.9c-3.9-3.9-3.9-10.2,0-14.1l60-60c3.9-3.9,10.2-3.9,14.1,0c3.9,3.9,3.9,10.2,0,14.1
			l-60,60C754.7,519.2,752.1,520.2,749.6,520.2z"/>
	</g>
	<g>
		<path d="M869.6,340.2c-2.6,0-5.1-1-7.1-2.9l-60-60c-3.9-3.9-3.9-10.2,0-14.1c3.9-3.9,10.2-3.9,14.1,0l60,60
			c3.9,3.9,3.9,10.2,0,14.1C874.7,339.2,872.1,340.2,869.6,340.2z"/>
	</g>
	<g>
		<path d="M809.6,340.2c-2.6,0-5.1-1-7.1-2.9c-3.9-3.9-3.9-10.2,0-14.1l60-60c3.9-3.9,10.2-3.9,14.1,0c3.9,3.9,3.9,10.2,0,14.1
			l-60,60C814.7,339.2,812.1,340.2,809.6,340.2z"/>
	</g>
	<g>
		<path d="M869.6,460.2c-2.6,0-5.1-1-7.1-2.9l-60-60c-3.9-3.9-3.9-10.2,0-14.1c3.9-3.9,10.2-3.9,14.1,0l60,60
			c3.9,3.9,3.9,10.2,0,14.1C874.7,459.2,872.1,460.2,869.6,460.2z"/>
	</g>
	<g>
		<path d="M809.6,460.2c-2.6,0-5.1-1-7.1-2.9c-3.9-3.9-3.9-10.2,0-14.1l60-60c3.9-3.9,10.2-3.9,14.1,0c3.9,3.9,3.9,10.2,0,14.1
			l-60,60C814.7,459.2,812.1,460.2,809.6,460.2z"/>
	</g>
	<g>
		<path d="M869.6,400.2c-2.6,0-5.1-1-7.1-2.9l-60-60c-3.9-3.9-3.9-10.2,0-14.1c3.9-3.9,10.2-3.9,14.1,0l60,60
			c3.9,3.9,3.9,10.2,0,14.1C874.7,399.2,872.1,400.2,869.6,400.2z"/>
	</g>
	<g>
		<path d="M809.6,400.2c-2.6,0-5.1-1-7.1-2.9c-3.9-3.9-3.9-10.2,0-14.1l60-60c3.9-3.9,10.2-3.9,14.1,0c3.9,3.9,3.9,10.2,0,14.1
			l-60,60C814.7,399.2,812.1,400.2,809.6,400.2z"/>
	</g>
	<g>
		<path d="M869.6,580.2c-2.6,0-5.1-1-7.1-2.9l-60-60c-3.9-3.9-3.9-10.2,0-14.1c3.9-3.9,10.2-3.9,14.1,0l60,60
			c3.9,3.9,3.9,10.2,0,14.1C874.7,579.2,872.1,580.2,869.6,580.2z"/>
	</g>
	<g>
		<path d="M809.6,580.2c-2.6,0-5.1-1-7.1-2.9c-3.9-3.9-3.9-10.2,0-14.1l60-60c3.9-3.9,10.2-3.9,14.1,0c3.9,3.9,3.9,10.2,0,14.1
			l-60,60C814.7,579.2,812.1,580.2,809.6,580.2z"/>
	</g>
	<g>
		<path d="M869.6,520.2c-2.6,0-5.1-1-7.1-2.9l-60-60c-3.9-3.9-3.9-10.2,0-14.1c3.9-3.9,10.2-3.9,14.1,0l60,60
			c3.9,3.9,3.9,10.2,0,14.1C874.7,519.2,872.1,520.2,869.6,520.2z"/>
	</g>
	<g>
		<path d="M809.6,520.2c-2.6,0-5.1-1-7.1-2.9c-3.9-3.9-3.9-10.2,0-14.1l60-60c3.9-3.9,10.2-3.9,14.1,0c3.9,3.9,3.9,10.2,0,14.1
			l-60,60C814.7,519.2,812.1,520.2,809.6,520.2z"/>
	</g>
	<g>
		<path d="M989.6,580.2c-2.6,0-5.1-1-7.1-2.9l-60-60c-3.9-3.9-3.9-10.2,0-14.1c3.9-3.9,10.2-3.9,14.1,0l60,60
			c3.9,3.9,3.9,10.2,0,14.1C994.7,579.2,992.1,580.2,989.6,580.2z"/>
	</g>
	<g>
		<path d="M929.6,580.2c-2.6,0-5.1-1-7.1-2.9c-3.9-3.9-3.9-10.2,0-14.1l60-60c3.9-3.9,10.2-3.9,14.1,0c3.9,3.9,3.9,10.2,0,14.1
			l-60,60C934.7,579.2,932.1,580.2,929.6,580.2z"/>
	</g>
	<g>
		<path d="M989.6,520.2c-2.6,0-5.1-1-7.1-2.9l-60-60c-3.9-3.9-3.9-10.2,0-14.1c3.9-3.9,10.2-3.9,14.1,0l60,60
			c3.9,3.9,3.9,10.2,0,14.1C994.7,519.2,992.1,520.2,989.6,520.2z"/>
	</g>
	<g>
		<path d="M929.6,520.2c-2.6,0-5.1-1-7.1-2.9c-3.9-3.9-3.9-10.2,0-14.1l60-60c3.9-3.9,10.2-3.9,14.1,0c3.9,3.9,3.9,10.2,0,14.1
			l-60,60C934.7,519.2,932.1,520.2,929.6,520.2z"/>
	</g>
	<g>
		<path d="M1049.5,340.2c-2.6,0-5.1-1-7.1-2.9l-60-60c-3.9-3.9-3.9-10.2,0-14.1c3.9-3.9,10.2-3.9,14.1,0l60,60
			c3.9,3.9,3.9,10.2,0,14.1C1054.7,339.2,1052.1,340.2,1049.5,340.2z"/>
	</g>
	<g>
		<path d="M989.5,340.2c-2.6,0-5.1-1-7.1-2.9c-3.9-3.9-3.9-10.2,0-14.1l60-60c3.9-3.9,10.2-3.9,14.1,0c3.9,3.9,3.9,10.2,0,14.1
			l-60,60C994.7,339.2,992.1,340.2,989.5,340.2z"/>
	</g>
	<g>
		<path d="M1049.5,460.2c-2.6,0-5.1-1-7.1-2.9l-60-60c-3.9-3.9-3.9-10.2,0-14.1c3.9-3.9,10.2-3.9,14.1,0l60,60
			c3.9,3.9,3.9,10.2,0,14.1C1054.7,459.2,1052.1,460.2,1049.5,460.2z"/>
	</g>
	<g>
		<path d="M989.5,460.2c-2.6,0-5.1-1-7.1-2.9c-3.9-3.9-3.9-10.2,0-14.1l60-60c3.9-3.9,10.2-3.9,14.1,0c3.9,3.9,3.9,10.2,0,14.1
			l-60,60C994.7,459.2,992.1,460.2,989.5,460.2z"/>
	</g>
	<g>
		<path d="M1049.5,400.2c-2.6,0-5.1-1-7.1-2.9l-60-60c-3.9-3.9-3.9-10.2,0-14.1c3.9-3.9,10.2-3.9,14.1,0l60,60
			c3.9,3.9,3.9,10.2,0,14.1C1054.7,399.2,1052.1,400.2,1049.5,400.2z"/>
	</g>
	<g>
		<path d="M989.5,400.2c-2.6,0-5.1-1-7.1-2.9c-3.9-3.9-3.9-10.2,0-14.1l60-60c3.9-3.9,10.2-3.9,14.1,0c3.9,3.9,3.9,10.2,0,14.1
			l-60,60C994.7,399.2,992.1,400.2,989.5,400.2z"/>
	</g>
	<g>
		<path d="M1049.5,580.2c-2.6,0-5.1-1-7.1-2.9l-60-60c-3.9-3.9-3.9-10.2,0-14.1c3.9-3.9,10.2-3.9,14.1,0l60,60
			c3.9,3.9,3.9,10.2,0,14.1C1054.7,579.2,1052.1,580.2,1049.5,580.2z"/>
	</g>
	<g>
		<path d="M989.5,580.2c-2.6,0-5.1-1-7.1-2.9c-3.9-3.9-3.9-10.2,0-14.1l60-60c3.9-3.9,10.2-3.9,14.1,0c3.9,3.9,3.9,10.2,0,14.1
			l-60,60C994.7,579.2,992.1,580.2,989.5,580.2z"/>
	</g>
	<g>
		<path d="M1049.6,520.2c-2.6,0-5.1-1-7.1-2.9l-60-60c-3.9-3.9-3.9-10.2,0-14.1c3.9-3.9,10.2-3.9,14.1,0l60,60
			c3.9,3.9,3.9,10.2,0,14.1C1054.7,519.2,1052.1,520.2,1049.6,520.2z"/>
	</g>
	<g>
		<path d="M989.6,520.2c-2.6,0-5.1-1-7.1-2.9c-3.9-3.9-3.9-10.2,0-14.1l60-60c3.9-3.9,10.2-3.9,14.1,0c3.9,3.9,3.9,10.2,0,14.1
			l-60,60C994.7,519.2,992.1,520.2,989.6,520.2z"/>
	</g>
	<g>
		<path d="M869.6,640.1c-2.6,0-5.1-1-7.1-2.9l-60-60c-3.9-3.9-3.9-10.2,0-14.1c3.9-3.9,10.2-3.9,14.1,0l60,60
			c3.9,3.9,3.9,10.2,0,14.1C874.7,639.2,872.1,640.1,869.6,640.1z"/>
	</g>
	<g>
		<path d="M809.6,640.1c-2.6,0-5.1-1-7.1-2.9c-3.9-3.9-3.9-10.2,0-14.1l60-60c3.9-3.9,10.2-3.9,14.1,0c3.9,3.9,3.9,10.2,0,14.1
			l-60,60C814.7,639.2,812.1,640.1,809.6,640.1z"/>
	</g>
	<g>
		<path d="M929.5,700.1c-2.6,0-5.1-1-7.1-2.9l-60-60c-3.9-3.9-3.9-10.2,0-14.1c3.9-3.9,10.2-3.9,14.1,0l60,60
			c3.9,3.9,3.9,10.2,0,14.1C934.7,699.2,932.1,700.1,929.5,700.1z"/>
	</g>
	<g>
		<path d="M869.5,700.1c-2.6,0-5.1-1-7.1-2.9c-3.9-3.9-3.9-10.2,0-14.1l60-60c3.9-3.9,10.2-3.9,14.1,0c3.9,3.9,3.9,10.2,0,14.1
			l-60,60C874.7,699.2,872.1,700.1,869.5,700.1z"/>
	</g>
	<g>
		<path d="M929.5,640.1c-2.6,0-5.1-1-7.1-2.9l-60-60c-3.9-3.9-3.9-10.2,0-14.1c3.9-3.9,10.2-3.9,14.1,0l60,60
			c3.9,3.9,3.9,10.2,0,14.1C934.7,639.2,932.1,640.1,929.5,640.1z"/>
	</g>
	<g>
		<path d="M869.5,640.1c-2.6,0-5.1-1-7.1-2.9c-3.9-3.9-3.9-10.2,0-14.1l60-60c3.9-3.9,10.2-3.9,14.1,0c3.9,3.9,3.9,10.2,0,14.1
			l-60,60C874.7,639.2,872.1,640.1,869.5,640.1z"/>
	</g>
	<g>
		<path d="M989.6,640.1c-2.6,0-5.1-1-7.1-2.9l-60-60c-3.9-3.9-3.9-10.2,0-14.1c3.9-3.9,10.2-3.9,14.1,0l60,60
			c3.9,3.9,3.9,10.2,0,14.1C994.7,639.2,992.1,640.1,989.6,640.1z"/>
	</g>
	<g>
		<path d="M929.6,640.1c-2.6,0-5.1-1-7.1-2.9c-3.9-3.9-3.9-10.2,0-14.1l60-60c3.9-3.9,10.2-3.9,14.1,0c3.9,3.9,3.9,10.2,0,14.1
			l-60,60C934.7,639.2,932.1,640.1,929.6,640.1z"/>
	</g>
	<g>
		<path d="M1949.2,340.2c-2.6,0-5.1-1-7.1-2.9l-60-60c-3.9-3.9-3.9-10.2,0-14.1c3.9-3.9,10.2-3.9,14.1,0l60,60
			c3.9,3.9,3.9,10.2,0,14.1C1954.3,339.2,1951.7,340.2,1949.2,340.2z"/>
	</g>
	<g>
		<path d="M1889.2,340.2c-2.6,0-5.1-1-7.1-2.9c-3.9-3.9-3.9-10.2,0-14.1l60-60c3.9-3.9,10.2-3.9,14.1,0c3.9,3.9,3.9,10.2,0,14.1
			l-60,60C1894.3,339.2,1891.7,340.2,1889.2,340.2z"/>
	</g>
	<g>
		<path d="M1949.2,460.2c-2.6,0-5.1-1-7.1-2.9l-60-60c-3.9-3.9-3.9-10.2,0-14.1c3.9-3.9,10.2-3.9,14.1,0l60,60
			c3.9,3.9,3.9,10.2,0,14.1C1954.3,459.2,1951.7,460.2,1949.2,460.2z"/>
	</g>
	<g>
		<path d="M1889.2,460.2c-2.6,0-5.1-1-7.1-2.9c-3.9-3.9-3.9-10.2,0-14.1l60-60c3.9-3.9,10.2-3.9,14.1,0c3.9,3.9,3.9,10.2,0,14.1
			l-60,60C1894.3,459.2,1891.7,460.2,1889.2,460.2z"/>
	</g>
	<g>
		<path d="M1949.2,400.2c-2.6,0-5.1-1-7.1-2.9l-60-60c-3.9-3.9-3.9-10.2,0-14.1c3.9-3.9,10.2-3.9,14.1,0l60,60
			c3.9,3.9,3.9,10.2,0,14.1C1954.3,399.2,1951.7,400.2,1949.2,400.2z"/>
	</g>
	<g>
		<path d="M1889.2,400.2c-2.6,0-5.1-1-7.1-2.9c-3.9-3.9-3.9-10.2,0-14.1l60-60c3.9-3.9,10.2-3.9,14.1,0c3.9,3.9,3.9,10.2,0,14.1
			l-60,60C1894.3,399.2,1891.7,400.2,1889.2,400.2z"/>
	</g>
	<g>
		<path d="M1949.2,580.2c-2.6,0-5.1-1-7.1-2.9l-60-60c-3.9-3.9-3.9-10.2,0-14.1c3.9-3.9,10.2-3.9,14.1,0l60,60
			c3.9,3.9,3.9,10.2,0,14.1C1954.3,579.2,1951.7,580.2,1949.2,580.2z"/>
	</g>
	<g>
		<path d="M1889.2,580.2c-2.6,0-5.1-1-7.1-2.9c-3.9-3.9-3.9-10.2,0-14.1l60-60c3.9-3.9,10.2-3.9,14.1,0c3.9,3.9,3.9,10.2,0,14.1
			l-60,60C1894.3,579.2,1891.7,580.2,1889.2,580.2z"/>
	</g>
	<g>
		<path d="M1949.2,520.2c-2.6,0-5.1-1-7.1-2.9l-60-60c-3.9-3.9-3.9-10.2,0-14.1c3.9-3.9,10.2-3.9,14.1,0l60,60
			c3.9,3.9,3.9,10.2,0,14.1C1954.3,519.2,1951.7,520.2,1949.2,520.2z"/>
	</g>
	<g>
		<path d="M1889.2,520.2c-2.6,0-5.1-1-7.1-2.9c-3.9-3.9-3.9-10.2,0-14.1l60-60c3.9-3.9,10.2-3.9,14.1,0c3.9,3.9,3.9,10.2,0,14.1
			l-60,60C1894.3,519.2,1891.7,520.2,1889.2,520.2z"/>
	</g>
	<g>
		<path d="M2009.2,340.2c-2.6,0-5.1-1-7.1-2.9l-60-60c-3.9-3.9-3.9-10.2,0-14.1c3.9-3.9,10.2-3.9,14.1,0l60,60
			c3.9,3.9,3.9,10.2,0,14.1C2014.3,339.2,2011.7,340.2,2009.2,340.2z"/>
	</g>
	<g>
		<path d="M1949.2,340.2c-2.6,0-5.1-1-7.1-2.9c-3.9-3.9-3.9-10.2,0-14.1l60-60c3.9-3.9,10.2-3.9,14.1,0c3.9,3.9,3.9,10.2,0,14.1
			l-60,60C1954.3,339.2,1951.7,340.2,1949.2,340.2z"/>
	</g>
	<g>
		<path d="M2009.2,460.2c-2.6,0-5.1-1-7.1-2.9l-60-60c-3.9-3.9-3.9-10.2,0-14.1c3.9-3.9,10.2-3.9,14.1,0l60,60
			c3.9,3.9,3.9,10.2,0,14.1C2014.3,459.2,2011.7,460.2,2009.2,460.2z"/>
	</g>
	<g>
		<path d="M1949.2,460.2c-2.6,0-5.1-1-7.1-2.9c-3.9-3.9-3.9-10.2,0-14.1l60-60c3.9-3.9,10.2-3.9,14.1,0c3.9,3.9,3.9,10.2,0,14.1
			l-60,60C1954.3,459.2,1951.7,460.2,1949.2,460.2z"/>
	</g>
	<g>
		<path d="M2009.2,400.2c-2.6,0-5.1-1-7.1-2.9l-60-60c-3.9-3.9-3.9-10.2,0-14.1c3.9-3.9,10.2-3.9,14.1,0l60,60
			c3.9,3.9,3.9,10.2,0,14.1C2014.3,399.2,2011.7,400.2,2009.2,400.2z"/>
	</g>
	<g>
		<path d="M1949.2,400.2c-2.6,0-5.1-1-7.1-2.9c-3.9-3.9-3.9-10.2,0-14.1l60-60c3.9-3.9,10.2-3.9,14.1,0c3.9,3.9,3.9,10.2,0,14.1
			l-60,60C1954.3,399.2,1951.7,400.2,1949.2,400.2z"/>
	</g>
	<g>
		<path d="M2009.2,580.2c-2.6,0-5.1-1-7.1-2.9l-60-60c-3.9-3.9-3.9-10.2,0-14.1c3.9-3.9,10.2-3.9,14.1,0l60,60
			c3.9,3.9,3.9,10.2,0,14.1C2014.3,579.2,2011.7,580.2,2009.2,580.2z"/>
	</g>
	<g>
		<path d="M1949.2,580.2c-2.6,0-5.1-1-7.1-2.9c-3.9-3.9-3.9-10.2,0-14.1l60-60c3.9-3.9,10.2-3.9,14.1,0c3.9,3.9,3.9,10.2,0,14.1
			l-60,60C1954.3,579.2,1951.7,580.2,1949.2,580.2z"/>
	</g>
	<g>
		<path d="M2009.2,520.2c-2.6,0-5.1-1-7.1-2.9l-60-60c-3.9-3.9-3.9-10.2,0-14.1c3.9-3.9,10.2-3.9,14.1,0l60,60
			c3.9,3.9,3.9,10.2,0,14.1C2014.3,519.2,2011.7,520.2,2009.2,520.2z"/>
	</g>
	<g>
		<path d="M1949.2,520.2c-2.6,0-5.1-1-7.1-2.9c-3.9-3.9-3.9-10.2,0-14.1l60-60c3.9-3.9,10.2-3.9,14.1,0c3.9,3.9,3.9,10.2,0,14.1
			l-60,60C1954.3,519.2,1951.7,520.2,1949.2,520.2z"/>
	</g>
	<g>
		<path d="M2129.1,580.2c-2.6,0-5.1-1-7.1-2.9l-60-60c-3.9-3.9-3.9-10.2,0-14.1c3.9-3.9,10.2-3.9,14.1,0l60,60
			c3.9,3.9,3.9,10.2,0,14.1C2134.3,579.2,2131.7,580.2,2129.1,580.2z"/>
	</g>
	<g>
		<path d="M2069.1,580.2c-2.6,0-5.1-1-7.1-2.9c-3.9-3.9-3.9-10.2,0-14.1l60-60c3.9-3.9,10.2-3.9,14.1,0c3.9,3.9,3.9,10.2,0,14.1
			l-60,60C2074.3,579.2,2071.7,580.2,2069.1,580.2z"/>
	</g>
	<g>
		<path d="M2129.2,520.2c-2.6,0-5.1-1-7.1-2.9l-60-60c-3.9-3.9-3.9-10.2,0-14.1c3.9-3.9,10.2-3.9,14.1,0l60,60
			c3.9,3.9,3.9,10.2,0,14.1C2134.3,519.2,2131.7,520.2,2129.2,520.2z"/>
	</g>
	<g>
		<path d="M2069.2,520.2c-2.6,0-5.1-1-7.1-2.9c-3.9-3.9-3.9-10.2,0-14.1l60-60c3.9-3.9,10.2-3.9,14.1,0c3.9,3.9,3.9,10.2,0,14.1
			l-60,60C2074.3,519.2,2071.7,520.2,2069.2,520.2z"/>
	</g>
	<g>
		<path d="M2189.1,340.2c-2.6,0-5.1-1-7.1-2.9l-60-60c-3.9-3.9-3.9-10.2,0-14.1c3.9-3.9,10.2-3.9,14.1,0l60,60
			c3.9,3.9,3.9,10.2,0,14.1C2194.3,339.2,2191.7,340.2,2189.1,340.2z"/>
	</g>
	<g>
		<path d="M2129.1,340.2c-2.6,0-5.1-1-7.1-2.9c-3.9-3.9-3.9-10.2,0-14.1l60-60c3.9-3.9,10.2-3.9,14.1,0c3.9,3.9,3.9,10.2,0,14.1
			l-60,60C2134.3,339.2,2131.7,340.2,2129.1,340.2z"/>
	</g>
	<g>
		<path d="M2189.1,460.2c-2.6,0-5.1-1-7.1-2.9l-60-60c-3.9-3.9-3.9-10.2,0-14.1c3.9-3.9,10.2-3.9,14.1,0l60,60
			c3.9,3.9,3.9,10.2,0,14.1C2194.3,459.2,2191.7,460.2,2189.1,460.2z"/>
	</g>
	<g>
		<path d="M2129.1,460.2c-2.6,0-5.1-1-7.1-2.9c-3.9-3.9-3.9-10.2,0-14.1l60-60c3.9-3.9,10.2-3.9,14.1,0c3.9,3.9,3.9,10.2,0,14.1
			l-60,60C2134.3,459.2,2131.7,460.2,2129.1,460.2z"/>
	</g>
	<g>
		<path d="M2189.1,400.2c-2.6,0-5.1-1-7.1-2.9l-60-60c-3.9-3.9-3.9-10.2,0-14.1c3.9-3.9,10.2-3.9,14.1,0l60,60
			c3.9,3.9,3.9,10.2,0,14.1C2194.3,399.2,2191.7,400.2,2189.1,400.2z"/>
	</g>
	<g>
		<path d="M2129.1,400.2c-2.6,0-5.1-1-7.1-2.9c-3.9-3.9-3.9-10.2,0-14.1l60-60c3.9-3.9,10.2-3.9,14.1,0c3.9,3.9,3.9,10.2,0,14.1
			l-60,60C2134.3,399.2,2131.7,400.2,2129.1,400.2z"/>
	</g>
	<g>
		<path d="M2189.1,580.2c-2.6,0-5.1-1-7.1-2.9l-60-60c-3.9-3.9-3.9-10.2,0-14.1c3.9-3.9,10.2-3.9,14.1,0l60,60
			c3.9,3.9,3.9,10.2,0,14.1C2194.2,579.2,2191.7,580.2,2189.1,580.2z"/>
	</g>
	<g>
		<path d="M2129.1,580.2c-2.6,0-5.1-1-7.1-2.9c-3.9-3.9-3.9-10.2,0-14.1l60-60c3.9-3.9,10.2-3.9,14.1,0c3.9,3.9,3.9,10.2,0,14.1
			l-60,60C2134.2,579.2,2131.7,580.2,2129.1,580.2z"/>
	</g>
	<g>
		<path d="M2189.1,520.2c-2.6,0-5.1-1-7.1-2.9l-60-60c-3.9-3.9-3.9-10.2,0-14.1c3.9-3.9,10.2-3.9,14.1,0l60,60
			c3.9,3.9,3.9,10.2,0,14.1C2194.3,519.2,2191.7,520.2,2189.1,520.2z"/>
	</g>
	<g>
		<path d="M2129.1,520.2c-2.6,0-5.1-1-7.1-2.9c-3.9-3.9-3.9-10.2,0-14.1l60-60c3.9-3.9,10.2-3.9,14.1,0c3.9,3.9,3.9,10.2,0,14.1
			l-60,60C2134.3,519.2,2131.7,520.2,2129.1,520.2z"/>
	</g>
	<g>
		<path d="M2009.2,640.1c-2.6,0-5.1-1-7.1-2.9l-60-60c-3.9-3.9-3.9-10.2,0-14.1c3.9-3.9,10.2-3.9,14.1,0l60,60
			c3.9,3.9,3.9,10.2,0,14.1C2014.3,639.2,2011.7,640.1,2009.2,640.1z"/>
	</g>
	<g>
		<path d="M1949.2,640.1c-2.6,0-5.1-1-7.1-2.9c-3.9-3.9-3.9-10.2,0-14.1l60-60c3.9-3.9,10.2-3.9,14.1,0c3.9,3.9,3.9,10.2,0,14.1
			l-60,60C1954.3,639.2,1951.7,640.1,1949.2,640.1z"/>
	</g>
	<g>
		<path d="M2069.1,700.1c-2.6,0-5.1-1-7.1-2.9l-60-60c-3.9-3.9-3.9-10.2,0-14.1c3.9-3.9,10.2-3.9,14.1,0l60,60
			c3.9,3.9,3.9,10.2,0,14.1C2074.3,699.2,2071.7,700.1,2069.1,700.1z"/>
	</g>
	<g>
		<path d="M2009.1,700.1c-2.6,0-5.1-1-7.1-2.9c-3.9-3.9-3.9-10.2,0-14.1l60-60c3.9-3.9,10.2-3.9,14.1,0c3.9,3.9,3.9,10.2,0,14.1
			l-60,60C2014.3,699.2,2011.7,700.1,2009.1,700.1z"/>
	</g>
	<g>
		<path d="M2069.1,640.1c-2.6,0-5.1-1-7.1-2.9l-60-60c-3.9-3.9-3.9-10.2,0-14.1c3.9-3.9,10.2-3.9,14.1,0l60,60
			c3.9,3.9,3.9,10.2,0,14.1C2074.3,639.2,2071.7,640.1,2069.1,640.1z"/>
	</g>
	<g>
		<path d="M2009.1,640.1c-2.6,0-5.1-1-7.1-2.9c-3.9-3.9-3.9-10.2,0-14.1l60-60c3.9-3.9,10.2-3.9,14.1,0c3.9,3.9,3.9,10.2,0,14.1
			l-60,60C2014.3,639.2,2011.7,640.1,2009.1,640.1z"/>
	</g>
	<g>
		<path d="M2129.1,640.1c-2.6,0-5.1-1-7.1-2.9l-60-60c-3.9-3.9-3.9-10.2,0-14.1c3.9-3.9,10.2-3.9,14.1,0l60,60
			c3.9,3.9,3.9,10.2,0,14.1C2134.3,639.2,2131.7,640.1,2129.1,640.1z"/>
	</g>
	<g>
		<path d="M2069.1,640.1c-2.6,0-5.1-1-7.1-2.9c-3.9-3.9-3.9-10.2,0-14.1l60-60c3.9-3.9,10.2-3.9,14.1,0c3.9,3.9,3.9,10.2,0,14.1
			l-60,60C2074.3,639.2,2071.7,640.1,2069.1,640.1z"/>
	</g>
	<g>
		<path d="M599.8,700.1c-2.6,0-5.1-1-7.1-2.9l-60-60c-3.9-3.9-3.9-10.2,0-14.1c3.9-3.9,10.2-3.9,14.1,0l60,60
			c3.9,3.9,3.9,10.2,0,14.1C604.9,699.2,602.3,700.1,599.8,700.1z"/>
	</g>
	<g>
		<path d="M539.8,700.1c-2.6,0-5.1-1-7.1-2.9c-3.9-3.9-3.9-10.2,0-14.1l60-60c3.9-3.9,10.2-3.9,14.1,0c3.9,3.9,3.9,10.2,0,14.1
			l-60,60C544.9,699.2,542.3,700.1,539.8,700.1z"/>
	</g>
	<g>
		<path d="M599.8,640.1c-2.6,0-5.1-1-7.1-2.9l-60-60c-3.9-3.9-3.9-10.2,0-14.1c3.9-3.9,10.2-3.9,14.1,0l60,60
			c3.9,3.9,3.9,10.2,0,14.1C604.9,639.2,602.3,640.1,599.8,640.1z"/>
	</g>
	<g>
		<path d="M539.8,640.1c-2.6,0-5.1-1-7.1-2.9c-3.9-3.9-3.9-10.2,0-14.1l60-60c3.9-3.9,10.2-3.9,14.1,0c3.9,3.9,3.9,10.2,0,14.1
			l-60,60C544.9,639.2,542.3,640.1,539.8,640.1z"/>
	</g>
	<g>
		<path d="M659.8,700.1c-2.6,0-5.1-1-7.1-2.9l-60-60c-3.9-3.9-3.9-10.2,0-14.1c3.9-3.9,10.2-3.9,14.1,0l60,60
			c3.9,3.9,3.9,10.2,0,14.1C664.9,699.2,662.4,700.1,659.8,700.1z"/>
	</g>
	<g>
		<path d="M599.8,700.1c-2.6,0-5.1-1-7.1-2.9c-3.9-3.9-3.9-10.2,0-14.1l60-60c3.9-3.9,10.2-3.9,14.1,0c3.9,3.9,3.9,10.2,0,14.1
			l-60,60C604.9,699.2,602.4,700.1,599.8,700.1z"/>
	</g>
	<g>
		<path d="M659.8,640.1c-2.6,0-5.1-1-7.1-2.9l-60-60c-3.9-3.9-3.9-10.2,0-14.1c3.9-3.9,10.2-3.9,14.1,0l60,60
			c3.9,3.9,3.9,10.2,0,14.1C664.9,639.2,662.4,640.1,659.8,640.1z"/>
	</g>
	<g>
		<path d="M599.8,640.1c-2.6,0-5.1-1-7.1-2.9c-3.9-3.9-3.9-10.2,0-14.1l60-60c3.9-3.9,10.2-3.9,14.1,0c3.9,3.9,3.9,10.2,0,14.1
			l-60,60C604.9,639.2,602.4,640.1,599.8,640.1z"/>
	</g>
	<g>
		<path d="M719.8,700.1c-2.6,0-5.1-1-7.1-2.9l-60-60c-3.9-3.9-3.9-10.2,0-14.1c3.9-3.9,10.2-3.9,14.1,0l60,60
			c3.9,3.9,3.9,10.2,0,14.1C724.9,699.2,722.3,700.1,719.8,700.1z"/>
	</g>
	<g>
		<path d="M659.8,700.1c-2.6,0-5.1-1-7.1-2.9c-3.9-3.9-3.9-10.2,0-14.1l60-60c3.9-3.9,10.2-3.9,14.1,0c3.9,3.9,3.9,10.2,0,14.1
			l-60,60C664.9,699.2,662.3,700.1,659.8,700.1z"/>
	</g>
	<g>
		<path d="M2339,640.2c-2.6,0-5.1-1-7.1-2.9l-60-60c-3.9-3.9-3.9-10.2,0-14.1c3.9-3.9,10.2-3.9,14.1,0l60,60
			c3.9,3.9,3.9,10.2,0,14.1C2344.1,639.2,2341.5,640.2,2339,640.2z"/>
	</g>
	<g>
		<path d="M2279,640.2c-2.6,0-5.1-1-7.1-2.9c-3.9-3.9-3.9-10.2,0-14.1l60-60c3.9-3.9,10.2-3.9,14.1,0c3.9,3.9,3.9,10.2,0,14.1
			l-60,60C2284.1,639.2,2281.5,640.2,2279,640.2z"/>
	</g>
	<g>
		<path d="M2399,700.2c-2.6,0-5.1-1-7.1-2.9l-60-60c-3.9-3.9-3.9-10.2,0-14.1c3.9-3.9,10.2-3.9,14.1,0l60,60
			c3.9,3.9,3.9,10.2,0,14.1C2404.1,699.2,2401.5,700.2,2399,700.2z"/>
	</g>
	<g>
		<path d="M2339,700.2c-2.6,0-5.1-1-7.1-2.9c-3.9-3.9-3.9-10.2,0-14.1l60-60c3.9-3.9,10.2-3.9,14.1,0c3.9,3.9,3.9,10.2,0,14.1
			l-60,60C2344.1,699.2,2341.5,700.2,2339,700.2z"/>
	</g>
	<g>
		<path d="M2399,640.2c-2.6,0-5.1-1-7.1-2.9l-60-60c-3.9-3.9-3.9-10.2,0-14.1c3.9-3.9,10.2-3.9,14.1,0l60,60
			c3.9,3.9,3.9,10.2,0,14.1C2404.1,639.2,2401.5,640.2,2399,640.2z"/>
	</g>
	<g>
		<path d="M2339,640.2c-2.6,0-5.1-1-7.1-2.9c-3.9-3.9-3.9-10.2,0-14.1l60-60c3.9-3.9,10.2-3.9,14.1,0c3.9,3.9,3.9,10.2,0,14.1
			l-60,60C2344.1,639.2,2341.5,640.2,2339,640.2z"/>
	</g>
	<g>
		<path d="M2459,700.2c-2.6,0-5.1-1-7.1-2.9l-60-60c-3.9-3.9-3.9-10.2,0-14.1c3.9-3.9,10.2-3.9,14.1,0l60,60
			c3.9,3.9,3.9,10.2,0,14.1C2464.1,699.2,2461.5,700.2,2459,700.2z"/>
	</g>
	<g>
		<path d="M2399,700.2c-2.6,0-5.1-1-7.1-2.9c-3.9-3.9-3.9-10.2,0-14.1l60-60c3.9-3.9,10.2-3.9,14.1,0c3.9,3.9,3.9,10.2,0,14.1
			l-60,60C2404.1,699.2,2401.5,700.2,2399,700.2z"/>
	</g>
	<g>
		<path d="M2518.9,700.2c-2.6,0-5.1-1-7.1-2.9l-60-60c-3.9-3.9-3.9-10.2,0-14.1c3.9-3.9,10.2-3.9,14.1,0l60,60
			c3.9,3.9,3.9,10.2,0,14.1C2524.1,699.2,2521.5,700.2,2518.9,700.2z"/>
	</g>
	<g>
		<path d="M2458.9,700.2c-2.6,0-5.1-1-7.1-2.9c-3.9-3.9-3.9-10.2,0-14.1l60-60c3.9-3.9,10.2-3.9,14.1,0c3.9,3.9,3.9,10.2,0,14.1
			l-60,60C2464.1,699.2,2461.5,700.2,2458.9,700.2z"/>
	</g>
	<g>
		<path d="M2518.9,640.2c-2.6,0-5.1-1-7.1-2.9l-60-60c-3.9-3.9-3.9-10.2,0-14.1c3.9-3.9,10.2-3.9,14.1,0l60,60
			c3.9,3.9,3.9,10.2,0,14.1C2524.1,639.2,2521.5,640.2,2518.9,640.2z"/>
	</g>
	<g>
		<path d="M2458.9,640.2c-2.6,0-5.1-1-7.1-2.9c-3.9-3.9-3.9-10.2,0-14.1l60-60c3.9-3.9,10.2-3.9,14.1,0c3.9,3.9,3.9,10.2,0,14.1
			l-60,60C2464.1,639.2,2461.5,640.2,2458.9,640.2z"/>
	</g>
	<g>
		<path d="M2579,640.2c-2.6,0-5.1-1-7.1-2.9l-60-60c-3.9-3.9-3.9-10.2,0-14.1c3.9-3.9,10.2-3.9,14.1,0l60,60
			c3.9,3.9,3.9,10.2,0,14.1C2584.1,639.2,2581.5,640.2,2579,640.2z"/>
	</g>
	<g>
		<path d="M2519,640.2c-2.6,0-5.1-1-7.1-2.9c-3.9-3.9-3.9-10.2,0-14.1l60-60c3.9-3.9,10.2-3.9,14.1,0c3.9,3.9,3.9,10.2,0,14.1
			l-60,60C2524.1,639.2,2521.5,640.2,2519,640.2z"/>
	</g>
	<g>
		<g>
			<path d="M1199.3,340.2c-2.6,0-5.1-1-7.1-2.9l-60-60c-3.9-3.9-3.9-10.2,0-14.1c3.9-3.9,10.2-3.9,14.1,0l60,60
				c3.9,3.9,3.9,10.2,0,14.1C1204.4,339.2,1201.8,340.2,1199.3,340.2z"/>
		</g>
		<g>
			<path d="M1139.3,340.2c-2.6,0-5.1-1-7.1-2.9c-3.9-3.9-3.9-10.2,0-14.1l60-60c3.9-3.9,10.2-3.9,14.1,0c3.9,3.9,3.9,10.2,0,14.1
				l-60,60C1144.4,339.2,1141.8,340.2,1139.3,340.2z"/>
		</g>
		<g>
			<path d="M1199.3,460.2c-2.6,0-5.1-1-7.1-2.9l-60-60c-3.9-3.9-3.9-10.2,0-14.1c3.9-3.9,10.2-3.9,14.1,0l60,60
				c3.9,3.9,3.9,10.2,0,14.1C1204.4,459.2,1201.8,460.2,1199.3,460.2z"/>
		</g>
		<g>
			<path d="M1139.3,460.2c-2.6,0-5.1-1-7.1-2.9c-3.9-3.9-3.9-10.2,0-14.1l60-60c3.9-3.9,10.2-3.9,14.1,0c3.9,3.9,3.9,10.2,0,14.1
				l-60,60C1144.4,459.2,1141.8,460.2,1139.3,460.2z"/>
		</g>
		<g>
			<path d="M1199.3,400.2c-2.6,0-5.1-1-7.1-2.9l-60-60c-3.9-3.9-3.9-10.2,0-14.1c3.9-3.9,10.2-3.9,14.1,0l60,60
				c3.9,3.9,3.9,10.2,0,14.1C1204.4,399.2,1201.8,400.2,1199.3,400.2z"/>
		</g>
		<g>
			<path d="M1139.3,400.2c-2.6,0-5.1-1-7.1-2.9c-3.9-3.9-3.9-10.2,0-14.1l60-60c3.9-3.9,10.2-3.9,14.1,0c3.9,3.9,3.9,10.2,0,14.1
				l-60,60C1144.4,399.2,1141.8,400.2,1139.3,400.2z"/>
		</g>
		<g>
			<path d="M1199.3,580.2c-2.6,0-5.1-1-7.1-2.9l-60-60c-3.9-3.9-3.9-10.2,0-14.1c3.9-3.9,10.2-3.9,14.1,0l60,60
				c3.9,3.9,3.9,10.2,0,14.1C1204.4,579.2,1201.8,580.2,1199.3,580.2z"/>
		</g>
		<g>
			<path d="M1139.3,580.2c-2.6,0-5.1-1-7.1-2.9c-3.9-3.9-3.9-10.2,0-14.1l60-60c3.9-3.9,10.2-3.9,14.1,0c3.9,3.9,3.9,10.2,0,14.1
				l-60,60C1144.4,579.2,1141.8,580.2,1139.3,580.2z"/>
		</g>
		<g>
			<path d="M1199.3,520.2c-2.6,0-5.1-1-7.1-2.9l-60-60c-3.9-3.9-3.9-10.2,0-14.1c3.9-3.9,10.2-3.9,14.1,0l60,60
				c3.9,3.9,3.9,10.2,0,14.1C1204.4,519.2,1201.9,520.2,1199.3,520.2z"/>
		</g>
		<g>
			<path d="M1139.3,520.2c-2.6,0-5.1-1-7.1-2.9c-3.9-3.9-3.9-10.2,0-14.1l60-60c3.9-3.9,10.2-3.9,14.1,0c3.9,3.9,3.9,10.2,0,14.1
				l-60,60C1144.4,519.2,1141.9,520.2,1139.3,520.2z"/>
		</g>
		<g>
			<path d="M1259.3,280.2c-2.6,0-5.1-1-7.1-2.9l-60-60c-3.9-3.9-3.9-10.2,0-14.1c3.9-3.9,10.2-3.9,14.1,0l60,60
				c3.9,3.9,3.9,10.2,0,14.1C1264.4,279.2,1261.9,280.2,1259.3,280.2z"/>
		</g>
		<g>
			<path d="M1199.3,280.2c-2.6,0-5.1-1-7.1-2.9c-3.9-3.9-3.9-10.2,0-14.1l60-60c3.9-3.9,10.2-3.9,14.1,0c3.9,3.9,3.9,10.2,0,14.1
				l-60,60C1204.4,279.2,1201.9,280.2,1199.3,280.2z"/>
		</g>
		<g>
			<path d="M1319.3,220.2c-2.6,0-5.1-1-7.1-2.9l-60-60c-3.9-3.9-3.9-10.2,0-14.1c3.9-3.9,10.2-3.9,14.1,0l60,60
				c3.9,3.9,3.9,10.2,0,14.1C1324.4,219.2,1321.8,220.2,1319.3,220.2z"/>
		</g>
		<g>
			<path d="M1259.3,220.2c-2.6,0-5.1-1-7.1-2.9c-3.9-3.9-3.9-10.2,0-14.1l60-60c3.9-3.9,10.2-3.9,14.1,0c3.9,3.9,3.9,10.2,0,14.1
				l-60,60C1264.4,219.2,1261.8,220.2,1259.3,220.2z"/>
		</g>
		<g>
			<path d="M1379.3,220.2c-2.6,0-5.1-1-7.1-2.9l-60-60c-3.9-3.9-3.9-10.2,0-14.1c3.9-3.9,10.2-3.9,14.1,0l60,60
				c3.9,3.9,3.9,10.2,0,14.1C1384.4,219.2,1381.8,220.2,1379.3,220.2z"/>
		</g>
		<g>
			<path d="M1319.3,220.2c-2.6,0-5.1-1-7.1-2.9c-3.9-3.9-3.9-10.2,0-14.1l60-60c3.9-3.9,10.2-3.9,14.1,0c3.9,3.9,3.9,10.2,0,14.1
				l-60,60C1324.4,219.2,1321.8,220.2,1319.3,220.2z"/>
		</g>
		<g>
			<path d="M1379.3,460.2c-2.6,0-5.1-1-7.1-2.9l-60-60c-3.9-3.9-3.9-10.2,0-14.1c3.9-3.9,10.2-3.9,14.1,0l60,60
				c3.9,3.9,3.9,10.2,0,14.1C1384.4,459.2,1381.8,460.2,1379.3,460.2z"/>
		</g>
		<g>
			<path d="M1319.3,460.2c-2.6,0-5.1-1-7.1-2.9c-3.9-3.9-3.9-10.2,0-14.1l60-60c3.9-3.9,10.2-3.9,14.1,0c3.9,3.9,3.9,10.2,0,14.1
				l-60,60C1324.4,459.2,1321.8,460.2,1319.3,460.2z"/>
		</g>
		<g>
			<path d="M1379.3,580.2c-2.6,0-5.1-1-7.1-2.9l-60-60c-3.9-3.9-3.9-10.2,0-14.1c3.9-3.9,10.2-3.9,14.1,0l60,60
				c3.9,3.9,3.9,10.2,0,14.1C1384.4,579.2,1381.8,580.2,1379.3,580.2z"/>
		</g>
		<g>
			<path d="M1319.3,580.2c-2.6,0-5.1-1-7.1-2.9c-3.9-3.9-3.9-10.2,0-14.1l60-60c3.9-3.9,10.2-3.9,14.1,0c3.9,3.9,3.9,10.2,0,14.1
				l-60,60C1324.4,579.2,1321.8,580.2,1319.3,580.2z"/>
		</g>
		<g>
			<path d="M1379.3,520.2c-2.6,0-5.1-1-7.1-2.9l-60-60c-3.9-3.9-3.9-10.2,0-14.1c3.9-3.9,10.2-3.9,14.1,0l60,60
				c3.9,3.9,3.9,10.2,0,14.1C1384.4,519.2,1381.8,520.2,1379.3,520.2z"/>
		</g>
		<g>
			<path d="M1319.3,520.2c-2.6,0-5.1-1-7.1-2.9c-3.9-3.9-3.9-10.2,0-14.1l60-60c3.9-3.9,10.2-3.9,14.1,0c3.9,3.9,3.9,10.2,0,14.1
				l-60,60C1324.4,519.2,1321.8,520.2,1319.3,520.2z"/>
		</g>
		<g>
			<path d="M1439.4,220.2c-2.6,0-5.1-1-7.1-2.9l-60-60c-3.9-3.9-3.9-10.2,0-14.1c3.9-3.9,10.2-3.9,14.1,0l60,60
				c3.9,3.9,3.9,10.2,0,14.1C1444.5,219.2,1441.9,220.2,1439.4,220.2z"/>
		</g>
		<g>
			<path d="M1379.4,220.2c-2.6,0-5.1-1-7.1-2.9c-3.9-3.9-3.9-10.2,0-14.1l60-60c3.9-3.9,10.2-3.9,14.1,0c3.9,3.9,3.9,10.2,0,14.1
				l-60,60C1384.5,219.2,1381.9,220.2,1379.4,220.2z"/>
		</g>
		<g>
			<path d="M1439.4,460.2c-2.6,0-5.1-1-7.1-2.9l-60-60c-3.9-3.9-3.9-10.2,0-14.1c3.9-3.9,10.2-3.9,14.1,0l60,60
				c3.9,3.9,3.9,10.2,0,14.1C1444.5,459.2,1441.9,460.2,1439.4,460.2z"/>
		</g>
		<g>
			<path d="M1379.4,460.2c-2.6,0-5.1-1-7.1-2.9c-3.9-3.9-3.9-10.2,0-14.1l60-60c3.9-3.9,10.2-3.9,14.1,0c3.9,3.9,3.9,10.2,0,14.1
				l-60,60C1384.5,459.2,1381.9,460.2,1379.4,460.2z"/>
		</g>
		<g>
			<path d="M1439.4,400.2c-2.6,0-5.1-1-7.1-2.9l-60-60c-3.9-3.9-3.9-10.2,0-14.1c3.9-3.9,10.2-3.9,14.1,0l60,60
				c3.9,3.9,3.9,10.2,0,14.1C1444.5,399.2,1441.9,400.2,1439.4,400.2z"/>
		</g>
		<g>
			<path d="M1379.4,400.2c-2.6,0-5.1-1-7.1-2.9c-3.9-3.9-3.9-10.2,0-14.1l60-60c3.9-3.9,10.2-3.9,14.1,0c3.9,3.9,3.9,10.2,0,14.1
				l-60,60C1384.5,399.2,1381.9,400.2,1379.4,400.2z"/>
		</g>
		<g>
			<path d="M1439.4,580.2c-2.6,0-5.1-1-7.1-2.9l-60-60c-3.9-3.9-3.9-10.2,0-14.1c3.9-3.9,10.2-3.9,14.1,0l60,60
				c3.9,3.9,3.9,10.2,0,14.1C1444.5,579.2,1441.9,580.2,1439.4,580.2z"/>
		</g>
		<g>
			<path d="M1379.4,580.2c-2.6,0-5.1-1-7.1-2.9c-3.9-3.9-3.9-10.2,0-14.1l60-60c3.9-3.9,10.2-3.9,14.1,0c3.9,3.9,3.9,10.2,0,14.1
				l-60,60C1384.5,579.2,1381.9,580.2,1379.4,580.2z"/>
		</g>
		<g>
			<path d="M1439.4,520.2c-2.6,0-5.1-1-7.1-2.9l-60-60c-3.9-3.9-3.9-10.2,0-14.1c3.9-3.9,10.2-3.9,14.1,0l60,60
				c3.9,3.9,3.9,10.2,0,14.1C1444.5,519.2,1441.9,520.2,1439.4,520.2z"/>
		</g>
		<g>
			<path d="M1379.4,520.2c-2.6,0-5.1-1-7.1-2.9c-3.9-3.9-3.9-10.2,0-14.1l60-60c3.9-3.9,10.2-3.9,14.1,0c3.9,3.9,3.9,10.2,0,14.1
				l-60,60C1384.5,519.2,1381.9,520.2,1379.4,520.2z"/>
		</g>
		<g>
			<path d="M1499.4,220.2c-2.6,0-5.1-1-7.1-2.9l-60-60c-3.9-3.9-3.9-10.2,0-14.1c3.9-3.9,10.2-3.9,14.1,0l60,60
				c3.9,3.9,3.9,10.2,0,14.1C1504.5,219.2,1501.9,220.2,1499.4,220.2z"/>
		</g>
		<g>
			<path d="M1439.4,220.2c-2.6,0-5.1-1-7.1-2.9c-3.9-3.9-3.9-10.2,0-14.1l60-60c3.9-3.9,10.2-3.9,14.1,0c3.9,3.9,3.9,10.2,0,14.1
				l-60,60C1444.5,219.2,1441.9,220.2,1439.4,220.2z"/>
		</g>
		<g>
			<path d="M1499.4,340.2c-2.6,0-5.1-1-7.1-2.9l-60-60c-3.9-3.9-3.9-10.2,0-14.1c3.9-3.9,10.2-3.9,14.1,0l60,60
				c3.9,3.9,3.9,10.2,0,14.1C1504.5,339.2,1501.9,340.2,1499.4,340.2z"/>
		</g>
		<g>
			<path d="M1439.4,340.2c-2.6,0-5.1-1-7.1-2.9c-3.9-3.9-3.9-10.2,0-14.1l60-60c3.9-3.9,10.2-3.9,14.1,0c3.9,3.9,3.9,10.2,0,14.1
				l-60,60C1444.5,339.2,1441.9,340.2,1439.4,340.2z"/>
		</g>
		<g>
			<path d="M1499.4,460.2c-2.6,0-5.1-1-7.1-2.9l-60-60c-3.9-3.9-3.9-10.2,0-14.1c3.9-3.9,10.2-3.9,14.1,0l60,60
				c3.9,3.9,3.9,10.2,0,14.1C1504.5,459.2,1501.9,460.2,1499.4,460.2z"/>
		</g>
		<g>
			<path d="M1439.4,460.2c-2.6,0-5.1-1-7.1-2.9c-3.9-3.9-3.9-10.2,0-14.1l60-60c3.9-3.9,10.2-3.9,14.1,0c3.9,3.9,3.9,10.2,0,14.1
				l-60,60C1444.5,459.2,1441.9,460.2,1439.4,460.2z"/>
		</g>
		<g>
			<path d="M1499.4,400.2c-2.6,0-5.1-1-7.1-2.9l-60-60c-3.9-3.9-3.9-10.2,0-14.1c3.9-3.9,10.2-3.9,14.1,0l60,60
				c3.9,3.9,3.9,10.2,0,14.1C1504.5,399.2,1501.9,400.2,1499.4,400.2z"/>
		</g>
		<g>
			<path d="M1439.4,400.2c-2.6,0-5.1-1-7.1-2.9c-3.9-3.9-3.9-10.2,0-14.1l60-60c3.9-3.9,10.2-3.9,14.1,0c3.9,3.9,3.9,10.2,0,14.1
				l-60,60C1444.5,399.2,1441.9,400.2,1439.4,400.2z"/>
		</g>
		<g>
			<path d="M1559.3,220.2c-2.6,0-5.1-1-7.1-2.9l-60-60c-3.9-3.9-3.9-10.2,0-14.1c3.9-3.9,10.2-3.9,14.1,0l60,60
				c3.9,3.9,3.9,10.2,0,14.1C1564.5,219.2,1561.9,220.2,1559.3,220.2z"/>
		</g>
		<g>
			<path d="M1499.3,220.2c-2.6,0-5.1-1-7.1-2.9c-3.9-3.9-3.9-10.2,0-14.1l60-60c3.9-3.9,10.2-3.9,14.1,0c3.9,3.9,3.9,10.2,0,14.1
				l-60,60C1504.5,219.2,1501.9,220.2,1499.3,220.2z"/>
		</g>
		<g>
			<path d="M1559.3,460.2c-2.6,0-5.1-1-7.1-2.9l-60-60c-3.9-3.9-3.9-10.2,0-14.1c3.9-3.9,10.2-3.9,14.1,0l60,60
				c3.9,3.9,3.9,10.2,0,14.1C1564.5,459.2,1561.9,460.2,1559.3,460.2z"/>
		</g>
		<g>
			<path d="M1499.3,460.2c-2.6,0-5.1-1-7.1-2.9c-3.9-3.9-3.9-10.2,0-14.1l60-60c3.9-3.9,10.2-3.9,14.1,0c3.9,3.9,3.9,10.2,0,14.1
				l-60,60C1504.5,459.2,1501.9,460.2,1499.3,460.2z"/>
		</g>
		<g>
			<path d="M1559.3,400.2c-2.6,0-5.1-1-7.1-2.9l-60-60c-3.9-3.9-3.9-10.2,0-14.1c3.9-3.9,10.2-3.9,14.1,0l60,60
				c3.9,3.9,3.9,10.2,0,14.1C1564.5,399.2,1561.9,400.2,1559.3,400.2z"/>
		</g>
		<g>
			<path d="M1499.3,400.2c-2.6,0-5.1-1-7.1-2.9c-3.9-3.9-3.9-10.2,0-14.1l60-60c3.9-3.9,10.2-3.9,14.1,0c3.9,3.9,3.9,10.2,0,14.1
				l-60,60C1504.5,399.2,1501.9,400.2,1499.3,400.2z"/>
		</g>
		<g>
			<path d="M1559.4,520.2c-2.6,0-5.1-1-7.1-2.9l-60-60c-3.9-3.9-3.9-10.2,0-14.1c3.9-3.9,10.2-3.9,14.1,0l60,60
				c3.9,3.9,3.9,10.2,0,14.1C1564.5,519.2,1561.9,520.2,1559.4,520.2z"/>
		</g>
		<g>
			<path d="M1499.4,520.2c-2.6,0-5.1-1-7.1-2.9c-3.9-3.9-3.9-10.2,0-14.1l60-60c3.9-3.9,10.2-3.9,14.1,0c3.9,3.9,3.9,10.2,0,14.1
				l-60,60C1504.5,519.2,1501.9,520.2,1499.4,520.2z"/>
		</g>
		<g>
			<path d="M1619.4,220.2c-2.6,0-5.1-1-7.1-2.9l-60-60c-3.9-3.9-3.9-10.2,0-14.1c3.9-3.9,10.2-3.9,14.1,0l60,60
				c3.9,3.9,3.9,10.2,0,14.1C1624.5,219.2,1621.9,220.2,1619.4,220.2z"/>
		</g>
		<g>
			<path d="M1559.4,220.2c-2.6,0-5.1-1-7.1-2.9c-3.9-3.9-3.9-10.2,0-14.1l60-60c3.9-3.9,10.2-3.9,14.1,0c3.9,3.9,3.9,10.2,0,14.1
				l-60,60C1564.5,219.2,1561.9,220.2,1559.4,220.2z"/>
		</g>
		<g>
			<path d="M1619.4,460.2c-2.6,0-5.1-1-7.1-2.9l-60-60c-3.9-3.9-3.9-10.2,0-14.1c3.9-3.9,10.2-3.9,14.1,0l60,60
				c3.9,3.9,3.9,10.2,0,14.1C1624.5,459.2,1621.9,460.2,1619.4,460.2z"/>
		</g>
		<g>
			<path d="M1559.4,460.2c-2.6,0-5.1-1-7.1-2.9c-3.9-3.9-3.9-10.2,0-14.1l60-60c3.9-3.9,10.2-3.9,14.1,0c3.9,3.9,3.9,10.2,0,14.1
				l-60,60C1564.5,459.2,1561.9,460.2,1559.4,460.2z"/>
		</g>
		<g>
			<path d="M1619.4,580.2c-2.6,0-5.1-1-7.1-2.9l-60-60c-3.9-3.9-3.9-10.2,0-14.1c3.9-3.9,10.2-3.9,14.1,0l60,60
				c3.9,3.9,3.9,10.2,0,14.1C1624.5,579.2,1621.9,580.2,1619.4,580.2z"/>
		</g>
		<g>
			<path d="M1559.4,580.2c-2.6,0-5.1-1-7.1-2.9c-3.9-3.9-3.9-10.2,0-14.1l60-60c3.9-3.9,10.2-3.9,14.1,0c3.9,3.9,3.9,10.2,0,14.1
				l-60,60C1564.5,579.2,1561.9,580.2,1559.4,580.2z"/>
		</g>
		<g>
			<path d="M1619.4,520.2c-2.6,0-5.1-1-7.1-2.9l-60-60c-3.9-3.9-3.9-10.2,0-14.1c3.9-3.9,10.2-3.9,14.1,0l60,60
				c3.9,3.9,3.9,10.2,0,14.1C1624.5,519.2,1621.9,520.2,1619.4,520.2z"/>
		</g>
		<g>
			<path d="M1559.4,520.2c-2.6,0-5.1-1-7.1-2.9c-3.9-3.9-3.9-10.2,0-14.1l60-60c3.9-3.9,10.2-3.9,14.1,0c3.9,3.9,3.9,10.2,0,14.1
				l-60,60C1564.5,519.2,1561.9,520.2,1559.4,520.2z"/>
		</g>
		<g>
			<path d="M1679.3,220.2c-2.6,0-5.1-1-7.1-2.9l-60-60c-3.9-3.9-3.9-10.2,0-14.1c3.9-3.9,10.2-3.9,14.1,0l60,60
				c3.9,3.9,3.9,10.2,0,14.1C1684.5,219.2,1681.9,220.2,1679.3,220.2z"/>
		</g>
		<g>
			<path d="M1619.3,220.2c-2.6,0-5.1-1-7.1-2.9c-3.9-3.9-3.9-10.2,0-14.1l60-60c3.9-3.9,10.2-3.9,14.1,0c3.9,3.9,3.9,10.2,0,14.1
				l-60,60C1624.5,219.2,1621.9,220.2,1619.3,220.2z"/>
		</g>
		<g>
			<path d="M1739.4,280.2c-2.6,0-5.1-1-7.1-2.9l-60-60c-3.9-3.9-3.9-10.2,0-14.1c3.9-3.9,10.2-3.9,14.1,0l60,60
				c3.9,3.9,3.9,10.2,0,14.1C1744.5,279.2,1741.9,280.2,1739.4,280.2z"/>
		</g>
		<g>
			<path d="M1679.4,280.2c-2.6,0-5.1-1-7.1-2.9c-3.9-3.9-3.9-10.2,0-14.1l60-60c3.9-3.9,10.2-3.9,14.1,0c3.9,3.9,3.9,10.2,0,14.1
				l-60,60C1684.5,279.2,1681.9,280.2,1679.4,280.2z"/>
		</g>
		<g>
			<path d="M1799.3,340.2c-2.6,0-5.1-1-7.1-2.9l-60-60c-3.9-3.9-3.9-10.2,0-14.1c3.9-3.9,10.2-3.9,14.1,0l60,60
				c3.9,3.9,3.9,10.2,0,14.1C1804.4,339.2,1801.9,340.2,1799.3,340.2z"/>
		</g>
		<g>
			<path d="M1739.3,340.2c-2.6,0-5.1-1-7.1-2.9c-3.9-3.9-3.9-10.2,0-14.1l60-60c3.9-3.9,10.2-3.9,14.1,0c3.9,3.9,3.9,10.2,0,14.1
				l-60,60C1744.4,339.2,1741.9,340.2,1739.3,340.2z"/>
		</g>
		<g>
			<path d="M1799.3,460.2c-2.6,0-5.1-1-7.1-2.9l-60-60c-3.9-3.9-3.9-10.2,0-14.1c3.9-3.9,10.2-3.9,14.1,0l60,60
				c3.9,3.9,3.9,10.2,0,14.1C1804.4,459.2,1801.9,460.2,1799.3,460.2z"/>
		</g>
		<g>
			<path d="M1739.3,460.2c-2.6,0-5.1-1-7.1-2.9c-3.9-3.9-3.9-10.2,0-14.1l60-60c3.9-3.9,10.2-3.9,14.1,0c3.9,3.9,3.9,10.2,0,14.1
				l-60,60C1744.4,459.2,1741.9,460.2,1739.3,460.2z"/>
		</g>
		<g>
			<path d="M1799.3,400.2c-2.6,0-5.1-1-7.1-2.9l-60-60c-3.9-3.9-3.9-10.2,0-14.1c3.9-3.9,10.2-3.9,14.1,0l60,60
				c3.9,3.9,3.9,10.2,0,14.1C1804.4,399.2,1801.9,400.2,1799.3,400.2z"/>
		</g>
		<g>
			<path d="M1739.3,400.2c-2.6,0-5.1-1-7.1-2.9c-3.9-3.9-3.9-10.2,0-14.1l60-60c3.9-3.9,10.2-3.9,14.1,0c3.9,3.9,3.9,10.2,0,14.1
				l-60,60C1744.4,399.2,1741.9,400.2,1739.3,400.2z"/>
		</g>
		<g>
			<path d="M1799.3,580.2c-2.6,0-5.1-1-7.1-2.9l-60-60c-3.9-3.9-3.9-10.2,0-14.1c3.9-3.9,10.2-3.9,14.1,0l60,60
				c3.9,3.9,3.9,10.2,0,14.1C1804.4,579.2,1801.9,580.2,1799.3,580.2z"/>
		</g>
		<g>
			<path d="M1739.3,580.2c-2.6,0-5.1-1-7.1-2.9c-3.9-3.9-3.9-10.2,0-14.1l60-60c3.9-3.9,10.2-3.9,14.1,0c3.9,3.9,3.9,10.2,0,14.1
				l-60,60C1744.4,579.2,1741.9,580.2,1739.3,580.2z"/>
		</g>
		<g>
			<path d="M1799.3,520.2c-2.6,0-5.1-1-7.1-2.9l-60-60c-3.9-3.9-3.9-10.2,0-14.1c3.9-3.9,10.2-3.9,14.1,0l60,60
				c3.9,3.9,3.9,10.2,0,14.1C1804.5,519.2,1801.9,520.2,1799.3,520.2z"/>
		</g>
		<g>
			<path d="M1739.3,520.2c-2.6,0-5.1-1-7.1-2.9c-3.9-3.9-3.9-10.2,0-14.1l60-60c3.9-3.9,10.2-3.9,14.1,0c3.9,3.9,3.9,10.2,0,14.1
				l-60,60C1744.5,519.2,1741.9,520.2,1739.3,520.2z"/>
		</g>
		<g>
			<path d="M1199.3,700.1c-2.6,0-5.1-1-7.1-2.9l-60-60c-3.9-3.9-3.9-10.2,0-14.1c3.9-3.9,10.2-3.9,14.1,0l60,60
				c3.9,3.9,3.9,10.2,0,14.1C1204.4,699.2,1201.8,700.1,1199.3,700.1z"/>
		</g>
		<g>
			<path d="M1139.3,700.1c-2.6,0-5.1-1-7.1-2.9c-3.9-3.9-3.9-10.2,0-14.1l60-60c3.9-3.9,10.2-3.9,14.1,0c3.9,3.9,3.9,10.2,0,14.1
				l-60,60C1144.4,699.2,1141.8,700.1,1139.3,700.1z"/>
		</g>
		<g>
			<path d="M1199.3,640.2c-2.6,0-5.1-1-7.1-2.9l-60-60c-3.9-3.9-3.9-10.2,0-14.1c3.9-3.9,10.2-3.9,14.1,0l60,60
				c3.9,3.9,3.9,10.2,0,14.1C1204.4,639.2,1201.8,640.2,1199.3,640.2z"/>
		</g>
		<g>
			<path d="M1139.3,640.2c-2.6,0-5.1-1-7.1-2.9c-3.9-3.9-3.9-10.2,0-14.1l60-60c3.9-3.9,10.2-3.9,14.1,0c3.9,3.9,3.9,10.2,0,14.1
				l-60,60C1144.4,639.2,1141.8,640.2,1139.3,640.2z"/>
		</g>
		<g>
			<path d="M1199.3,760.2c-2.6,0-5.1-1-7.1-2.9l-60-60c-3.9-3.9-3.9-10.2,0-14.1c3.9-3.9,10.2-3.9,14.1,0l60,60
				c3.9,3.9,3.9,10.2,0,14.1C1204.4,759.2,1201.8,760.2,1199.3,760.2z"/>
		</g>
		<g>
			<path d="M1139.3,760.2c-2.6,0-5.1-1-7.1-2.9c-3.9-3.9-3.9-10.2,0-14.1l60-60c3.9-3.9,10.2-3.9,14.1,0c3.9,3.9,3.9,10.2,0,14.1
				l-60,60C1144.4,759.2,1141.8,760.2,1139.3,760.2z"/>
		</g>
		<g>
			<path d="M1259.3,820.2c-2.6,0-5.1-1-7.1-2.9l-60-60c-3.9-3.9-3.9-10.2,0-14.1c3.9-3.9,10.2-3.9,14.1,0l60,60
				c3.9,3.9,3.9,10.2,0,14.1C1264.4,819.2,1261.9,820.2,1259.3,820.2z"/>
		</g>
		<g>
			<path d="M1199.3,820.2c-2.6,0-5.1-1-7.1-2.9c-3.9-3.9-3.9-10.2,0-14.1l60-60c3.9-3.9,10.2-3.9,14.1,0c3.9,3.9,3.9,10.2,0,14.1
				l-60,60C1204.4,819.2,1201.9,820.2,1199.3,820.2z"/>
		</g>
		<g>
			<path d="M1319.3,880.1c-2.6,0-5.1-1-7.1-2.9l-60-60c-3.9-3.9-3.9-10.2,0-14.1c3.9-3.9,10.2-3.9,14.1,0l60,60
				c3.9,3.9,3.9,10.2,0,14.1C1324.4,879.2,1321.8,880.1,1319.3,880.1z"/>
		</g>
		<g>
			<path d="M1259.3,880.1c-2.6,0-5.1-1-7.1-2.9c-3.9-3.9-3.9-10.2,0-14.1l60-60c3.9-3.9,10.2-3.9,14.1,0c3.9,3.9,3.9,10.2,0,14.1
				l-60,60C1264.4,879.2,1261.8,880.1,1259.3,880.1z"/>
		</g>
		<g>
			<path d="M1379.3,700.1c-2.6,0-5.1-1-7.1-2.9l-60-60c-3.9-3.9-3.9-10.2,0-14.1c3.9-3.9,10.2-3.9,14.1,0l60,60
				c3.9,3.9,3.9,10.2,0,14.1C1384.4,699.2,1381.8,700.1,1379.3,700.1z"/>
		</g>
		<g>
			<path d="M1319.3,700.1c-2.6,0-5.1-1-7.1-2.9c-3.9-3.9-3.9-10.2,0-14.1l60-60c3.9-3.9,10.2-3.9,14.1,0c3.9,3.9,3.9,10.2,0,14.1
				l-60,60C1324.4,699.2,1321.8,700.1,1319.3,700.1z"/>
		</g>
		<g>
			<path d="M1379.3,640.2c-2.6,0-5.1-1-7.1-2.9l-60-60c-3.9-3.9-3.9-10.2,0-14.1c3.9-3.9,10.2-3.9,14.1,0l60,60
				c3.9,3.9,3.9,10.2,0,14.1C1384.4,639.2,1381.8,640.2,1379.3,640.2z"/>
		</g>
		<g>
			<path d="M1319.3,640.2c-2.6,0-5.1-1-7.1-2.9c-3.9-3.9-3.9-10.2,0-14.1l60-60c3.9-3.9,10.2-3.9,14.1,0c3.9,3.9,3.9,10.2,0,14.1
				l-60,60C1324.4,639.2,1321.8,640.2,1319.3,640.2z"/>
		</g>
		<g>
			<path d="M1379.3,880.1c-2.6,0-5.1-1-7.1-2.9l-60-60c-3.9-3.9-3.9-10.2,0-14.1c3.9-3.9,10.2-3.9,14.1,0l60,60
				c3.9,3.9,3.9,10.2,0,14.1C1384.4,879.2,1381.8,880.1,1379.3,880.1z"/>
		</g>
		<g>
			<path d="M1319.3,880.1c-2.6,0-5.1-1-7.1-2.9c-3.9-3.9-3.9-10.2,0-14.1l60-60c3.9-3.9,10.2-3.9,14.1,0c3.9,3.9,3.9,10.2,0,14.1
				l-60,60C1324.4,879.2,1321.8,880.1,1319.3,880.1z"/>
		</g>
		<g>
			<path d="M1439.4,700.1c-2.6,0-5.1-1-7.1-2.9l-60-60c-3.9-3.9-3.9-10.2,0-14.1c3.9-3.9,10.2-3.9,14.1,0l60,60
				c3.9,3.9,3.9,10.2,0,14.1C1444.5,699.2,1441.9,700.1,1439.4,700.1z"/>
		</g>
		<g>
			<path d="M1379.4,700.1c-2.6,0-5.1-1-7.1-2.9c-3.9-3.9-3.9-10.2,0-14.1l60-60c3.9-3.9,10.2-3.9,14.1,0c3.9,3.9,3.9,10.2,0,14.1
				l-60,60C1384.5,699.2,1381.9,700.1,1379.4,700.1z"/>
		</g>
		<g>
			<path d="M1439.4,640.2c-2.6,0-5.1-1-7.1-2.9l-60-60c-3.9-3.9-3.9-10.2,0-14.1c3.9-3.9,10.2-3.9,14.1,0l60,60
				c3.9,3.9,3.9,10.2,0,14.1C1444.5,639.2,1441.9,640.2,1439.4,640.2z"/>
		</g>
		<g>
			<path d="M1379.4,640.2c-2.6,0-5.1-1-7.1-2.9c-3.9-3.9-3.9-10.2,0-14.1l60-60c3.9-3.9,10.2-3.9,14.1,0c3.9,3.9,3.9,10.2,0,14.1
				l-60,60C1384.5,639.2,1381.9,640.2,1379.4,640.2z"/>
		</g>
		<g>
			<path d="M1439.4,880.1c-2.6,0-5.1-1-7.1-2.9l-60-60c-3.9-3.9-3.9-10.2,0-14.1c3.9-3.9,10.2-3.9,14.1,0l60,60
				c3.9,3.9,3.9,10.2,0,14.1C1444.5,879.2,1441.9,880.1,1439.4,880.1z"/>
		</g>
		<g>
			<path d="M1379.4,880.1c-2.6,0-5.1-1-7.1-2.9c-3.9-3.9-3.9-10.2,0-14.1l60-60c3.9-3.9,10.2-3.9,14.1,0c3.9,3.9,3.9,10.2,0,14.1
				l-60,60C1384.5,879.2,1381.9,880.1,1379.4,880.1z"/>
		</g>
		<g>
			<path d="M1499.4,880.1c-2.6,0-5.1-1-7.1-2.9l-60-60c-3.9-3.9-3.9-10.2,0-14.1c3.9-3.9,10.2-3.9,14.1,0l60,60
				c3.9,3.9,3.9,10.2,0,14.1C1504.5,879.2,1501.9,880.1,1499.4,880.1z"/>
		</g>
		<g>
			<path d="M1439.4,880.1c-2.6,0-5.1-1-7.1-2.9c-3.9-3.9-3.9-10.2,0-14.1l60-60c3.9-3.9,10.2-3.9,14.1,0c3.9,3.9,3.9,10.2,0,14.1
				l-60,60C1444.5,879.2,1441.9,880.1,1439.4,880.1z"/>
		</g>
		<g>
			<path d="M1559.3,880.1c-2.6,0-5.1-1-7.1-2.9l-60-60c-3.9-3.9-3.9-10.2,0-14.1c3.9-3.9,10.2-3.9,14.1,0l60,60
				c3.9,3.9,3.9,10.2,0,14.1C1564.5,879.2,1561.9,880.1,1559.3,880.1z"/>
		</g>
		<g>
			<path d="M1499.3,880.1c-2.6,0-5.1-1-7.1-2.9c-3.9-3.9-3.9-10.2,0-14.1l60-60c3.9-3.9,10.2-3.9,14.1,0c3.9,3.9,3.9,10.2,0,14.1
				l-60,60C1504.5,879.2,1501.9,880.1,1499.3,880.1z"/>
		</g>
		<g>
			<path d="M1619.4,700.1c-2.6,0-5.1-1-7.1-2.9l-60-60c-3.9-3.9-3.9-10.2,0-14.1c3.9-3.9,10.2-3.9,14.1,0l60,60
				c3.9,3.9,3.9,10.2,0,14.1C1624.5,699.2,1621.9,700.1,1619.4,700.1z"/>
		</g>
		<g>
			<path d="M1559.4,700.1c-2.6,0-5.1-1-7.1-2.9c-3.9-3.9-3.9-10.2,0-14.1l60-60c3.9-3.9,10.2-3.9,14.1,0c3.9,3.9,3.9,10.2,0,14.1
				l-60,60C1564.5,699.2,1561.9,700.1,1559.4,700.1z"/>
		</g>
		<g>
			<path d="M1619.4,640.2c-2.6,0-5.1-1-7.1-2.9l-60-60c-3.9-3.9-3.9-10.2,0-14.1c3.9-3.9,10.2-3.9,14.1,0l60,60
				c3.9,3.9,3.9,10.2,0,14.1C1624.5,639.2,1621.9,640.2,1619.4,640.2z"/>
		</g>
		<g>
			<path d="M1559.4,640.2c-2.6,0-5.1-1-7.1-2.9c-3.9-3.9-3.9-10.2,0-14.1l60-60c3.9-3.9,10.2-3.9,14.1,0c3.9,3.9,3.9,10.2,0,14.1
				l-60,60C1564.5,639.2,1561.9,640.2,1559.4,640.2z"/>
		</g>
		<g>
			<path d="M1619.4,880.1c-2.6,0-5.1-1-7.1-2.9l-60-60c-3.9-3.9-3.9-10.2,0-14.1c3.9-3.9,10.2-3.9,14.1,0l60,60
				c3.9,3.9,3.9,10.2,0,14.1C1624.5,879.2,1621.9,880.1,1619.4,880.1z"/>
		</g>
		<g>
			<path d="M1559.4,880.1c-2.6,0-5.1-1-7.1-2.9c-3.9-3.9-3.9-10.2,0-14.1l60-60c3.9-3.9,10.2-3.9,14.1,0c3.9,3.9,3.9,10.2,0,14.1
				l-60,60C1564.5,879.2,1561.9,880.1,1559.4,880.1z"/>
		</g>
		<g>
			<path d="M1679.3,700.1c-2.6,0-5.1-1-7.1-2.9l-60-60c-3.9-3.9-3.9-10.2,0-14.1c3.9-3.9,10.2-3.9,14.1,0l60,60
				c3.9,3.9,3.9,10.2,0,14.1C1684.5,699.2,1681.9,700.1,1679.3,700.1z"/>
		</g>
		<g>
			<path d="M1619.3,700.1c-2.6,0-5.1-1-7.1-2.9c-3.9-3.9-3.9-10.2,0-14.1l60-60c3.9-3.9,10.2-3.9,14.1,0c3.9,3.9,3.9,10.2,0,14.1
				l-60,60C1624.5,699.2,1621.9,700.1,1619.3,700.1z"/>
		</g>
		<g>
			<path d="M1679.3,880.1c-2.6,0-5.1-1-7.1-2.9l-60-60c-3.9-3.9-3.9-10.2,0-14.1c3.9-3.9,10.2-3.9,14.1,0l60,60
				c3.9,3.9,3.9,10.2,0,14.1C1684.5,879.2,1681.9,880.1,1679.3,880.1z"/>
		</g>
		<g>
			<path d="M1619.3,880.1c-2.6,0-5.1-1-7.1-2.9c-3.9-3.9-3.9-10.2,0-14.1l60-60c3.9-3.9,10.2-3.9,14.1,0c3.9,3.9,3.9,10.2,0,14.1
				l-60,60C1624.5,879.2,1621.9,880.1,1619.3,880.1z"/>
		</g>
		<g>
			<path d="M1739.4,700.1c-2.6,0-5.1-1-7.1-2.9l-60-60c-3.9-3.9-3.9-10.2,0-14.1c3.9-3.9,10.2-3.9,14.1,0l60,60
				c3.9,3.9,3.9,10.2,0,14.1C1744.5,699.2,1741.9,700.1,1739.4,700.1z"/>
		</g>
		<g>
			<path d="M1679.4,700.1c-2.6,0-5.1-1-7.1-2.9c-3.9-3.9-3.9-10.2,0-14.1l60-60c3.9-3.9,10.2-3.9,14.1,0c3.9,3.9,3.9,10.2,0,14.1
				l-60,60C1684.5,699.2,1681.9,700.1,1679.4,700.1z"/>
		</g>
		<g>
			<path d="M1799.3,640.2c-2.6,0-5.1-1-7.1-2.9l-60-60c-3.9-3.9-3.9-10.2,0-14.1c3.9-3.9,10.2-3.9,14.1,0l60,60
				c3.9,3.9,3.9,10.2,0,14.1C1804.4,639.2,1801.9,640.2,1799.3,640.2z"/>
		</g>
		<g>
			<path d="M1739.3,640.2c-2.6,0-5.1-1-7.1-2.9c-3.9-3.9-3.9-10.2,0-14.1l60-60c3.9-3.9,10.2-3.9,14.1,0c3.9,3.9,3.9,10.2,0,14.1
				l-60,60C1744.4,639.2,1741.9,640.2,1739.3,640.2z"/>
		</g>
		<g>
			<path d="M1739.3,820.2c-2.6,0-5.1-1-7.1-2.9l-60-60c-3.9-3.9-3.9-10.2,0-14.1c3.9-3.9,10.2-3.9,14.1,0l60,60
				c3.9,3.9,3.9,10.2,0,14.1C1744.4,819.2,1741.9,820.2,1739.3,820.2z"/>
		</g>
		<g>
			<path d="M1679.3,820.2c-2.6,0-5.1-1-7.1-2.9c-3.9-3.9-3.9-10.2,0-14.1l60-60c3.9-3.9,10.2-3.9,14.1,0c3.9,3.9,3.9,10.2,0,14.1
				l-60,60C1684.4,819.2,1681.9,820.2,1679.3,820.2z"/>
		</g>
	</g>
</g>
<g>
	<path d="M140,922.8h12.4l56.7,155.2c3.2,9,7.3,23,7.3,23h0.5c0,0,4-14,7.3-23l57-155.2h12.4L223,1114.7h-12.6L140,922.8z"/>
	<path d="M320.5,922.8H334v20h-13.4V922.8z M321.6,977.6h11.3v137.1h-11.3V977.6z"/>
	<path d="M361.4,977.6h12.1l41.4,107.5c2.4,6.6,4.6,14.8,4.6,14.8h0.5c0,0,2.1-8.2,4.6-14.8l41.4-107.5h11.8l-52.7,137.1h-10.8
		L361.4,977.6z"/>
	<path d="M562.1,974.3c36.5,0,54.8,29.3,54.8,62.5c0,3-0.5,7.4-0.5,7.4H508.7c0,39.8,26.3,62.5,57.5,62.5
		c25.8,0,41.7-17.3,41.7-17.3l6.2,9.6c0,0-18.8,18.9-47.8,18.9c-37.9,0-69.3-28-69.3-71.6C496.8,1000.1,527.7,974.3,562.1,974.3z
		 M605.1,1033.5c-1.3-33.4-21-48.5-43.3-48.5c-24.7,0-47.6,16.4-52.4,48.5H605.1z"/>
	<path d="M654.8,977.6h11.3v26c0,6.3-1.1,11.2-1.1,11.2h0.5c6.7-21.1,21.8-38.4,43-38.4c4,0,7.8,0.8,7.8,0.8v11.5
		c0,0-3.2-0.6-6.2-0.6c-21,0-34.1,18.1-40,38.4c-3,9.6-4,19.7-4,28.8v59.2h-11.3V977.6z"/>
	<path d="M820.1,977.6h11.3v24.1c0,6.3-1.1,11.2-1.1,11.2h0.5c4.6-12.9,23.4-38.7,57-38.7c34.9,0,44.3,21.1,44.3,53.5v86.9h-11.3
		v-82.8c0-23.9-3-46.3-33.1-46.3c-25.3,0-47.6,18.1-54.3,43.6c-1.6,5.8-2.2,12.1-2.2,18.6v66.9h-11.3V977.6z"/>
	<path d="M1049.9,1031.1h8.9v-4.7c0-30.4-15.3-40.9-36.8-40.9c-23.4,0-38.4,13.2-38.4,13.2l-6.5-9.3c0,0,16.1-15.1,45.4-15.1
		c30.9,0,47.6,17.5,47.6,51.8v88.6h-11.3v-18.1c0-7.4,1.1-12.3,1.1-12.3h-0.5c0.3,0-12.1,33.7-47,33.7c-21.8,0-45.7-12.3-45.7-39.8
		C966.6,1031.6,1026,1031.1,1049.9,1031.1z M1012.8,1107.3c29.3,0,46-31,46-58.1v-7.4h-8.6c-22.8,0-71.8,0-71.8,35.6
		C978.4,1091.9,989.9,1107.3,1012.8,1107.3z"/>
	<path d="M1249.8,974.3c32,0,48.1,19.5,48.1,19.5l-7,9.3c0,0-15.3-17.5-41.1-17.5c-31.4,0-57.5,23.9-57.5,60.9
		c0,36.5,26.1,60.3,57.5,60.3c29.6,0,44.9-19.7,44.9-19.7l5.9,9.6c0,0-17.5,21.4-50.8,21.4c-37.9,0-69.3-28-69.3-71.6
		C1180.5,1002.8,1212.4,974.3,1249.8,974.3z"/>
	<path d="M1410.2,1031.1h8.9v-4.7c0-30.4-15.3-40.9-36.8-40.9c-23.4,0-38.4,13.2-38.4,13.2l-6.5-9.3c0,0,16.1-15.1,45.4-15.1
		c30.9,0,47.6,17.5,47.6,51.8v88.6h-11.3v-18.1c0-7.4,1.1-12.3,1.1-12.3h-0.5c0.3,0-12.1,33.7-47,33.7c-21.8,0-45.7-12.3-45.7-39.8
		C1326.9,1031.6,1386.3,1031.1,1410.2,1031.1z M1373.1,1107.3c29.3,0,46-31,46-58.1v-7.4h-8.6c-22.8,0-71.8,0-71.8,35.6
		C1338.7,1091.9,1350.3,1107.3,1373.1,1107.3z"/>
	<path d="M1471.5,1089.5c0,0,15,17.3,41.7,17.3c16.4,0,30.9-8.8,30.9-25.8c0-34.8-73.9-24.9-73.9-69.6c0-24.4,20.2-37,43-37
		c27.4,0,39.8,14.8,39.8,14.8l-6.7,9.3c0,0-11-12.9-33.9-12.9c-15.3,0-30.4,7.1-30.4,24.9c0,35.6,73.9,24.9,73.9,70.5
		c0,21.9-18.3,37-43,37c-32.5,0-48.6-19.7-48.6-19.7L1471.5,1089.5z"/>
	<path d="M1665.2,1031.1h8.9v-4.7c0-30.4-15.3-40.9-36.8-40.9c-23.4,0-38.4,13.2-38.4,13.2l-6.5-9.3c0,0,16.1-15.1,45.4-15.1
		c30.9,0,47.6,17.5,47.6,51.8v88.6h-11.3v-18.1c0-7.4,1.1-12.3,1.1-12.3h-0.5c0.3,0-12.1,33.7-47,33.7c-21.8,0-45.7-12.3-45.7-39.8
		C1581.9,1031.6,1641.3,1031.1,1665.2,1031.1z M1628.2,1107.3c29.3,0,46-31,46-58.1v-7.4h-8.6c-22.8,0-71.8,0-71.8,35.6
		C1593.8,1091.9,1605.3,1107.3,1628.2,1107.3z"/>
	<path d="M1856.6,974.3c33.9,0,46.5,31,46.5,31h0.5c0,0-1.1-4.9-1.1-11.2v-71.3h11.3v191.9h-11.3v-17.3c0-6.3,1.1-10.4,1.1-10.4
		h-0.5c0,0-11.6,31-48.6,31c-36,0-58.1-29.3-58.1-71.8C1796.4,1002.6,1821.4,974.3,1856.6,974.3z M1855,1106.7
		c24.7,0,47.8-17.8,47.8-60.9c0-30.4-15.3-60.3-46.8-60.3c-26.3,0-47.8,22.2-47.8,60.6C1808.2,1083.2,1827.6,1106.7,1855,1106.7z"/>
	<path d="M2033.4,1031.1h8.9v-4.7c0-30.4-15.3-40.9-36.8-40.9c-23.4,0-38.4,13.2-38.4,13.2l-6.5-9.3c0,0,16.1-15.1,45.4-15.1
		c30.9,0,47.6,17.5,47.6,51.8v88.6h-11.3v-18.1c0-7.4,1.1-12.3,1.1-12.3h-0.5c0.3,0-12.1,33.7-47,33.7c-21.8,0-45.7-12.3-45.7-39.8
		C1950.1,1031.6,2009.5,1031.1,2033.4,1031.1z M1996.3,1107.3c29.3,0,46-31,46-58.1v-7.4h-8.6c-22.8,0-71.8,0-71.8,35.6
		C1961.9,1091.9,1973.5,1107.3,1996.3,1107.3z"/>
	<path d="M2271,1048.3h-79.8l-24.2,66.3h-12.4l70.4-191.9h12.4l70.4,191.9h-12.4L2271,1048.3z M2230.9,936.5c0,0-4,14.8-7,23
		l-28.8,77.9h71.8l-28.5-77.9c-3-8.2-7-23-7-23H2230.9z"/>
	<path d="M2315,977.6h12.1l41.4,107.5c2.4,6.6,4.6,14.8,4.6,14.8h0.5c0,0,2.1-8.2,4.6-14.8l41.4-107.5h11.8l-52.7,137.1H2368
		L2315,977.6z"/>
	<path d="M2519.5,974.3c38.4,0,69.6,31,69.6,71c0,40.9-31.2,72.7-69.6,72.7c-38.4,0-69.6-31.8-69.6-72.7
		C2449.9,1005.3,2481.1,974.3,2519.5,974.3z M2519.5,1106.7c32,0,57.8-26.6,57.8-61.4c0-34-25.8-59.8-57.8-59.8
		c-32,0-57.8,25.8-57.8,59.8C2461.7,1080.1,2487.5,1106.7,2519.5,1106.7z M2531.3,922.8h15l-21.2,30.4h-11.8L2531.3,922.8z"/>
</g>
</svg>
